<svg width="500" height="600" viewBox="0 0 500 600" fill="none" xmlns="http://www.w3.org/2000/svg">
<g clip-path="url(#clip0_0_3)">
<rect width="500" height="600" fill="#F5F5F5"/>
<path d="M0 47C0 21.0426 21.0426 0 47 0H453C478.957 0 500 21.0426 500 47V553C500 578.957 478.957 600 453 600H47C21.0426 600 0 578.957 0 553V47Z" fill="url(#paint0_linear_0_3)"/>
<path d="M46.1227 67.75V74.85H57.5727V81.45H46.1227V89.15H59.0727V96H37.5727V60.9H59.0727V67.75H46.1227ZM75.9734 96.4C73.5401 96.4 71.3734 95.9833 69.4734 95.15C67.5734 94.3167 66.0734 93.1833 64.9734 91.75C63.8734 90.2833 63.2568 88.65 63.1234 86.85H71.5734C71.6734 87.8167 72.1234 88.6 72.9234 89.2C73.7234 89.8 74.7068 90.1 75.8734 90.1C76.9401 90.1 77.7568 89.9 78.3234 89.5C78.9234 89.0667 79.2234 88.5167 79.2234 87.85C79.2234 87.05 78.8068 86.4667 77.9734 86.1C77.1401 85.7 75.7901 85.2667 73.9234 84.8C71.9234 84.3333 70.2568 83.85 68.9234 83.35C67.5901 82.8167 66.4401 82 65.4734 80.9C64.5068 79.7667 64.0234 78.25 64.0234 76.35C64.0234 74.75 64.4568 73.3 65.3234 72C66.2234 70.6667 67.5234 69.6167 69.2234 68.85C70.9568 68.0833 73.0068 67.7 75.3734 67.7C78.8734 67.7 81.6234 68.5667 83.6234 70.3C85.6568 72.0333 86.8234 74.3333 87.1234 77.2H79.2234C79.0901 76.2333 78.6568 75.4667 77.9234 74.9C77.2234 74.3333 76.2901 74.05 75.1234 74.05C74.1234 74.05 73.3568 74.25 72.8234 74.65C72.2901 75.0167 72.0234 75.5333 72.0234 76.2C72.0234 77 72.4401 77.6 73.2734 78C74.1401 78.4 75.4734 78.8 77.2734 79.2C79.3401 79.7333 81.0234 80.2667 82.3234 80.8C83.6234 81.3 84.7568 82.1333 85.7234 83.3C86.7234 84.4333 87.2401 85.9667 87.2734 87.9C87.2734 89.5333 86.8068 91 85.8734 92.3C84.9734 93.5667 83.6568 94.5667 81.9234 95.3C80.2234 96.0333 78.2401 96.4 75.9734 96.4ZM108.054 88.75V96H103.704C100.604 96 98.1876 95.25 96.4543 93.75C94.721 92.2167 93.8543 89.7333 93.8543 86.3V75.2H90.4543V68.1H93.8543V61.3H102.404V68.1H108.004V75.2H102.404V86.4C102.404 87.2333 102.604 87.8333 103.004 88.2C103.404 88.5667 104.071 88.75 105.004 88.75H108.054ZM111.117 82C111.117 79.1333 111.65 76.6167 112.717 74.45C113.817 72.2833 115.3 70.6167 117.167 69.45C119.033 68.2833 121.117 67.7 123.417 67.7C125.383 67.7 127.1 68.1 128.567 68.9C130.067 69.7 131.217 70.75 132.017 72.05V68.1H140.567V96H132.017V92.05C131.183 93.35 130.017 94.4 128.517 95.2C127.05 96 125.333 96.4 123.367 96.4C121.1 96.4 119.033 95.8167 117.167 94.65C115.3 93.45 113.817 91.7667 112.717 89.6C111.65 87.4 111.117 84.8667 111.117 82ZM132.017 82.05C132.017 79.9167 131.417 78.2333 130.217 77C129.05 75.7667 127.617 75.15 125.917 75.15C124.217 75.15 122.767 75.7667 121.567 77C120.4 78.2 119.817 79.8667 119.817 82C119.817 84.1333 120.4 85.8333 121.567 87.1C122.767 88.3333 124.217 88.95 125.917 88.95C127.617 88.95 129.05 88.3333 130.217 87.1C131.417 85.8667 132.017 84.1833 132.017 82.05ZM163.752 67.8C167.019 67.8 169.619 68.8667 171.552 71C173.519 73.1 174.502 76 174.502 79.7V96H166.002V80.85C166.002 78.9833 165.519 77.5333 164.552 76.5C163.586 75.4667 162.286 74.95 160.652 74.95C159.019 74.95 157.719 75.4667 156.752 76.5C155.786 77.5333 155.302 78.9833 155.302 80.85V96H146.752V68.1H155.302V71.8C156.169 70.5667 157.336 69.6 158.802 68.9C160.269 68.1667 161.919 67.8 163.752 67.8ZM178.744 82.05C178.744 79.15 179.327 76.6167 180.494 74.45C181.694 72.2833 183.344 70.6167 185.444 69.45C187.577 68.2833 190.01 67.7 192.744 67.7C196.244 67.7 199.16 68.6167 201.494 70.45C203.86 72.2833 205.41 74.8667 206.144 78.2H197.044C196.277 76.0667 194.794 75 192.594 75C191.027 75 189.777 75.6167 188.844 76.85C187.91 78.05 187.444 79.7833 187.444 82.05C187.444 84.3167 187.91 86.0667 188.844 87.3C189.777 88.5 191.027 89.1 192.594 89.1C194.794 89.1 196.277 88.0333 197.044 85.9H206.144C205.41 89.1667 203.86 91.7333 201.494 93.6C199.127 95.4667 196.21 96.4 192.744 96.4C190.01 96.4 187.577 95.8167 185.444 94.65C183.344 93.4833 181.694 91.8167 180.494 89.65C179.327 87.4833 178.744 84.95 178.744 82.05ZM215.017 65.2C213.517 65.2 212.284 64.7667 211.317 63.9C210.384 63 209.917 61.9 209.917 60.6C209.917 59.2667 210.384 58.1667 211.317 57.3C212.284 56.4 213.517 55.95 215.017 55.95C216.484 55.95 217.684 56.4 218.617 57.3C219.584 58.1667 220.067 59.2667 220.067 60.6C220.067 61.9 219.584 63 218.617 63.9C217.684 64.7667 216.484 65.2 215.017 65.2ZM219.267 68.1V96H210.717V68.1H219.267ZM223.763 82C223.763 79.1333 224.297 76.6167 225.363 74.45C226.463 72.2833 227.947 70.6167 229.813 69.45C231.68 68.2833 233.763 67.7 236.063 67.7C238.03 67.7 239.747 68.1 241.213 68.9C242.713 69.7 243.863 70.75 244.663 72.05V68.1H253.213V96H244.663V92.05C243.83 93.35 242.663 94.4 241.163 95.2C239.697 96 237.98 96.4 236.013 96.4C233.747 96.4 231.68 95.8167 229.813 94.65C227.947 93.45 226.463 91.7667 225.363 89.6C224.297 87.4 223.763 84.8667 223.763 82ZM244.663 82.05C244.663 79.9167 244.063 78.2333 242.863 77C241.697 75.7667 240.263 75.15 238.563 75.15C236.863 75.15 235.413 75.7667 234.213 77C233.047 78.2 232.463 79.8667 232.463 82C232.463 84.1333 233.047 85.8333 234.213 87.1C235.413 88.3333 236.863 88.95 238.563 88.95C240.263 88.95 241.697 88.3333 242.863 87.1C244.063 85.8667 244.663 84.1833 244.663 82.05ZM282.695 96.35C280.128 96.35 277.828 95.9333 275.795 95.1C273.761 94.2667 272.128 93.0333 270.895 91.4C269.695 89.7667 269.061 87.8 268.995 85.5H278.095C278.228 86.8 278.678 87.8 279.445 88.5C280.211 89.1667 281.211 89.5 282.445 89.5C283.711 89.5 284.711 89.2167 285.445 88.65C286.178 88.05 286.545 87.2333 286.545 86.2C286.545 85.3333 286.245 84.6167 285.645 84.05C285.078 83.4833 284.361 83.0167 283.495 82.65C282.661 82.2833 281.461 81.8667 279.895 81.4C277.628 80.7 275.778 80 274.345 79.3C272.911 78.6 271.678 77.5667 270.645 76.2C269.611 74.8333 269.095 73.05 269.095 70.85C269.095 67.5833 270.278 65.0333 272.645 63.2C275.011 61.3333 278.095 60.4 281.895 60.4C285.761 60.4 288.878 61.3333 291.245 63.2C293.611 65.0333 294.878 67.6 295.045 70.9H285.795C285.728 69.7667 285.311 68.8833 284.545 68.25C283.778 67.5833 282.795 67.25 281.595 67.25C280.561 67.25 279.728 67.5333 279.095 68.1C278.461 68.6333 278.145 69.4167 278.145 70.45C278.145 71.5833 278.678 72.4667 279.745 73.1C280.811 73.7333 282.478 74.4167 284.745 75.15C287.011 75.9167 288.845 76.65 290.245 77.35C291.678 78.05 292.911 79.0667 293.945 80.4C294.978 81.7333 295.495 83.45 295.495 85.55C295.495 87.55 294.978 89.3667 293.945 91C292.945 92.6333 291.478 93.9333 289.545 94.9C287.611 95.8667 285.328 96.35 282.695 96.35ZM327.056 81.6C327.056 82.4 327.006 83.2333 326.906 84.1H307.556C307.69 85.8333 308.24 87.1667 309.206 88.1C310.206 89 311.423 89.45 312.856 89.45C314.99 89.45 316.473 88.55 317.306 86.75H326.406C325.94 88.5833 325.09 90.2333 323.856 91.7C322.656 93.1667 321.14 94.3167 319.306 95.15C317.473 95.9833 315.423 96.4 313.156 96.4C310.423 96.4 307.99 95.8167 305.856 94.65C303.723 93.4833 302.056 91.8167 300.856 89.65C299.656 87.4833 299.056 84.95 299.056 82.05C299.056 79.15 299.64 76.6167 300.806 74.45C302.006 72.2833 303.673 70.6167 305.806 69.45C307.94 68.2833 310.39 67.7 313.156 67.7C315.856 67.7 318.256 68.2667 320.356 69.4C322.456 70.5333 324.09 72.15 325.256 74.25C326.456 76.35 327.056 78.8 327.056 81.6ZM318.306 79.35C318.306 77.8833 317.806 76.7167 316.806 75.85C315.806 74.9833 314.556 74.55 313.056 74.55C311.623 74.55 310.406 74.9667 309.406 75.8C308.44 76.6333 307.84 77.8167 307.606 79.35H318.306ZM342.167 67.7C344.133 67.7 345.85 68.1 347.317 68.9C348.817 69.7 349.967 70.75 350.767 72.05V68.1H359.317V95.95C359.317 98.5167 358.8 100.833 357.767 102.9C356.767 105 355.217 106.667 353.117 107.9C351.05 109.133 348.467 109.75 345.367 109.75C341.233 109.75 337.883 108.767 335.317 106.8C332.75 104.867 331.283 102.233 330.917 98.9H339.367C339.633 99.9667 340.267 100.8 341.267 101.4C342.267 102.033 343.5 102.35 344.967 102.35C346.733 102.35 348.133 101.833 349.167 100.8C350.233 99.8 350.767 98.1833 350.767 95.95V92C349.933 93.3 348.783 94.3667 347.317 95.2C345.85 96 344.133 96.4 342.167 96.4C339.867 96.4 337.783 95.8167 335.917 94.65C334.05 93.45 332.567 91.7667 331.467 89.6C330.4 87.4 329.867 84.8667 329.867 82C329.867 79.1333 330.4 76.6167 331.467 74.45C332.567 72.2833 334.05 70.6167 335.917 69.45C337.783 68.2833 339.867 67.7 342.167 67.7ZM350.767 82.05C350.767 79.9167 350.167 78.2333 348.967 77C347.8 75.7667 346.367 75.15 344.667 75.15C342.967 75.15 341.517 75.7667 340.317 77C339.15 78.2 338.567 79.8667 338.567 82C338.567 84.1333 339.15 85.8333 340.317 87.1C341.517 88.3333 342.967 88.95 344.667 88.95C346.367 88.95 347.8 88.3333 348.967 87.1C350.167 85.8667 350.767 84.1833 350.767 82.05ZM393.052 68.1V96H384.502V92.2C383.636 93.4333 382.452 94.4333 380.952 95.2C379.486 95.9333 377.852 96.3 376.052 96.3C373.919 96.3 372.036 95.8333 370.402 94.9C368.769 93.9333 367.502 92.55 366.602 90.75C365.702 88.95 365.252 86.8333 365.252 84.4V68.1H373.752V83.25C373.752 85.1167 374.236 86.5667 375.202 87.6C376.169 88.6333 377.469 89.15 379.102 89.15C380.769 89.15 382.086 88.6333 383.052 87.6C384.019 86.5667 384.502 85.1167 384.502 83.25V68.1H393.052ZM407.744 72.75C408.744 71.2167 409.994 70.0167 411.494 69.15C412.994 68.25 414.66 67.8 416.494 67.8V76.85H414.144C412.01 76.85 410.41 77.3167 409.344 78.25C408.277 79.15 407.744 80.75 407.744 83.05V96H399.194V68.1H407.744V72.75ZM418.88 82C418.88 79.1333 419.414 76.6167 420.48 74.45C421.58 72.2833 423.064 70.6167 424.93 69.45C426.797 68.2833 428.88 67.7 431.18 67.7C433.147 67.7 434.864 68.1 436.33 68.9C437.83 69.7 438.98 70.75 439.78 72.05V68.1H448.33V96H439.78V92.05C438.947 93.35 437.78 94.4 436.28 95.2C434.814 96 433.097 96.4 431.13 96.4C428.864 96.4 426.797 95.8167 424.93 94.65C423.064 93.45 421.58 91.7667 420.48 89.6C419.414 87.4 418.88 84.8667 418.88 82ZM439.78 82.05C439.78 79.9167 439.18 78.2333 437.98 77C436.814 75.7667 435.38 75.15 433.68 75.15C431.98 75.15 430.53 75.7667 429.33 77C428.164 78.2 427.58 79.8667 427.58 82C427.58 84.1333 428.164 85.8333 429.33 87.1C430.53 88.3333 431.98 88.95 433.68 88.95C435.38 88.95 436.814 88.3333 437.98 87.1C439.18 85.8667 439.78 84.1833 439.78 82.05ZM458.516 96.4C457.016 96.4 455.783 95.9667 454.816 95.1C453.883 94.2 453.416 93.1 453.416 91.8C453.416 90.4667 453.883 89.35 454.816 88.45C455.783 87.55 457.016 87.1 458.516 87.1C459.983 87.1 461.183 87.55 462.116 88.45C463.083 89.35 463.566 90.4667 463.566 91.8C463.566 93.1 463.083 94.2 462.116 95.1C461.183 95.9667 459.983 96.4 458.516 96.4Z" fill="white"/>
<g clip-path="url(#clip1_0_3)">
<path d="M439.878 464.244L213.216 333.129C210.034 331.313 207.46 326.355 207.46 322.115V146.444C207.46 142.195 210.034 140.242 213.216 142.086L439.878 273.201C443.06 275.017 445.634 279.975 445.634 284.215V459.886C445.67 464.135 443.096 466.087 439.878 464.244Z" fill="#B1B4C4"/>
<path d="M441.084 466.06L443.594 464.607L442.507 457.153L441.084 466.06Z" fill="#B1B4C4"/>
<path d="M207.052 143.148L209.527 141.713L213.08 143.747C213.08 143.747 209.291 144.319 209.2 144.301C209.11 144.283 207.052 143.148 207.052 143.148Z" fill="#B1B4C4"/>
<path d="M437.839 465.488L211.14 334.336C207.959 332.52 205.375 327.563 205.375 323.313V147.688C205.375 143.439 207.959 141.486 211.14 143.33L437.839 274.445C441.02 276.261 443.594 281.218 443.594 285.468V461.093C443.594 465.334 441.02 467.304 437.839 465.488Z" fill="#E4E7F2"/>
<path d="M437.44 465.679L210.741 334.563C207.56 332.747 204.977 327.79 204.977 323.54V147.87C204.977 143.629 207.56 141.677 210.741 143.511L437.44 274.626C440.612 276.442 443.196 281.4 443.196 285.65V461.32C443.196 465.57 440.612 467.522 437.44 465.679Z" fill="#D6D8E5"/>
<path d="M440.078 454.992L207.841 320.689L207.977 148.596C207.977 146.834 209.209 146.117 210.696 146.998L437.395 278.113C438.191 278.641 438.851 279.35 439.324 280.181C439.796 281.012 440.067 281.943 440.114 282.898L440.078 454.992Z" fill="white"/>
<path opacity="0.5" d="M440.005 455.001L207.841 320.698L207.913 148.596C207.913 146.834 209.146 146.117 210.633 146.998L437.331 278.113C438.127 278.642 438.787 279.35 439.259 280.181C439.732 281.013 440.003 281.943 440.05 282.898L440.005 455.001Z" fill="url(#paint1_linear_0_3)"/>
<path opacity="0.4" d="M266.457 567.756L39.7588 436.641C36.5773 434.825 36.9761 431.592 40.6651 429.468L192.532 341.628C196.157 339.512 201.759 339.276 204.931 341.119L431.639 472.234C434.811 474.05 434.413 477.283 430.733 479.408L278.857 567.248C275.186 569.363 269.63 569.599 266.457 567.756Z" fill="#D6D8E5"/>
<path d="M271.406 564.778L44.6895 433.708C41.5081 431.892 41.9069 428.66 45.5959 426.535L197.463 338.704C201.088 336.579 206.69 336.343 209.871 338.186L436.57 469.302C439.751 471.118 439.352 474.35 435.663 476.475L283.815 564.269C280.144 566.385 274.588 566.621 271.406 564.778Z" fill="#B1B4C4"/>
<path d="M42.5595 430.703V426.417L47.3634 428.433L42.5595 430.703Z" fill="#B1B4C4"/>
<path d="M438.718 472.461V468.276L435.165 469.501L437.522 472.97L438.718 472.461Z" fill="#B1B4C4"/>
<path d="M271.406 561.173L44.6895 430.076C41.5081 428.26 41.9069 425.027 45.5959 422.903L197.463 335.063C201.088 332.938 206.69 332.711 209.871 334.554L436.57 465.67C439.751 467.486 439.352 470.718 435.663 472.843L283.815 560.655C280.144 562.78 274.588 563.016 271.406 561.173Z" fill="#E4E7F2"/>
<path d="M271.406 560.619L44.6895 429.504C41.5081 427.688 41.9069 424.446 45.5959 422.331L197.463 334.491C201.088 332.366 206.69 332.139 209.871 333.973L436.57 465.098C439.751 466.914 439.352 470.146 435.663 472.271L283.815 560.102C280.144 562.226 274.588 562.453 271.406 560.619Z" fill="#D6D8E5"/>
<path d="M193.257 364.119L182.706 358.017C181.8 357.518 181.954 356.646 182.942 356.074L193.021 350.245C193.531 349.961 194.099 349.8 194.682 349.777C195.264 349.753 195.844 349.867 196.375 350.108L206.934 356.21C207.795 356.71 207.687 357.581 206.69 358.153L196.62 363.983C196.109 364.267 195.538 364.427 194.954 364.451C194.37 364.474 193.789 364.361 193.257 364.119V364.119Z" fill="#2B303F"/>
<path d="M208.203 372.763L197.644 366.652C196.783 366.162 196.892 365.29 197.889 364.709L207.959 358.889C208.47 358.605 209.04 358.444 209.624 358.421C210.208 358.397 210.789 358.511 211.321 358.753L221.872 364.854C222.778 365.354 222.624 366.225 221.636 366.797L211.557 372.618C211.049 372.905 210.48 373.068 209.898 373.094C209.315 373.119 208.734 373.006 208.203 372.763Z" fill="#2B303F"/>
<path d="M223.313 381.507L212.763 375.396C211.856 374.897 212.01 374.025 212.998 373.453L223.077 367.633C223.585 367.345 224.154 367.182 224.737 367.157C225.32 367.132 225.9 367.245 226.431 367.488L236.99 373.598C237.897 374.089 237.743 374.96 236.746 375.542L226.676 381.362C226.164 381.645 225.595 381.805 225.011 381.83C224.428 381.855 223.847 381.745 223.313 381.507V381.507Z" fill="#2B303F"/>
<path d="M238.087 390.042L227.528 383.941C226.667 383.441 226.775 382.569 227.772 381.997L237.843 376.168C238.354 375.884 238.924 375.724 239.508 375.7C240.092 375.676 240.673 375.79 241.205 376.032L251.765 382.134C252.626 382.633 252.517 383.505 251.52 384.077L241.45 389.906C240.939 390.19 240.369 390.35 239.785 390.374C239.201 390.398 238.619 390.284 238.087 390.042V390.042Z" fill="#2B303F"/>
<path d="M253.034 398.686L242.474 392.585C241.568 392.085 241.722 391.214 242.719 390.642L252.789 384.812C253.3 384.528 253.87 384.368 254.454 384.344C255.038 384.321 255.62 384.434 256.152 384.676L266.702 390.778C267.563 391.277 267.455 392.149 266.457 392.721L256.387 398.55C255.878 398.834 255.309 398.995 254.727 399.018C254.144 399.042 253.564 398.928 253.034 398.686V398.686Z" fill="#2B303F"/>
<path d="M267.971 407.376L257.421 401.274C256.56 400.775 256.659 399.903 257.656 399.331L267.726 393.502C268.237 393.218 268.808 393.057 269.392 393.034C269.976 393.01 270.557 393.124 271.089 393.366L281.649 399.467C282.51 399.967 282.401 400.838 281.404 401.41L271.334 407.24C270.823 407.524 270.253 407.684 269.669 407.708C269.085 407.732 268.503 407.618 267.971 407.376V407.376Z" fill="#2B303F"/>
<path d="M282.918 415.975L272.358 409.873C271.497 409.374 271.606 408.502 272.603 407.93L282.673 402.101C283.184 401.816 283.754 401.656 284.338 401.633C284.922 401.609 285.503 401.723 286.036 401.964L296.586 408.066C297.447 408.566 297.338 409.437 296.35 410.009L286.271 415.829C285.763 416.117 285.195 416.28 284.612 416.305C284.029 416.331 283.448 416.217 282.918 415.975Z" fill="#2B303F"/>
<path d="M297.855 424.628L287.305 418.517C286.443 418.018 286.552 417.155 287.54 416.574L297.619 410.754C298.127 410.466 298.696 410.303 299.279 410.278C299.862 410.253 300.442 410.366 300.973 410.608L311.532 416.719C312.439 417.219 312.285 418.081 311.288 418.662L301.2 424.474C300.693 424.76 300.127 424.923 299.546 424.95C298.965 424.976 298.386 424.866 297.855 424.628V424.628Z" fill="#2B303F"/>
<path d="M312.801 433.254L302.242 427.152C301.381 426.653 301.49 425.781 302.487 425.209L312.557 419.389C313.066 419.101 313.636 418.938 314.221 418.913C314.805 418.888 315.387 419.001 315.919 419.244L326.47 425.354C327.331 425.845 327.222 426.716 326.234 427.298L316.164 433.118C315.653 433.402 315.083 433.562 314.499 433.586C313.915 433.609 313.334 433.496 312.801 433.254V433.254Z" fill="#2B303F"/>
<path d="M327.739 441.88L317.188 435.778C316.327 435.279 316.436 434.407 317.424 433.835L327.485 428.024C327.994 427.74 328.563 427.58 329.146 427.556C329.728 427.532 330.308 427.646 330.839 427.888L341.398 433.989C342.259 434.489 342.151 435.361 341.153 435.933L331.111 441.762C330.597 442.045 330.024 442.203 329.439 442.223C328.853 442.244 328.271 442.126 327.739 441.88V441.88Z" fill="#2B303F"/>
<path d="M342.685 450.542L332.126 444.441C331.265 443.941 331.374 443.069 332.371 442.497L342.441 436.668C342.952 436.384 343.522 436.224 344.106 436.2C344.69 436.176 345.271 436.29 345.803 436.532L356.363 442.634C357.224 443.133 357.115 444.005 356.118 444.577L346.048 450.406C345.537 450.69 344.967 450.85 344.383 450.874C343.799 450.898 343.218 450.784 342.685 450.542Z" fill="#2B303F"/>
<path d="M357.632 459.187L347.072 453.085C346.211 452.585 346.32 451.714 347.317 451.142L357.396 445.312C357.907 445.028 358.477 444.868 359.061 444.844C359.645 444.821 360.227 444.934 360.759 445.176L371.309 451.278C372.216 451.777 372.062 452.649 371.065 453.221L361.022 459.05C360.508 459.34 359.933 459.504 359.343 459.527C358.754 459.551 358.167 459.434 357.632 459.187V459.187Z" fill="#2B303F"/>
<path d="M372.569 467.831L362.019 461.72C361.112 461.22 361.257 460.358 362.254 459.777L372.324 453.956C372.835 453.671 373.405 453.509 373.989 453.484C374.573 453.459 375.154 453.571 375.687 453.811L386.247 459.922C387.108 460.421 386.999 461.284 386.002 461.865L375.932 467.685C375.422 467.973 374.852 468.136 374.268 468.161C373.684 468.186 373.102 468.073 372.569 467.831V467.831Z" fill="#2B303F"/>
<path d="M394.713 480.633L376.956 470.364C376.095 469.865 376.204 468.993 377.201 468.421L387.307 462.601C387.817 462.313 388.387 462.15 388.971 462.125C389.556 462.099 390.138 462.213 390.67 462.455L408.381 472.752C409.242 473.251 409.133 474.123 408.145 474.695L398.066 480.525C397.555 480.804 396.985 480.96 396.402 480.979C395.82 480.998 395.241 480.879 394.713 480.633V480.633Z" fill="#2B303F"/>
<path d="M200.943 385.312L190.384 379.228C189.477 378.729 189.631 377.857 190.628 377.285L200.698 371.456C201.209 371.171 201.78 371.011 202.364 370.987C202.948 370.964 203.529 371.077 204.061 371.319L214.612 377.412C215.473 377.911 215.364 378.783 214.376 379.355L204.297 385.184C203.787 385.467 203.217 385.626 202.635 385.648C202.053 385.67 201.473 385.555 200.943 385.312V385.312Z" fill="#2B303F"/>
<path d="M215.908 393.974L205.357 387.872C204.496 387.373 204.605 386.501 205.593 385.929L215.672 380.136C216.181 379.852 216.75 379.692 217.333 379.668C217.915 379.644 218.495 379.758 219.026 380L229.594 386.065C230.455 386.565 230.347 387.436 229.35 388.008L219.28 393.838C218.767 394.123 218.195 394.284 217.61 394.308C217.024 394.332 216.441 394.217 215.908 393.974V393.974Z" fill="#2B303F"/>
<path d="M230.881 402.627L220.322 396.525C219.415 396.026 219.57 395.154 220.567 394.582L230.637 388.753C231.148 388.469 231.718 388.309 232.302 388.285C232.886 388.261 233.467 388.375 233.999 388.617L244.55 394.718C245.411 395.218 245.302 396.09 244.314 396.662L234.235 402.491C233.726 402.775 233.157 402.935 232.574 402.959C231.992 402.983 231.412 402.869 230.881 402.627V402.627Z" fill="#2B303F"/>
<path d="M245.846 411.289L235.286 405.179C234.425 404.688 234.534 403.817 235.531 403.236L245.601 397.388C246.112 397.102 246.681 396.941 247.265 396.915C247.849 396.89 248.431 397.002 248.964 397.243L259.505 403.381C260.366 403.88 260.258 404.743 259.261 405.324L249.191 411.144C248.683 411.429 248.116 411.59 247.536 411.615C246.955 411.641 246.376 411.529 245.846 411.289V411.289Z" fill="#2B303F"/>
<path d="M260.693 419.879L250.142 413.732C249.281 413.233 249.39 412.37 250.378 411.789L260.457 405.969C260.965 405.681 261.534 405.518 262.117 405.493C262.699 405.468 263.28 405.581 263.811 405.823L274.37 411.934C275.277 412.424 275.123 413.296 274.126 413.877L264.037 419.734C263.529 420.016 262.963 420.177 262.382 420.202C261.802 420.227 261.223 420.117 260.693 419.879Z" fill="#2B303F"/>
<path d="M275.666 428.532L265.107 422.431C264.246 421.931 264.355 421.06 265.352 420.488L275.422 414.64C275.933 414.356 276.503 414.196 277.087 414.172C277.671 414.148 278.252 414.262 278.784 414.504L289.335 420.606C290.196 421.105 290.087 421.977 289.099 422.549L279.02 428.378C278.512 428.665 277.944 428.828 277.362 428.855C276.779 428.882 276.198 428.771 275.666 428.532Z" fill="#2B303F"/>
<path d="M290.631 437.186L280.072 431.084C279.21 430.584 279.319 429.713 280.316 429.141L290.386 423.32C290.896 423.033 291.466 422.87 292.05 422.845C292.635 422.819 293.217 422.933 293.749 423.175L304.309 429.286C305.17 429.776 305.061 430.648 304.064 431.229L293.994 437.049C293.483 437.334 292.912 437.494 292.329 437.517C291.745 437.541 291.163 437.427 290.631 437.186Z" fill="#2B303F"/>
<path d="M305.596 445.848L295.045 439.746C294.184 439.247 294.293 438.375 295.29 437.803L305.36 431.974C305.869 431.69 306.438 431.529 307.021 431.506C307.603 431.482 308.183 431.596 308.714 431.838L319.273 437.939C320.134 438.439 320.025 439.31 319.028 439.882L308.958 445.712C308.447 445.996 307.877 446.156 307.293 446.18C306.709 446.203 306.128 446.09 305.596 445.848Z" fill="#2B303F"/>
<path d="M320.569 454.501L310.01 448.399C309.103 447.9 309.257 447.028 310.254 446.456L320.325 440.627C320.836 440.343 321.406 440.183 321.99 440.159C322.574 440.135 323.155 440.249 323.687 440.491L334.238 446.593C335.099 447.092 334.999 447.964 334.002 448.536L323.932 454.365C323.421 454.649 322.851 454.809 322.267 454.833C321.683 454.857 321.101 454.743 320.569 454.501V454.501Z" fill="#2B303F"/>
<path d="M335.534 463.163L324.983 457.053C324.122 456.562 324.231 455.691 325.219 455.11L335.298 449.289C335.808 449.006 336.376 448.845 336.958 448.82C337.54 448.795 338.12 448.906 338.652 449.144L349.239 455.255C350.1 455.754 349.991 456.626 348.994 457.198L338.924 463.018C338.411 463.31 337.836 463.476 337.246 463.501C336.657 463.526 336.07 463.411 335.534 463.163Z" fill="#2B303F"/>
<path d="M350.508 471.844L339.948 465.742C339.087 465.243 339.196 464.371 340.193 463.799L350.263 457.97C350.774 457.686 351.344 457.525 351.928 457.502C352.512 457.478 353.093 457.592 353.626 457.834L364.176 463.935C365.037 464.435 364.928 465.306 363.94 465.878L353.861 471.708C353.352 471.992 352.783 472.152 352.201 472.176C351.618 472.199 351.038 472.086 350.508 471.844Z" fill="#2B303F"/>
<path d="M365.472 480.479L354.922 474.368C354.061 473.869 354.16 473.006 355.157 472.425L365.227 466.605C365.738 466.319 366.308 466.157 366.892 466.132C367.475 466.107 368.057 466.219 368.59 466.46L379.15 472.57C380.011 473.07 379.902 473.932 378.905 474.514L368.835 480.334C368.325 480.621 367.755 480.784 367.171 480.81C366.587 480.835 366.005 480.722 365.472 480.479Z" fill="#2B303F"/>
<path d="M185.969 376.658L168.222 366.389C167.361 365.889 167.47 365.027 168.458 364.446L178.537 358.625C179.045 358.338 179.614 358.175 180.196 358.15C180.779 358.124 181.36 358.238 181.891 358.48L199.683 368.75C200.544 369.249 200.436 370.121 199.439 370.693L189.332 376.504C188.823 376.791 188.253 376.954 187.669 376.981C187.085 377.008 186.503 376.897 185.969 376.658V376.658Z" fill="#2B303F"/>
<path d="M393.987 481.187L383.437 475.086C382.952 474.837 382.414 474.707 381.869 474.707C381.324 474.707 380.786 474.837 380.301 475.086L369.66 481.242C368.753 481.741 368.753 482.549 369.66 483.058L370.503 483.548C371.3 484.002 371.291 484.756 370.503 485.219L359.209 491.72C358.303 492.229 358.303 493.037 359.209 493.536L365.925 497.422C366.41 497.669 366.946 497.797 367.489 497.797C368.032 497.797 368.568 497.669 369.052 497.422L379.585 491.339L381.76 490.077L383.328 489.169L384.905 488.261L393.969 483.021C394.848 482.495 394.848 481.687 393.987 481.187Z" fill="#2B303F"/>
<path d="M135.384 397.66L124.833 391.559C123.927 391.059 124.081 390.188 125.069 389.615L135.148 383.768C135.657 383.484 136.226 383.324 136.809 383.3C137.391 383.276 137.971 383.39 138.502 383.632L149.061 389.734C149.922 390.233 149.813 391.105 148.816 391.677L138.746 397.506C138.237 397.793 137.667 397.956 137.083 397.983C136.499 398.01 135.917 397.899 135.384 397.66V397.66Z" fill="#2B303F"/>
<path d="M150.285 406.277L139.734 400.176C138.828 399.676 138.982 398.804 139.97 398.232L150.049 392.403C150.558 392.119 151.127 391.959 151.71 391.935C152.292 391.912 152.872 392.025 153.403 392.267L163.962 398.369C164.823 398.868 164.714 399.74 163.717 400.312L153.647 406.141C153.136 406.425 152.566 406.585 151.982 406.609C151.398 406.633 150.817 406.519 150.285 406.277V406.277Z" fill="#2B303F"/>
<path d="M165.186 414.894L154.635 408.793C153.729 408.293 153.874 407.421 154.871 406.849L164.941 401.02C165.452 400.736 166.022 400.576 166.606 400.552C167.19 400.528 167.772 400.642 168.304 400.884L178.836 406.986C179.697 407.485 179.588 408.357 178.591 408.929L168.521 414.758C168.014 415.038 167.448 415.196 166.87 415.219C166.291 415.243 165.714 415.132 165.186 414.894V414.894Z" fill="#2B303F"/>
<path d="M292.081 488.288L281.522 482.177C280.615 481.687 280.769 480.815 281.766 480.234L291.837 474.414C292.347 474.128 292.917 473.966 293.501 473.941C294.085 473.916 294.666 474.028 295.199 474.268L305.732 480.379C306.638 480.879 306.484 481.741 305.487 482.322L295.435 488.188C294.923 488.468 294.353 488.623 293.77 488.641C293.187 488.658 292.609 488.537 292.081 488.288V488.288Z" fill="#2B303F"/>
<path d="M306.973 496.905L296.423 490.803C295.517 490.304 295.671 489.432 296.659 488.86L306.738 483.031C307.247 482.747 307.816 482.586 308.398 482.563C308.981 482.539 309.561 482.653 310.091 482.894L320.651 488.996C321.557 489.496 321.403 490.367 320.406 490.939L310.336 496.769C309.825 497.053 309.255 497.213 308.671 497.237C308.087 497.26 307.506 497.147 306.973 496.905Z" fill="#2B303F"/>
<path d="M321.874 505.522L311.324 499.42C310.463 498.921 310.572 498.049 311.56 497.477L321.639 491.647C322.148 491.363 322.717 491.203 323.299 491.18C323.882 491.156 324.462 491.27 324.992 491.511L335.552 497.613C336.458 498.112 336.304 498.984 335.307 499.556L325.237 505.386C324.726 505.67 324.156 505.83 323.572 505.854C322.988 505.877 322.407 505.764 321.874 505.522Z" fill="#2B303F"/>
<path d="M336.776 514.139L326.225 508.037C325.364 507.537 325.473 506.666 326.461 506.094L336.549 500.264C337.058 499.98 337.627 499.82 338.21 499.796C338.792 499.773 339.372 499.886 339.903 500.128L350.462 506.23C351.369 506.729 351.214 507.601 350.217 508.173L340.175 514.002C339.659 514.292 339.082 514.456 338.491 514.48C337.901 514.503 337.313 514.386 336.776 514.139V514.139Z" fill="#2B303F"/>
<path d="M183.921 425.736L169.527 417.409C168.666 416.91 168.775 416.038 169.772 415.466L179.842 409.637C180.353 409.353 180.924 409.193 181.507 409.169C182.091 409.145 182.673 409.259 183.205 409.501L197.599 417.827C198.505 418.326 198.351 419.189 197.354 419.77L187.284 425.59C186.774 425.878 186.204 426.041 185.62 426.066C185.035 426.092 184.453 425.978 183.921 425.736Z" fill="#2B303F"/>
<path d="M277.18 479.671L262.787 471.345C261.88 470.845 262.034 469.973 263.022 469.401L273.101 463.572C273.611 463.288 274.18 463.128 274.762 463.104C275.344 463.081 275.924 463.194 276.455 463.436L290.849 471.762C291.71 472.262 291.601 473.124 290.613 473.705L280.534 479.526C280.026 479.813 279.457 479.976 278.874 480.001C278.292 480.027 277.711 479.913 277.18 479.671Z" fill="#2B303F"/>
<path d="M258.436 468.829L188.272 428.26C187.411 427.761 187.519 426.889 188.507 426.317L198.586 420.487C199.096 420.204 199.665 420.043 200.247 420.02C200.83 419.996 201.409 420.11 201.94 420.351L272.113 460.948C272.974 461.447 272.866 462.319 271.869 462.891L261.799 468.72C261.285 469 260.714 469.156 260.13 469.175C259.546 469.194 258.966 469.075 258.436 468.829V468.829Z" fill="#2B303F"/>
<path d="M190.52 396.044L179.969 389.942C179.108 389.443 179.217 388.571 180.214 387.999L190.284 382.17C190.793 381.886 191.362 381.726 191.945 381.702C192.527 381.678 193.107 381.792 193.638 382.034L204.215 388.135C205.122 388.635 204.968 389.507 203.971 390.079L193.9 395.908C193.387 396.195 192.814 396.357 192.226 396.381C191.639 396.404 191.054 396.289 190.52 396.044Z" fill="#2B303F"/>
<path d="M205.448 404.652L194.897 398.541C194.036 398.042 194.145 397.179 195.133 396.598L205.212 390.778C205.721 390.492 206.289 390.331 206.872 390.305C207.454 390.28 208.035 390.392 208.566 390.633L219.125 396.743C220.032 397.243 219.878 398.105 218.881 398.686L208.811 404.507C208.301 404.794 207.731 404.957 207.147 404.983C206.562 405.008 205.98 404.895 205.448 404.652V404.652Z" fill="#2B303F"/>
<path d="M220.376 413.305L209.817 407.204C208.91 406.704 209.064 405.832 210.061 405.26L220.132 399.431C220.643 399.147 221.213 398.987 221.797 398.963C222.381 398.939 222.962 399.053 223.494 399.295L234.045 405.397C234.951 405.896 234.806 406.768 233.809 407.34L223.739 413.169C223.228 413.453 222.658 413.613 222.074 413.637C221.49 413.661 220.908 413.547 220.376 413.305Z" fill="#2B303F"/>
<path d="M235.305 421.904L224.745 415.802C223.839 415.303 223.993 414.431 224.99 413.859L235.033 408.066C235.544 407.782 236.114 407.622 236.698 407.598C237.282 407.574 237.863 407.688 238.395 407.93L248.946 414.032C249.852 414.531 249.698 415.403 248.71 415.975L238.658 421.804C238.146 422.082 237.576 422.236 236.993 422.254C236.411 422.271 235.832 422.151 235.305 421.904V421.904Z" fill="#2B303F"/>
<path d="M250.224 430.575L239.673 424.474C238.767 423.974 238.921 423.103 239.909 422.531L249.988 416.701C250.498 416.417 251.066 416.257 251.649 416.233C252.231 416.21 252.811 416.323 253.342 416.565L263.901 422.667C264.808 423.166 264.654 424.038 263.657 424.61L253.587 430.439C253.076 430.723 252.505 430.884 251.921 430.907C251.337 430.931 250.756 430.817 250.224 430.575V430.575Z" fill="#2B303F"/>
<path d="M265.152 439.21L254.602 433.1C253.695 432.6 253.84 431.738 254.837 431.157L264.944 425.336C265.453 425.049 266.023 424.886 266.608 424.86C267.192 424.835 267.774 424.948 268.306 425.191L278.866 431.302C279.727 431.801 279.618 432.664 278.621 433.245L268.551 439.065C268.037 439.359 267.461 439.525 266.869 439.55C266.278 439.576 265.689 439.459 265.152 439.21V439.21Z" fill="#2B303F"/>
<path d="M280.081 447.837L269.521 441.735C268.66 441.235 268.769 440.364 269.766 439.792L279.836 433.962C280.347 433.678 280.917 433.518 281.501 433.494C282.085 433.471 282.666 433.584 283.199 433.826L293.749 439.928C294.655 440.427 294.501 441.299 293.513 441.871L283.434 447.7C282.925 447.984 282.356 448.145 281.774 448.168C281.191 448.192 280.611 448.078 280.081 447.837Z" fill="#2B303F"/>
<path d="M295.009 456.472L284.449 450.37C283.588 449.87 283.697 448.999 284.694 448.427L294.764 442.597C295.275 442.313 295.845 442.153 296.429 442.129C297.013 442.106 297.595 442.219 298.127 442.461L308.677 448.563C309.538 449.062 309.43 449.934 308.433 450.506L298.363 456.335C297.853 456.619 297.284 456.78 296.702 456.803C296.119 456.827 295.54 456.713 295.009 456.472V456.472Z" fill="#2B303F"/>
<path d="M309.928 465.107L299.387 459.005C298.526 458.505 298.634 457.634 299.622 457.062L309.702 451.232C310.211 450.948 310.78 450.788 311.362 450.765C311.945 450.741 312.525 450.854 313.055 451.096L323.615 457.198C324.476 457.697 324.367 458.569 323.37 459.141L313.3 464.97C312.788 465.256 312.216 465.417 311.63 465.441C311.045 465.464 310.462 465.35 309.928 465.107V465.107Z" fill="#2B303F"/>
<path d="M324.857 473.742L314.297 467.631C313.436 467.131 313.545 466.269 314.542 465.688L324.612 459.867C325.121 459.58 325.691 459.417 326.276 459.392C326.86 459.366 327.442 459.48 327.975 459.722L338.534 465.833C339.395 466.323 339.286 467.195 338.289 467.776L328.219 473.596C327.709 473.882 327.139 474.044 326.555 474.069C325.971 474.094 325.389 473.982 324.857 473.742Z" fill="#2B303F"/>
<path d="M339.785 482.368L329.225 476.266C328.364 475.767 328.473 474.895 329.47 474.323L339.54 468.493C340.051 468.209 340.621 468.049 341.205 468.025C341.789 468.002 342.371 468.115 342.903 468.357L353.453 474.459C354.36 474.958 354.206 475.83 353.218 476.402L343.139 482.232C342.629 482.516 342.06 482.676 341.478 482.699C340.895 482.723 340.316 482.609 339.785 482.368V482.368Z" fill="#2B303F"/>
<path d="M354.677 491.003L344.126 484.901C343.265 484.402 343.374 483.53 344.371 482.958L354.441 477.129C354.951 476.845 355.519 476.684 356.102 476.661C356.684 476.637 357.264 476.751 357.795 476.992L368.354 483.094C369.216 483.594 369.107 484.465 368.11 485.037L358.067 490.912C357.549 491.193 356.972 491.348 356.383 491.364C355.794 491.38 355.209 491.256 354.677 491.003V491.003Z" fill="#2B303F"/>
<path d="M175.6 387.4L153.765 374.779C152.859 374.279 153.013 373.408 154.01 372.836L164.08 367.006C164.591 366.722 165.161 366.562 165.745 366.538C166.329 366.515 166.911 366.628 167.443 366.87L189.269 379.491C190.175 379.991 190.021 380.862 189.033 381.434L178.954 387.264C178.445 387.548 177.876 387.708 177.293 387.732C176.711 387.755 176.131 387.642 175.6 387.4V387.4Z" fill="#2B303F"/>
<path d="M168.63 400.112L158.08 394.028C157.219 393.529 157.318 392.666 158.315 392.085L168.385 386.265C168.895 385.977 169.465 385.814 170.049 385.789C170.634 385.764 171.216 385.877 171.748 386.12L182.308 392.231C183.169 392.721 183.06 393.593 182.063 394.174L171.993 399.994C171.48 400.275 170.909 400.432 170.325 400.453C169.742 400.473 169.161 400.357 168.63 400.112V400.112Z" fill="#2B303F"/>
<path d="M183.558 408.765L172.999 402.663C172.138 402.164 172.247 401.292 173.244 400.72L183.314 394.891C183.825 394.607 184.395 394.447 184.979 394.423C185.563 394.399 186.144 394.513 186.676 394.755L197.227 400.857C198.133 401.356 197.979 402.228 196.991 402.8L186.912 408.629C186.403 408.913 185.834 409.073 185.251 409.097C184.669 409.121 184.089 409.007 183.558 408.765V408.765Z" fill="#2B303F"/>
<path d="M198.478 417.364L187.9 411.289C186.994 410.79 187.148 409.927 188.145 409.346L198.215 403.526C198.725 403.241 199.295 403.079 199.879 403.053C200.463 403.028 201.045 403.14 201.578 403.381L212.137 409.492C213.044 409.991 212.889 410.854 211.892 411.435L201.822 417.255C201.312 417.534 200.744 417.689 200.163 417.708C199.582 417.727 199.005 417.609 198.478 417.364Z" fill="#2B303F"/>
<path d="M213.397 426.026L202.847 419.925C201.94 419.425 202.094 418.553 203.091 417.981L213.161 412.152C213.671 411.868 214.24 411.708 214.822 411.684C215.404 411.661 215.984 411.774 216.515 412.016L227.075 418.118C227.936 418.617 227.827 419.489 226.83 420.061L216.76 425.89C216.249 426.174 215.678 426.334 215.094 426.358C214.511 426.382 213.929 426.268 213.397 426.026V426.026Z" fill="#2B303F"/>
<path d="M228.325 434.661L217.811 428.56C216.95 428.06 217.059 427.189 218.056 426.617L228.126 420.787C228.637 420.503 229.207 420.343 229.791 420.319C230.375 420.296 230.956 420.409 231.489 420.651L242.039 426.753C242.9 427.252 242.801 428.124 241.803 428.696L231.733 434.516C231.218 434.811 230.64 434.978 230.047 435.004C229.454 435.029 228.864 434.912 228.325 434.661Z" fill="#2B303F"/>
<path d="M243.245 443.287L232.694 437.186C231.833 436.686 231.942 435.815 232.93 435.243L243.009 429.413C243.518 429.129 244.087 428.969 244.67 428.945C245.252 428.922 245.832 429.035 246.363 429.277L256.922 435.379C257.783 435.878 257.674 436.75 256.677 437.322L246.607 443.151C246.096 443.435 245.526 443.596 244.942 443.619C244.358 443.643 243.777 443.529 243.245 443.287V443.287Z" fill="#2B303F"/>
<path d="M258.173 451.923L247.613 445.821C246.752 445.321 246.861 444.45 247.858 443.878L257.928 438.048C258.439 437.764 259.01 437.604 259.593 437.58C260.177 437.557 260.759 437.67 261.291 437.912L271.841 444.014C272.702 444.513 272.594 445.385 271.606 445.957L261.536 451.786C261.025 452.07 260.454 452.231 259.87 452.254C259.287 452.278 258.705 452.164 258.173 451.923V451.923Z" fill="#2B303F"/>
<path d="M273.101 460.558L262.551 454.447C261.69 453.947 261.799 453.085 262.787 452.504L272.866 446.683C273.374 446.396 273.942 446.233 274.525 446.208C275.108 446.182 275.689 446.296 276.219 446.538L286.779 452.649C287.64 453.139 287.531 454.011 286.534 454.592L276.464 460.412C275.954 460.698 275.384 460.86 274.8 460.885C274.216 460.91 273.634 460.798 273.101 460.558Z" fill="#2B303F"/>
<path d="M288.021 469.184L277.461 463.082C276.6 462.582 276.709 461.711 277.706 461.139L287.776 455.309C288.287 455.025 288.857 454.865 289.441 454.841C290.025 454.818 290.606 454.931 291.139 455.173L301.689 461.275C302.55 461.774 302.441 462.646 301.453 463.218L291.374 469.047C290.865 469.331 290.296 469.492 289.714 469.515C289.131 469.539 288.551 469.425 288.021 469.184V469.184Z" fill="#2B303F"/>
<path d="M302.94 477.819L292.389 471.708C291.528 471.217 291.637 470.346 292.625 469.765L302.704 463.944C303.213 463.659 303.781 463.497 304.364 463.472C304.946 463.447 305.526 463.559 306.058 463.799L316.608 469.91C317.469 470.409 317.361 471.272 316.364 471.853L306.293 477.673C305.785 477.959 305.217 478.122 304.634 478.147C304.051 478.172 303.471 478.06 302.94 477.819Z" fill="#2B303F"/>
<path d="M317.868 486.445L307.309 480.343C306.448 479.843 306.556 478.972 307.553 478.4L317.623 472.57C318.134 472.286 318.705 472.126 319.289 472.102C319.873 472.079 320.454 472.192 320.986 472.434L331.537 478.536C332.398 479.035 332.289 479.907 331.301 480.479L321.222 486.308C320.712 486.592 320.144 486.753 319.561 486.776C318.979 486.8 318.399 486.686 317.868 486.445V486.445Z" fill="#2B303F"/>
<path d="M351.26 505.767L322.255 488.978C321.394 488.479 321.494 487.607 322.491 487.035L332.561 481.205C333.072 480.921 333.642 480.761 334.226 480.737C334.81 480.714 335.391 480.827 335.924 481.069L364.928 497.858C365.789 498.349 365.681 499.22 364.684 499.801L354.613 505.622C354.104 505.906 353.536 506.067 352.954 506.092C352.372 506.117 351.792 506.006 351.26 505.767V505.767Z" fill="#2B303F"/>
<path d="M153.711 391.504L139.317 383.178C138.411 382.678 138.565 381.807 139.553 381.235L149.632 375.414C150.14 375.127 150.709 374.964 151.291 374.939C151.874 374.913 152.455 375.027 152.986 375.269L167.379 383.595C168.24 384.095 168.132 384.967 167.144 385.539L157.083 391.368C156.571 391.655 155.999 391.817 155.413 391.84C154.827 391.864 154.244 391.749 153.711 391.504Z" fill="#2B303F"/>
<path d="M409.704 471.962L197.753 349.382C196.846 348.892 197 348.02 197.997 347.439L203.037 344.533C203.546 344.248 204.114 344.086 204.696 344.061C205.279 344.036 205.859 344.148 206.391 344.388L418.342 466.968C419.203 467.467 419.094 468.33 418.097 468.911L413.067 471.844C412.555 472.125 411.984 472.282 411.4 472.303C410.816 472.323 410.235 472.207 409.704 471.962V471.962Z" fill="#2B303F"/>
<path d="M278.404 485.9C278.101 486.56 277.583 487.098 276.935 487.425L218.618 521.157C217.636 521.704 216.54 522.013 215.418 522.058C214.295 522.104 213.178 521.886 212.155 521.421L112.452 463.772C112.026 463.55 111.682 463.197 111.473 462.764C111.11 461.856 111.618 460.848 112.941 460.085L171.268 426.344C172.249 425.797 173.346 425.489 174.468 425.443C175.59 425.397 176.708 425.616 177.73 426.081L277.434 483.73C277.837 483.905 278.16 484.225 278.339 484.626C278.519 485.028 278.542 485.482 278.404 485.9V485.9Z" fill="#B1B4C4"/>
<path d="M278.404 485.9C278.101 486.56 277.583 487.098 276.935 487.425L218.618 521.157C217.636 521.704 216.54 522.013 215.418 522.059C214.295 522.104 213.178 521.886 212.155 521.421L112.452 463.772C112.026 463.55 111.682 463.197 111.473 462.764C111.782 462.11 112.298 461.577 112.941 461.248L171.268 427.515C172.249 426.968 173.345 426.658 174.467 426.611C175.589 426.564 176.707 426.78 177.73 427.243L277.434 484.901C277.857 485.119 278.198 485.47 278.404 485.9V485.9Z" fill="#C3C6D1"/>
<path d="M425.838 462.664L213.886 340.084C213.42 339.738 213.04 339.288 212.777 338.77C212.514 338.251 212.376 337.678 212.373 337.097V334.6C212.373 333.447 213.071 332.92 213.932 333.419L425.883 455.999C426.358 456.338 426.747 456.785 427.018 457.302C427.289 457.82 427.434 458.393 427.442 458.978V461.475C427.397 462.637 426.699 463.164 425.838 462.664Z" fill="#2B303F"/>
<path d="M245.909 327.981L224.972 315.895C222.352 314.379 220.222 310.302 220.222 306.815V284.324C220.222 280.819 222.352 279.212 224.972 280.692L245.909 292.814C248.538 294.33 250.659 298.407 250.659 301.894V324.385C250.623 327.89 248.502 329.497 245.909 327.981Z" fill="#E9EAF2"/>
<path d="M245.828 276.47L224.926 264.384C222.307 262.868 220.177 256.666 220.177 253.633V227.374C220.177 223.869 222.307 222.262 224.926 223.742L245.828 235.828C248.456 237.344 250.577 241.421 250.577 244.908V271.167C250.577 274.254 248.456 277.986 245.828 276.47Z" fill="#E9EAF2"/>
<path d="M235.495 258.927C231.244 256.466 227.781 250.455 227.781 245.534C227.781 240.613 231.244 238.606 235.495 241.067C239.746 243.527 243.217 249.538 243.217 254.46C243.217 259.381 239.755 261.388 235.495 258.927ZM235.495 243.355C232.332 241.539 229.757 243.019 229.757 246.678C229.861 248.678 230.434 250.625 231.432 252.361C232.429 254.097 233.821 255.572 235.495 256.666C238.667 258.482 241.241 257.011 241.241 253.352C241.138 251.35 240.564 249.4 239.565 247.663C238.567 245.925 237.172 244.449 235.495 243.355V243.355Z" fill="#8C50FF"/>
<path d="M237.616 255.286L234.117 249.711V245.071L236.093 246.215V249.82L238.921 254.314L237.616 255.286Z" fill="#8C50FF"/>
<path d="M245.801 220.927L224.899 208.842C222.28 207.316 220.15 200.488 220.15 197.446V173.275C220.15 170.243 222.28 169.008 224.899 170.551L245.801 182.646C247.184 183.547 248.335 184.763 249.16 186.194C249.985 187.625 250.462 189.231 250.55 190.882V215.062C250.55 218.067 248.429 222.444 245.801 220.927Z" fill="#E9EAF2"/>
<path d="M235.35 191.953C234.09 191.227 233.075 191.817 233.075 193.279C233.117 194.07 233.345 194.84 233.74 195.527C234.135 196.213 234.687 196.796 235.35 197.228C236.61 197.955 237.634 197.365 237.634 195.912C237.589 195.119 237.359 194.348 236.962 193.66C236.565 192.973 236.013 192.388 235.35 191.953V191.953ZM241.432 192.861L239.619 191.808C239.325 191.607 239.113 191.307 239.021 190.963L238.549 189.047C238.451 188.704 238.236 188.406 237.942 188.203L232.776 185.216C232.522 185.07 232.259 185.134 232.178 185.37L231.706 186.732C231.683 186.787 231.647 186.836 231.602 186.875C231.556 186.914 231.503 186.942 231.445 186.957C231.387 186.972 231.327 186.973 231.268 186.961C231.21 186.949 231.155 186.923 231.108 186.886L229.295 185.833C228.461 185.343 227.781 185.742 227.781 186.741V194.659C227.81 195.186 227.962 195.699 228.225 196.156C228.488 196.614 228.855 197.003 229.295 197.292L241.459 204.329C242.293 204.81 242.982 204.42 242.982 203.421V195.476C242.949 194.945 242.791 194.428 242.522 193.969C242.253 193.51 241.879 193.121 241.432 192.834V192.861ZM235.35 199.017C234.245 198.293 233.326 197.32 232.667 196.175C232.007 195.03 231.625 193.745 231.552 192.425C231.552 189.992 233.256 189.011 235.35 190.228C236.457 190.949 237.378 191.922 238.038 193.068C238.698 194.213 239.078 195.499 239.148 196.82C239.148 199.217 237.453 200.207 235.35 198.99V199.017ZM240.897 195.54C240.744 195.44 240.617 195.306 240.526 195.148C240.435 194.991 240.382 194.814 240.371 194.632C240.371 194.287 240.607 194.15 240.897 194.323C241.051 194.421 241.18 194.555 241.273 194.713C241.366 194.87 241.42 195.048 241.432 195.231C241.432 195.549 241.196 195.685 240.897 195.512V195.54Z" fill="#8C50FF"/>
<path d="M241.948 305.998C241.948 310.093 235.54 315.414 235.54 315.414C235.54 315.414 229.123 302.702 229.123 298.579C229.123 294.457 231.996 292.823 235.54 294.866C237.406 296.086 238.959 297.731 240.072 299.665C241.186 301.599 241.828 303.768 241.948 305.998Z" fill="#8C50FF"/>
<path d="M238.504 307.153C240.143 306.205 240.144 303.134 238.507 300.294C236.87 297.453 234.215 295.919 232.576 296.867C230.937 297.815 230.936 300.886 232.573 303.726C234.21 306.566 236.865 308.1 238.504 307.153Z" fill="#E9EAF2"/>
<path d="M393.77 361.068L267.228 287.874C265.089 286.648 263.367 283.334 263.367 280.492V195.294C263.367 192.452 265.089 191.145 267.228 192.38L393.77 265.565C395.9 266.799 397.622 270.105 397.622 272.956V358.144C397.622 360.995 395.9 362.303 393.77 361.068Z" fill="#E9EAF2"/>
<path d="M379.15 299.133L281.069 242.411C278.694 241.03 276.763 237.344 276.763 234.175V227.755C276.763 224.577 278.694 223.125 281.069 224.496L379.15 281.218C381.524 282.59 383.446 286.276 383.446 289.454V295.874C383.446 299.052 381.524 300.504 379.15 299.133Z" fill="white"/>
<path d="M325.808 297.145L281.069 271.267C278.694 269.896 276.763 266.209 276.763 263.031V256.648C276.763 253.47 278.694 252.017 281.069 253.388L325.808 279.266C328.183 280.637 330.105 284.324 330.105 287.502V293.876C330.105 297.054 328.183 298.516 325.808 297.145Z" fill="#8C50FF"/>
<path d="M419.811 379.809C419.811 379.809 372.107 390.342 333.54 347.43C294.973 304.518 263.512 310.02 263.512 310.02V336.806L419.811 427.198V379.809Z" fill="url(#paint2_linear_0_3)"/>
<path d="M419.811 379.809C419.811 379.809 372.107 390.342 333.54 347.43C294.973 304.518 263.512 310.02 263.512 310.02" stroke="#CCCEDD" stroke-width="1.06" stroke-miterlimit="10"/>
<path d="M263.303 155.315C261.908 157.814 260.213 160.131 258.255 162.216C257.711 162.852 253.514 161.244 254.393 160.79C255.273 160.336 258.019 156.505 259.397 153.944C260.549 150.887 261.53 147.768 262.333 144.601C263.194 141.468 263.938 136.874 264.572 134.713C264.734 133.915 265.124 133.18 265.693 132.599C266.262 132.017 266.987 131.613 267.781 131.435C269.294 131.081 270.273 131.498 269.992 133.333C269.476 136.529 267.001 149.005 263.303 155.315Z" fill="#FFCEA9"/>
<path d="M265.705 204.211C264.409 205.273 262.487 204.302 262.388 204.402C260.86 205.819 259.26 207.156 257.593 208.406C256.777 209.042 255.517 209.895 255.78 211.13C256.188 213.318 259.696 212.646 261.019 211.974C262.342 211.303 263.43 210.158 264.645 209.414C265.551 208.851 266.457 208.569 266.557 207.434C266.639 206.753 265.941 204.184 265.705 204.211Z" fill="#38226D"/>
<path d="M266.539 206.98C266.367 208.061 265.497 208.361 264.608 208.914C263.339 209.704 262.216 210.848 260.892 211.52C259.569 212.192 256.623 212.755 255.762 211.184C256.224 213.3 259.678 212.637 260.983 211.974C262.288 211.312 263.394 210.158 264.608 209.414C265.515 208.851 266.421 208.569 266.521 207.434C266.539 207.284 266.545 207.132 266.539 206.98V206.98Z" fill="#9C73FF"/>
<path d="M252.508 196.593C251.212 197.655 248.937 196.502 248.837 196.593C247.487 197.97 246.055 199.265 244.55 200.47C243.734 201.115 242.474 201.968 242.737 203.194C243.145 205.391 246.653 204.72 247.985 204.048C249.318 203.376 250.387 202.232 251.611 201.478C252.517 200.924 253.423 200.634 253.523 199.508C253.596 198.827 252.744 196.566 252.508 196.593Z" fill="#38226D"/>
<path d="M253.478 199.208C253.306 200.288 252.435 200.588 251.547 201.142C250.278 201.932 249.154 203.076 247.831 203.748C246.508 204.42 243.553 204.983 242.701 203.412C243.163 205.528 246.607 204.865 247.922 204.202C249.236 203.539 250.324 202.386 251.547 201.632C252.454 201.078 253.36 200.797 253.46 199.662C253.478 199.511 253.484 199.36 253.478 199.208V199.208Z" fill="#9C73FF"/>
<path d="M283.072 162.434C284.513 171.459 280.516 174.828 275.313 176.744C271.579 178.124 266.249 180.249 266.249 180.249C266.249 180.249 266.321 182.228 266.358 186.668C266.358 190.582 265.886 204.828 265.886 204.828C265.27 205.146 264.586 205.312 263.892 205.312C263.199 205.312 262.515 205.146 261.898 204.828C261.898 204.828 259.805 193.887 259.36 188.948C258.753 182.256 257.729 177.87 258.073 176.426C258.372 175.155 265.678 171.559 267.998 169.634L252.689 174.774C252.994 176.436 253.143 178.123 253.133 179.813C252.997 185.125 252.698 196.629 252.698 196.629C252.698 196.629 250.605 198.146 248.81 196.629C248.81 196.629 244.958 173.866 245.429 170.851C245.873 167.991 259.36 162.143 261.744 160.128C262.158 159.79 262.639 159.544 263.154 159.405C263.669 159.266 264.208 159.237 264.735 159.32L283.072 162.434Z" fill="#8C50FF"/>
<path d="M246.399 166.193L256.687 160.246C256.775 160.192 256.877 160.164 256.981 160.164C257.085 160.164 257.187 160.192 257.276 160.246L275.313 170.679L264.735 176.799L246.399 166.193Z" fill="#F4F4F4"/>
<path d="M265.216 174.61L266.004 175.064C266.068 175.064 266.059 175.164 266.004 175.21L265.252 175.645C265.214 175.663 265.172 175.672 265.13 175.672C265.087 175.672 265.046 175.663 265.007 175.645L264.219 175.191C264.155 175.191 264.164 175.091 264.219 175.046L264.971 174.61C265.009 174.592 265.051 174.583 265.093 174.583C265.136 174.583 265.177 174.592 265.216 174.61V174.61Z" fill="#3A2C6D"/>
<path d="M264.11 174.02L264.889 174.465C264.953 174.465 264.944 174.574 264.889 174.61L264.146 175.046C264.107 175.066 264.063 175.076 264.019 175.076C263.975 175.076 263.932 175.066 263.892 175.046L263.113 174.592C263.049 174.592 263.058 174.492 263.113 174.447L263.856 174.02C263.895 173.998 263.938 173.986 263.983 173.986C264.028 173.986 264.071 173.998 264.11 174.02V174.02Z" fill="#3A2C6D"/>
<path d="M262.986 173.321L263.765 173.775C263.829 173.775 263.829 173.875 263.765 173.92L263.022 174.347C262.983 174.367 262.939 174.377 262.895 174.377C262.851 174.377 262.808 174.367 262.768 174.347L261.989 173.893C261.925 173.893 261.935 173.793 261.989 173.748L262.732 173.312C262.772 173.293 262.816 173.284 262.86 173.286C262.904 173.288 262.947 173.299 262.986 173.321V173.321Z" fill="#3A2C6D"/>
<path d="M261.889 172.685L262.669 173.139C262.732 173.139 262.732 173.239 262.669 173.285L261.925 173.72C261.886 173.738 261.842 173.748 261.799 173.748C261.755 173.748 261.712 173.738 261.672 173.72L260.892 173.266C260.829 173.266 260.838 173.167 260.892 173.121L261.635 172.685C261.675 172.667 261.719 172.658 261.762 172.658C261.806 172.658 261.849 172.667 261.889 172.685V172.685Z" fill="#3A2C6D"/>
<path d="M260.774 172.041L261.563 172.495C261.626 172.495 261.617 172.604 261.563 172.64L260.811 173.076C260.773 173.096 260.731 173.106 260.688 173.106C260.646 173.106 260.604 173.096 260.566 173.076L259.777 172.622C259.714 172.622 259.723 172.522 259.777 172.476L260.53 172.05C260.567 172.028 260.608 172.016 260.651 172.015C260.693 172.013 260.736 172.022 260.774 172.041Z" fill="#3A2C6D"/>
<path d="M259.669 171.405L260.457 171.859C260.521 171.859 260.511 171.959 260.457 172.004L259.705 172.431C259.667 172.451 259.625 172.461 259.582 172.461C259.54 172.461 259.498 172.451 259.46 172.431L258.672 171.977C258.608 171.977 258.617 171.877 258.672 171.841L259.424 171.405C259.462 171.385 259.504 171.375 259.546 171.375C259.589 171.375 259.631 171.385 259.669 171.405V171.405Z" fill="#3A2C6D"/>
<path d="M258.599 170.76L259.379 171.214C259.442 171.214 259.433 171.314 259.379 171.36L258.635 171.795C258.595 171.813 258.552 171.823 258.508 171.823C258.465 171.823 258.421 171.813 258.381 171.795L257.602 171.341C257.539 171.341 257.539 171.242 257.602 171.196L258.345 170.76C258.385 170.742 258.428 170.733 258.472 170.733C258.516 170.733 258.559 170.742 258.599 170.76V170.76Z" fill="#3A2C6D"/>
<path d="M257.448 170.116L258.236 170.57C258.3 170.57 258.291 170.679 258.236 170.715L257.484 171.151C257.446 171.171 257.404 171.181 257.362 171.181C257.319 171.181 257.277 171.171 257.239 171.151L256.451 170.697C256.387 170.697 256.396 170.597 256.451 170.551L257.203 170.125C257.24 170.103 257.282 170.091 257.324 170.09C257.367 170.088 257.409 170.097 257.448 170.116V170.116Z" fill="#3A2C6D"/>
<path d="M256.342 169.48L257.122 169.934C257.185 169.934 257.176 170.034 257.122 170.079L256.378 170.506C256.339 170.526 256.296 170.536 256.251 170.536C256.207 170.536 256.164 170.526 256.125 170.506L255.345 170.052C255.282 170.052 255.291 169.952 255.345 169.916L256.088 169.48C256.128 169.46 256.171 169.45 256.215 169.45C256.259 169.45 256.303 169.46 256.342 169.48V169.48Z" fill="#3A2C6D"/>
<path d="M255.227 168.835L256.016 169.289C256.079 169.289 256.07 169.389 256.016 169.435L255.263 169.87C255.225 169.888 255.183 169.898 255.141 169.898C255.099 169.898 255.057 169.888 255.019 169.87L254.23 169.416C254.167 169.416 254.176 169.317 254.23 169.271L254.982 168.835C255.02 168.815 255.062 168.805 255.105 168.805C255.147 168.805 255.189 168.815 255.227 168.835V168.835Z" fill="#3A2C6D"/>
<path d="M254.121 168.191L254.901 168.645C254.964 168.645 254.964 168.745 254.901 168.79L254.158 169.226C254.118 169.246 254.075 169.256 254.031 169.256C253.987 169.256 253.943 169.246 253.904 169.226L253.124 168.772C253.061 168.772 253.07 168.672 253.124 168.627L253.868 168.2C253.906 168.178 253.949 168.166 253.993 168.165C254.038 168.163 254.081 168.172 254.121 168.191V168.191Z" fill="#3A2C6D"/>
<path d="M253.016 167.555L253.795 168.009C253.859 168.009 253.849 168.109 253.795 168.154L253.043 168.581C253.005 168.601 252.963 168.611 252.92 168.611C252.878 168.611 252.836 168.601 252.798 168.581L252.009 168.127C251.946 168.127 251.955 168.027 252.009 167.982L252.762 167.555C252.801 167.535 252.845 167.525 252.889 167.525C252.933 167.525 252.976 167.535 253.016 167.555V167.555Z" fill="#3A2C6D"/>
<path d="M251.901 166.91L252.689 167.364C252.753 167.364 252.744 167.464 252.689 167.51L251.937 167.936C251.899 167.956 251.857 167.967 251.815 167.967C251.772 167.967 251.73 167.956 251.692 167.936L250.904 167.482C250.84 167.482 250.849 167.373 250.904 167.337L251.656 166.901C251.694 166.883 251.737 166.874 251.779 166.876C251.822 166.877 251.864 166.889 251.901 166.91V166.91Z" fill="#3A2C6D"/>
<path d="M250.26 165.957L251.574 166.72C251.638 166.72 251.629 166.82 251.574 166.865L250.831 167.301C250.791 167.319 250.748 167.328 250.704 167.328C250.661 167.328 250.617 167.319 250.577 167.301L249.263 166.538C249.2 166.538 249.2 166.438 249.263 166.393L250.006 165.957C250.046 165.939 250.089 165.93 250.133 165.93C250.177 165.93 250.22 165.939 250.26 165.957V165.957Z" fill="#3A2C6D"/>
<path d="M264.645 173.039L265.433 173.493C265.497 173.493 265.488 173.593 265.433 173.639L264.681 174.065C264.644 174.088 264.602 174.1 264.559 174.1C264.515 174.1 264.473 174.088 264.436 174.065L263.648 173.62C263.584 173.62 263.593 173.512 263.648 173.475L264.4 173.039C264.438 173.019 264.48 173.009 264.522 173.009C264.565 173.009 264.607 173.019 264.645 173.039V173.039Z" fill="#3A2C6D"/>
<path d="M263.539 172.395L264.318 172.849C264.382 172.849 264.373 172.949 264.318 172.994L263.575 173.43C263.535 173.448 263.492 173.457 263.448 173.457C263.404 173.457 263.361 173.448 263.321 173.43L262.542 172.976C262.478 172.976 262.478 172.876 262.542 172.831L263.285 172.395C263.324 172.375 263.368 172.364 263.412 172.364C263.456 172.364 263.499 172.375 263.539 172.395V172.395Z" fill="#3A2C6D"/>
<path d="M262.424 171.75L263.203 172.204C263.276 172.204 263.267 172.304 263.203 172.349L262.46 172.785C262.42 172.803 262.377 172.813 262.333 172.813C262.29 172.813 262.246 172.803 262.206 172.785L261.427 172.331C261.363 172.331 261.373 172.231 261.427 172.186L262.17 171.75C262.21 171.732 262.253 171.723 262.297 171.723C262.341 171.723 262.384 171.732 262.424 171.75V171.75Z" fill="#3A2C6D"/>
<path d="M261.318 171.105L262.107 171.559C262.17 171.559 262.161 171.668 262.107 171.705L261.354 172.14C261.317 172.16 261.275 172.171 261.232 172.171C261.189 172.171 261.147 172.16 261.11 172.14L260.321 171.686C260.258 171.686 260.267 171.587 260.321 171.541L261.073 171.114C261.11 171.093 261.152 171.081 261.195 171.08C261.237 171.078 261.28 171.087 261.318 171.105Z" fill="#3A2C6D"/>
<path d="M260.212 170.47L260.992 170.924C261.055 170.924 261.046 171.024 260.992 171.069L260.249 171.505C260.209 171.523 260.165 171.532 260.122 171.532C260.078 171.532 260.035 171.523 259.995 171.505L259.215 171.051C259.152 171.051 259.152 170.951 259.215 170.906L259.959 170.47C259.998 170.452 260.042 170.442 260.085 170.442C260.129 170.442 260.172 170.452 260.212 170.47Z" fill="#3A2C6D"/>
<path d="M259.098 169.825L259.886 170.279C259.95 170.279 259.94 170.388 259.886 170.424L259.134 170.86C259.096 170.88 259.054 170.89 259.011 170.89C258.969 170.89 258.927 170.88 258.889 170.86L258.1 170.406C258.037 170.406 258.046 170.306 258.1 170.261L258.853 169.834C258.89 169.813 258.931 169.801 258.974 169.799C259.017 169.798 259.059 169.807 259.098 169.825V169.825Z" fill="#3A2C6D"/>
<path d="M257.983 169.189L258.771 169.643C258.835 169.643 258.826 169.743 258.771 169.78L258.019 170.215C257.981 170.235 257.939 170.246 257.897 170.246C257.854 170.246 257.812 170.235 257.774 170.215L256.986 169.761C256.922 169.761 256.931 169.662 256.986 169.616L257.738 169.189C257.776 169.17 257.818 169.159 257.86 169.159C257.903 169.159 257.945 169.17 257.983 169.189V169.189Z" fill="#3A2C6D"/>
<path d="M256.877 168.572L257.656 169.026C257.72 169.026 257.711 169.126 257.656 169.171L256.913 169.598C256.874 169.618 256.83 169.628 256.786 169.628C256.742 169.628 256.699 169.618 256.659 169.598L255.88 169.144C255.816 169.144 255.825 169.044 255.88 169.008L256.623 168.572C256.662 168.552 256.706 168.542 256.75 168.542C256.794 168.542 256.838 168.552 256.877 168.572V168.572Z" fill="#3A2C6D"/>
<path d="M255.762 167.9L256.551 168.354C256.614 168.354 256.605 168.454 256.551 168.499L255.798 168.926C255.761 168.946 255.719 168.956 255.676 168.956C255.633 168.956 255.591 168.946 255.554 168.926L254.765 168.472C254.702 168.472 254.711 168.363 254.765 168.327L255.517 167.891C255.556 167.873 255.598 167.864 255.641 167.865C255.683 167.867 255.725 167.879 255.762 167.9Z" fill="#3A2C6D"/>
<path d="M254.656 167.255L255.436 167.709C255.499 167.709 255.49 167.809 255.436 167.855L254.683 168.291C254.645 168.308 254.603 168.318 254.561 168.318C254.519 168.318 254.477 168.308 254.439 168.291L253.65 167.837C253.587 167.837 253.596 167.737 253.65 167.691L254.402 167.255C254.442 167.237 254.486 167.228 254.529 167.228C254.573 167.228 254.616 167.237 254.656 167.255V167.255Z" fill="#3A2C6D"/>
<path d="M253.541 166.611L254.321 167.065C254.384 167.065 254.384 167.165 254.321 167.21L253.578 167.646C253.538 167.666 253.495 167.676 253.451 167.676C253.407 167.676 253.363 167.666 253.324 167.646L252.544 167.192C252.481 167.192 252.49 167.092 252.544 167.047L253.287 166.611C253.327 166.593 253.371 166.583 253.414 166.583C253.458 166.583 253.501 166.593 253.541 166.611V166.611Z" fill="#3A2C6D"/>
<path d="M252.426 165.975L253.215 166.42C253.278 166.42 253.269 166.529 253.215 166.565L252.463 167.001C252.425 167.021 252.383 167.031 252.34 167.031C252.298 167.031 252.256 167.021 252.218 167.001L251.429 166.547C251.366 166.547 251.375 166.447 251.429 166.402L252.182 165.975C252.219 165.953 252.261 165.941 252.304 165.941C252.347 165.941 252.39 165.953 252.426 165.975V165.975Z" fill="#3A2C6D"/>
<path d="M265.759 173.684L267.074 174.447C267.137 174.447 267.137 174.547 267.074 174.592L266.331 175.019C266.291 175.039 266.248 175.049 266.204 175.049C266.16 175.049 266.116 175.039 266.077 175.019L264.762 174.256C264.699 174.256 264.708 174.156 264.762 174.111L265.506 173.684C265.545 173.664 265.589 173.654 265.633 173.654C265.677 173.654 265.72 173.664 265.759 173.684Z" fill="#3A2C6D"/>
<path d="M250.315 165.921L251.094 166.375C251.131 166.392 251.171 166.402 251.212 166.402C251.253 166.402 251.293 166.392 251.33 166.375L252.118 165.912C252.132 165.906 252.144 165.897 252.153 165.885C252.161 165.873 252.166 165.858 252.166 165.844C252.166 165.829 252.161 165.814 252.153 165.802C252.144 165.79 252.132 165.781 252.118 165.775H252.055C252 165.775 252 165.694 252.055 165.657L252.889 165.176C252.961 165.176 252.961 165.076 252.889 165.04L252.39 164.749C252.353 164.732 252.313 164.722 252.272 164.722C252.232 164.722 252.191 164.732 252.155 164.749L251.375 165.203L251.212 165.294L251.094 165.367L250.976 165.43L250.305 165.821C250.294 165.835 250.288 165.854 250.29 165.873C250.292 165.891 250.3 165.908 250.315 165.921Z" fill="#3A2C6D"/>
<path d="M269.476 172.122L270.264 172.576C270.328 172.576 270.319 172.676 270.264 172.722L269.512 173.148C269.475 173.171 269.433 173.183 269.39 173.183C269.346 173.183 269.304 173.171 269.267 173.148L268.479 172.703C268.415 172.658 268.424 172.594 268.479 172.558L269.231 172.122C269.269 172.102 269.311 172.092 269.353 172.092C269.396 172.092 269.438 172.102 269.476 172.122V172.122Z" fill="#3A2C6D"/>
<path d="M268.406 171.478L269.195 171.932C269.258 171.932 269.249 172.041 269.195 172.077L268.442 172.513C268.405 172.533 268.363 172.543 268.32 172.543C268.277 172.543 268.235 172.533 268.198 172.513L267.409 172.059C267.346 172.059 267.355 171.959 267.409 171.913L268.161 171.487C268.198 171.465 268.24 171.453 268.283 171.452C268.325 171.45 268.368 171.459 268.406 171.478V171.478Z" fill="#3A2C6D"/>
<path d="M267.3 170.842L268.089 171.296C268.152 171.296 268.143 171.396 268.089 171.441L267.337 171.868C267.299 171.888 267.257 171.898 267.214 171.898C267.172 171.898 267.13 171.888 267.092 171.868L266.303 171.414C266.24 171.414 266.249 171.305 266.303 171.269L267.056 170.833C267.094 170.814 267.137 170.806 267.179 170.807C267.222 170.809 267.263 170.821 267.3 170.842Z" fill="#3A2C6D"/>
<path d="M257.883 165.394L258.662 165.848C258.726 165.848 258.717 165.948 258.662 165.993L257.919 166.42C257.88 166.44 257.836 166.45 257.792 166.45C257.748 166.45 257.705 166.44 257.665 166.42L256.886 165.966C256.813 165.966 256.822 165.866 256.886 165.821L257.629 165.394C257.669 165.374 257.712 165.364 257.756 165.364C257.8 165.364 257.844 165.374 257.883 165.394V165.394Z" fill="#3A2C6D"/>
<path d="M256.786 164.749L257.575 165.203C257.638 165.203 257.629 165.303 257.575 165.349L256.822 165.784C256.784 165.802 256.742 165.812 256.7 165.812C256.658 165.812 256.616 165.802 256.578 165.784L255.789 165.33C255.726 165.33 255.735 165.231 255.789 165.185L256.541 164.749C256.58 164.731 256.622 164.722 256.664 164.722C256.706 164.722 256.748 164.731 256.786 164.749V164.749Z" fill="#3A2C6D"/>
<path d="M255.662 164.114L256.451 164.568C256.514 164.568 256.505 164.668 256.451 164.713L255.699 165.14C255.661 165.16 255.619 165.17 255.576 165.17C255.534 165.17 255.492 165.16 255.454 165.14L254.665 164.686C254.602 164.686 254.611 164.586 254.665 164.55L255.418 164.114C255.455 164.094 255.497 164.083 255.54 164.083C255.583 164.083 255.625 164.094 255.662 164.114V164.114Z" fill="#3A2C6D"/>
<path d="M254.556 163.469L255.345 163.923C255.408 163.923 255.399 164.023 255.345 164.068L254.593 164.504C254.554 164.522 254.513 164.531 254.47 164.531C254.428 164.531 254.386 164.522 254.348 164.504L253.559 164.05C253.496 164.05 253.505 163.95 253.559 163.905L254.312 163.469C254.35 163.451 254.392 163.442 254.434 163.442C254.476 163.442 254.518 163.451 254.556 163.469V163.469Z" fill="#3A2C6D"/>
<path d="M265.914 170.034L266.983 170.651C267.047 170.651 267.038 170.76 266.983 170.797L266.231 171.232C266.193 171.252 266.151 171.263 266.108 171.263C266.066 171.263 266.024 171.252 265.986 171.232L264.944 170.624C264.88 170.624 264.88 170.524 264.944 170.479L265.687 170.043C265.759 170.011 265.84 170.008 265.914 170.034V170.034Z" fill="#3A2C6D"/>
<path d="M258.989 166.03L260.058 166.647C260.122 166.647 260.113 166.747 260.058 166.792L259.306 167.228C259.268 167.246 259.226 167.255 259.184 167.255C259.141 167.255 259.1 167.246 259.061 167.228L257.992 166.611C257.928 166.611 257.928 166.511 257.992 166.465L258.735 166.03C258.775 166.012 258.818 166.002 258.862 166.002C258.906 166.002 258.949 166.012 258.989 166.03V166.03Z" fill="#3A2C6D"/>
<path d="M260.412 166.838L265.624 169.852C265.687 169.852 265.678 169.952 265.624 169.998L264.88 170.424C264.841 170.444 264.798 170.455 264.753 170.455C264.709 170.455 264.666 170.444 264.627 170.424L259.415 167.41C259.351 167.41 259.36 167.31 259.415 167.274L260.167 166.838C260.205 166.818 260.247 166.807 260.289 166.807C260.332 166.807 260.374 166.818 260.412 166.838Z" fill="#3A2C6D"/>
<path d="M265.424 172.204L266.204 172.658C266.267 172.658 266.258 172.758 266.204 172.803L265.46 173.239C265.421 173.257 265.377 173.267 265.333 173.267C265.29 173.267 265.246 173.257 265.207 173.239L264.427 172.785C264.364 172.785 264.364 172.685 264.427 172.64L265.17 172.204C265.21 172.186 265.254 172.177 265.297 172.177C265.341 172.177 265.384 172.186 265.424 172.204V172.204Z" fill="#3A2C6D"/>
<path d="M264.309 171.596L265.098 172.05C265.161 172.05 265.152 172.159 265.098 172.195L264.346 172.631C264.308 172.651 264.266 172.661 264.223 172.661C264.181 172.661 264.139 172.651 264.101 172.631L263.312 172.177C263.249 172.177 263.258 172.077 263.312 172.032L264.065 171.605C264.102 171.583 264.143 171.572 264.186 171.57C264.228 171.568 264.271 171.577 264.309 171.596V171.596Z" fill="#3A2C6D"/>
<path d="M263.203 170.96L263.992 171.414C264.055 171.414 264.046 171.514 263.992 171.559L263.24 171.986C263.2 172.006 263.157 172.016 263.113 172.016C263.069 172.016 263.025 172.006 262.986 171.986L262.206 171.532C262.143 171.487 262.152 171.423 262.206 171.387L262.959 170.951C262.997 170.932 263.04 170.924 263.082 170.925C263.125 170.927 263.166 170.939 263.203 170.96V170.96Z" fill="#3A2C6D"/>
<path d="M262.098 170.315L262.877 170.769C262.941 170.769 262.932 170.869 262.877 170.915L262.134 171.351C262.094 171.369 262.051 171.378 262.007 171.378C261.963 171.378 261.92 171.369 261.88 171.351L261.101 170.897C261.037 170.897 261.046 170.797 261.101 170.751L261.844 170.315C261.884 170.297 261.927 170.288 261.971 170.288C262.015 170.288 262.058 170.297 262.098 170.315V170.315Z" fill="#3A2C6D"/>
<path d="M260.983 169.68L261.771 170.134C261.835 170.134 261.826 170.234 261.771 170.279L261.019 170.706C260.981 170.726 260.939 170.736 260.897 170.736C260.854 170.736 260.812 170.726 260.774 170.706L259.986 170.252C259.922 170.252 259.931 170.152 259.986 170.107L260.738 169.68C260.776 169.66 260.818 169.65 260.86 169.65C260.903 169.65 260.945 169.66 260.983 169.68V169.68Z" fill="#3A2C6D"/>
<path d="M259.877 169.035L260.666 169.489C260.729 169.489 260.72 169.589 260.666 169.634L259.913 170.07C259.875 170.088 259.833 170.097 259.791 170.097C259.749 170.097 259.707 170.088 259.669 170.07L258.88 169.616C258.816 169.616 258.826 169.516 258.88 169.471L259.632 169.035C259.671 169.017 259.712 169.008 259.755 169.008C259.797 169.008 259.839 169.017 259.877 169.035V169.035Z" fill="#3A2C6D"/>
<path d="M258.771 168.39L259.551 168.844C259.614 168.844 259.614 168.953 259.551 168.99L258.807 169.426C258.768 169.446 258.725 169.456 258.681 169.456C258.636 169.456 258.593 169.446 258.554 169.426L257.774 168.972C257.711 168.972 257.72 168.872 257.774 168.826L258.517 168.4C258.556 168.378 258.599 168.366 258.643 168.365C258.687 168.363 258.731 168.372 258.771 168.39V168.39Z" fill="#3A2C6D"/>
<path d="M257.693 167.755L258.472 168.209C258.536 168.209 258.526 168.309 258.472 168.354L257.729 168.781C257.69 168.803 257.646 168.815 257.602 168.815C257.557 168.815 257.514 168.803 257.475 168.781L256.696 168.336C256.632 168.336 256.632 168.227 256.696 168.191L257.439 167.755C257.478 167.735 257.522 167.724 257.566 167.724C257.61 167.724 257.653 167.735 257.693 167.755V167.755Z" fill="#3A2C6D"/>
<path d="M256.551 167.11L257.339 167.564C257.403 167.564 257.393 167.664 257.339 167.709L256.587 168.145C256.548 168.163 256.507 168.172 256.464 168.172C256.422 168.172 256.38 168.163 256.342 168.145L255.553 167.691C255.49 167.691 255.499 167.591 255.553 167.546L256.306 167.11C256.344 167.092 256.386 167.083 256.428 167.083C256.47 167.083 256.512 167.092 256.551 167.11V167.11Z" fill="#3A2C6D"/>
<path d="M255.445 166.475L256.224 166.929C256.297 166.929 256.288 167.028 256.224 167.065L255.472 167.501C255.433 167.521 255.389 167.531 255.345 167.531C255.301 167.531 255.257 167.521 255.218 167.501L254.439 167.047C254.375 167.047 254.384 166.947 254.439 166.901L255.182 166.475C255.222 166.453 255.268 166.442 255.313 166.442C255.359 166.442 255.404 166.453 255.445 166.475Z" fill="#3A2C6D"/>
<path d="M254.339 165.848L255.118 166.302C255.182 166.302 255.173 166.402 255.118 166.447L254.375 166.883C254.335 166.901 254.292 166.911 254.248 166.911C254.204 166.911 254.161 166.901 254.121 166.883L253.342 166.429C253.278 166.429 253.287 166.329 253.342 166.284L254.067 165.848C254.109 165.825 254.155 165.813 254.203 165.813C254.25 165.813 254.297 165.825 254.339 165.848V165.848Z" fill="#3A2C6D"/>
<path d="M253.224 165.185L254.013 165.639C254.076 165.639 254.067 165.748 254.013 165.784L253.26 166.22C253.223 166.24 253.181 166.251 253.138 166.251C253.095 166.251 253.053 166.24 253.016 166.22L252.227 165.766C252.164 165.766 252.173 165.666 252.227 165.621L252.979 165.194C253.016 165.173 253.058 165.161 253.101 165.159C253.143 165.158 253.186 165.167 253.224 165.185V165.185Z" fill="#3A2C6D"/>
<path d="M266.53 172.885L268.152 173.793C268.216 173.793 268.207 173.893 268.152 173.938L267.4 174.374C267.362 174.392 267.32 174.401 267.278 174.401C267.235 174.401 267.194 174.392 267.155 174.374L265.533 173.466C265.469 173.466 265.479 173.366 265.533 173.321L266.276 172.894C266.315 172.873 266.358 172.861 266.402 172.859C266.446 172.858 266.49 172.866 266.53 172.885V172.885Z" fill="#3A2C6D"/>
<path d="M267.047 171.941L267.826 172.395C267.899 172.395 267.89 172.495 267.826 172.531L267.083 172.967C267.044 172.987 267 172.997 266.956 172.997C266.912 172.997 266.868 172.987 266.829 172.967L266.05 172.513C265.986 172.513 265.995 172.413 266.05 172.367L266.793 171.941C266.832 171.921 266.876 171.91 266.92 171.91C266.964 171.91 267.007 171.921 267.047 171.941Z" fill="#3A2C6D"/>
<path d="M265.941 171.296L266.72 171.75C266.784 171.75 266.775 171.85 266.72 171.895L265.977 172.331C265.937 172.349 265.894 172.359 265.85 172.359C265.806 172.359 265.763 172.349 265.723 172.331L264.944 171.877C264.88 171.877 264.889 171.777 264.944 171.732L265.687 171.296C265.726 171.276 265.77 171.266 265.814 171.266C265.858 171.266 265.901 171.276 265.941 171.296V171.296Z" fill="#3A2C6D"/>
<path d="M264.826 170.651L265.615 171.105C265.678 171.105 265.669 171.214 265.615 171.251L264.862 171.686C264.824 171.706 264.782 171.717 264.74 171.717C264.697 171.717 264.655 171.706 264.617 171.686L263.829 171.232C263.765 171.232 263.775 171.133 263.829 171.087L264.581 170.66C264.618 170.639 264.66 170.627 264.702 170.626C264.745 170.624 264.787 170.633 264.826 170.651V170.651Z" fill="#3A2C6D"/>
<path d="M263.72 170.016L264.509 170.47C264.572 170.47 264.563 170.57 264.509 170.615L263.756 171.042C263.719 171.064 263.677 171.076 263.634 171.076C263.591 171.076 263.549 171.064 263.512 171.042L262.723 170.597C262.66 170.551 262.669 170.488 262.723 170.452L263.475 170.016C263.513 169.996 263.555 169.985 263.598 169.985C263.64 169.985 263.682 169.996 263.72 170.016V170.016Z" fill="#3A2C6D"/>
<path d="M262.614 169.371L263.394 169.825C263.457 169.825 263.457 169.925 263.394 169.97L262.651 170.406C262.611 170.424 262.567 170.434 262.524 170.434C262.48 170.434 262.437 170.424 262.397 170.406L261.617 169.952C261.554 169.952 261.563 169.852 261.617 169.807L262.361 169.371C262.4 169.353 262.444 169.344 262.487 169.344C262.531 169.344 262.574 169.353 262.614 169.371V169.371Z" fill="#3A2C6D"/>
<path d="M261.508 168.735L262.288 169.189C262.351 169.189 262.342 169.289 262.288 169.326L261.545 169.762C261.505 169.781 261.462 169.792 261.418 169.792C261.374 169.792 261.33 169.781 261.291 169.762L260.511 169.308C260.448 169.308 260.448 169.208 260.511 169.162L261.255 168.735C261.294 168.716 261.338 168.705 261.382 168.705C261.426 168.705 261.469 168.716 261.508 168.735V168.735Z" fill="#3A2C6D"/>
<path d="M260.412 168.091L261.2 168.545C261.264 168.545 261.255 168.645 261.2 168.69L260.448 169.126C260.41 169.144 260.368 169.153 260.326 169.153C260.283 169.153 260.242 169.144 260.203 169.126L259.415 168.672C259.351 168.672 259.36 168.572 259.415 168.527L260.167 168.091C260.205 168.073 260.247 168.064 260.289 168.064C260.332 168.064 260.373 168.073 260.412 168.091V168.091Z" fill="#3A2C6D"/>
<path d="M259.288 167.446L260.076 167.9C260.14 167.9 260.131 168.009 260.076 168.045L259.324 168.481C259.286 168.501 259.244 168.511 259.202 168.511C259.159 168.511 259.117 168.501 259.079 168.481L258.291 168.027C258.227 168.027 258.236 167.927 258.291 167.882L259.043 167.455C259.08 167.434 259.122 167.422 259.164 167.42C259.207 167.419 259.249 167.428 259.288 167.446Z" fill="#3A2C6D"/>
<path d="M258.182 166.811L258.962 167.265C259.025 167.265 259.016 167.364 258.962 167.41L258.218 167.837C258.179 167.857 258.135 167.867 258.091 167.867C258.047 167.867 258.004 167.857 257.965 167.837L257.185 167.383C257.122 167.383 257.131 167.274 257.185 167.237L257.928 166.801C257.968 166.783 258.012 166.774 258.056 166.776C258.1 166.777 258.143 166.789 258.182 166.811V166.811Z" fill="#3A2C6D"/>
<path d="M257.076 166.166L257.856 166.62C257.919 166.62 257.91 166.72 257.856 166.765L257.113 167.201C257.073 167.219 257.029 167.228 256.986 167.228C256.942 167.228 256.899 167.219 256.859 167.201L256.079 166.747C256.007 166.747 256.016 166.647 256.079 166.602L256.822 166.166C256.862 166.148 256.906 166.138 256.949 166.138C256.993 166.138 257.036 166.148 257.076 166.166Z" fill="#3A2C6D"/>
<path d="M255.961 165.53L256.75 165.984C256.813 165.984 256.804 166.084 256.75 166.129L255.998 166.556C255.96 166.576 255.918 166.587 255.875 166.587C255.833 166.587 255.791 166.576 255.753 166.556L254.964 166.102C254.901 166.102 254.91 166.002 254.964 165.966L255.717 165.53C255.754 165.51 255.796 165.5 255.839 165.5C255.882 165.5 255.924 165.51 255.961 165.53V165.53Z" fill="#3A2C6D"/>
<path d="M253.487 164.096L255.644 165.34C255.708 165.34 255.698 165.439 255.644 165.485L254.892 165.921C254.852 165.939 254.809 165.948 254.765 165.948C254.721 165.948 254.678 165.939 254.638 165.921L252.49 164.668C252.426 164.668 252.426 164.568 252.49 164.531L253.233 164.096C253.272 164.076 253.316 164.065 253.36 164.065C253.404 164.065 253.448 164.076 253.487 164.096V164.096Z" fill="#3A2C6D"/>
<path d="M268.152 172.576L269.222 173.194C269.285 173.194 269.276 173.303 269.222 173.339L268.479 173.775C268.439 173.795 268.396 173.805 268.352 173.805C268.308 173.805 268.264 173.795 268.225 173.775L267.155 173.157C267.092 173.157 267.101 173.058 267.155 173.012L267.908 172.576C267.946 172.558 267.988 172.549 268.03 172.549C268.072 172.549 268.114 172.558 268.152 172.576V172.576Z" fill="#3A2C6D"/>
<path d="M249.145 166.602L264.88 175.682C264.944 175.682 264.944 175.782 264.88 175.827L264.509 176.036C264.471 176.056 264.429 176.066 264.386 176.066C264.344 176.066 264.302 176.056 264.264 176.036L248.52 166.956C248.456 166.956 248.465 166.856 248.52 166.811L248.891 166.593C248.932 166.576 248.976 166.568 249.019 166.57C249.063 166.571 249.106 166.582 249.145 166.602V166.602Z" fill="#3A2C6D"/>
<path d="M267.563 167.01L267.454 167.065L264.735 168.645L259.904 165.848L259.805 165.784L262.623 164.159L267.563 167.01Z" fill="#BFBFBF"/>
<path d="M267.454 167.065L264.735 168.645L259.904 165.848L262.623 164.277L267.454 167.065Z" fill="#E5E5E5"/>
<path d="M275.313 170.679V170.924C275.314 171.098 275.27 171.269 275.184 171.421C275.098 171.572 274.974 171.698 274.823 171.786L265.234 177.325C265.084 177.414 264.914 177.461 264.74 177.461C264.566 177.461 264.395 177.414 264.246 177.325L246.897 167.337C246.739 167.246 246.609 167.113 246.521 166.953C246.434 166.793 246.391 166.612 246.399 166.429V166.184L264.735 176.789L275.313 170.679Z" fill="#E5E5E5"/>
<path d="M264.463 176.944C264.299 177.008 264.123 177.035 263.948 177.023C263.772 177.01 263.601 176.958 263.448 176.871L246.227 166.883C246.076 166.796 245.947 166.677 245.848 166.534C245.749 166.392 245.684 166.228 245.656 166.057L243.761 154.761C243.757 154.698 243.757 154.634 243.761 154.571C243.761 154.415 243.792 154.26 243.853 154.117C243.913 153.973 244.003 153.843 244.115 153.735L262.061 164.114C262.17 164.18 262.263 164.269 262.334 164.374C262.406 164.478 262.455 164.597 262.478 164.722L264.463 176.944Z" fill="#F4F4F4"/>
<path d="M264.735 176.799L264.617 176.871L264.463 176.944L262.415 164.722C262.392 164.597 262.343 164.478 262.271 164.374C262.199 164.269 262.106 164.18 261.998 164.114L244.097 153.735C244.163 153.66 244.243 153.599 244.332 153.554L262.315 163.95C262.425 164.016 262.52 164.104 262.593 164.209C262.667 164.314 262.717 164.433 262.741 164.559L264.735 176.799Z" fill="#E5E5E5"/>
<path d="M277.778 128.466C277.778 128.466 277.552 132.761 277.651 133.142C277.751 133.523 279.618 134.785 280.162 135.239C280.706 135.693 277.198 139.162 275.494 139.943C273.79 140.724 268.37 138.663 268.243 135.993C268.116 133.323 269.149 131.099 270.001 130.981C270.853 130.863 277.778 128.466 277.778 128.466Z" fill="#FFCEA9"/>
<path d="M278.25 133.886C278.25 133.886 275.141 138.535 270.799 138.971C269.43 137.618 269.303 132.806 271.198 131.271C271.198 131.271 269.458 129.855 268.261 130.136C266.965 130.903 265.997 132.122 265.542 133.56C264.43 136.768 263.911 140.153 264.01 143.548C264.083 148.088 264.01 159.628 264.01 159.628C264.265 160.99 264.804 162.282 265.593 163.42C266.382 164.557 267.403 165.515 268.587 166.229C271.726 168.013 275.426 168.526 278.929 167.664C281.132 167.146 281.948 165.921 282.709 164.314C282.51 161.126 281.25 154.543 281.803 150.521C282.356 146.499 283.18 143.502 283.398 140.261C283.615 137.019 282.972 137.073 281.34 135.911C280.36 135.162 279.327 134.486 278.25 133.886V133.886Z" fill="#F4F4F4"/>
<path d="M273.264 170.924C274.045 170.403 274.859 169.936 275.703 169.525C276.489 169.274 277.204 168.838 277.787 168.254C278.549 167.51 279.8 164.677 280.697 161.898C281.59 158.782 281.943 155.536 281.739 152.301C281.368 148.424 279.972 143.003 279.618 140.778C279.265 138.554 279.981 137.655 281.023 136.837C282.238 135.875 283.915 136.302 284.812 139.425C285.968 143.747 286.636 148.184 286.806 152.655C286.843 155.976 286.332 159.28 285.292 162.434C284.368 165.136 283.12 167.715 281.576 170.116C281.15 170.833 281.005 171.478 280.352 172.949C279.726 174.427 278.749 175.729 277.506 176.744C276.419 177.525 275.902 177.652 275.639 177.489C275.376 177.325 275.385 176.953 275.848 176.581C276.619 175.973 277.276 175.232 277.787 174.392C277.787 174.392 276.836 175.355 276.21 175.881C275.66 176.347 275.05 176.738 274.397 177.044C273.763 177.325 272.875 176.78 273.328 176.354C273.781 175.927 274.234 175.709 275.141 174.919C275.628 174.505 276.064 174.032 276.437 173.512C275.799 174.004 275.123 174.444 274.416 174.828C273.869 175.159 273.242 175.332 272.603 175.328C272.267 175.328 271.86 174.837 272.494 174.42C273.366 173.946 274.179 173.37 274.914 172.703C275.612 172.013 276.002 171.423 275.82 171.414C275.639 171.405 275.24 171.832 274.425 172.095C273.609 172.358 272.73 172.095 272.612 171.668C272.494 171.242 272.503 171.296 273.264 170.924Z" fill="#FFCEA9"/>
<path d="M268.062 122.055C268.578 118.723 270.98 116.199 274.407 116.389C275.788 116.46 277.113 116.963 278.194 117.829C279.274 118.695 280.055 119.88 280.427 121.215C280.799 122.55 280.742 123.968 280.265 125.27C279.789 126.571 278.915 127.689 277.769 128.466C277.648 128.972 277.468 129.463 277.235 129.928C276.029 131.344 272.358 132.252 271.289 132.07C270.663 132.014 270.069 131.769 269.584 131.369C269.099 130.969 268.745 130.432 268.569 129.828C267.427 127.213 267.781 123.708 268.062 122.055Z" fill="#FFCEA9"/>
<path d="M277.778 128.466L277.461 125.551C277.461 125.551 279.836 119.395 274.225 120.575C270.527 121.356 269.594 121.701 268.47 119.213C267.346 116.725 271.289 114.482 276.029 115.109C277.654 115.277 279.156 116.051 280.237 117.278C281.318 118.504 281.9 120.092 281.866 121.728C281.748 123.562 281.259 127.267 277.778 128.466Z" fill="#3A2C6D"/>
<path d="M287.377 145.173C287.377 145.173 284.313 148.224 280.697 147.343C280.18 146.989 278.929 139.861 278.929 139.861C278.929 139.861 278.929 135.911 281.957 136.011C284.984 136.111 287.377 145.173 287.377 145.173Z" fill="#EDEDED"/>
<path d="M264.264 139.253C263.407 139.222 262.595 138.861 261.998 138.245C262.125 136.647 264.164 130.581 268.261 130.136C267.147 130.919 266.264 131.989 265.705 133.233C265.068 135.198 264.586 137.211 264.264 139.253V139.253Z" fill="#EDEDED"/>
<path d="M448.398 397.524L372.696 353.74C367.938 351.016 364.085 343.616 364.085 337.269V217.949C364.085 211.593 367.938 208.687 372.696 211.43L448.398 255.222C453.148 257.946 457 265.347 457 271.694V391.032C457 397.388 453.148 400.275 448.398 397.524Z" fill="#211B49"/>
<path d="M451.426 399.268L454.018 397.987L452.269 394.546L451.426 399.268Z" fill="#211B49"/>
<path d="M365.499 211.766C366.262 211.312 367.062 210.926 367.892 210.612L369.814 214.417L365.499 211.766Z" fill="#211B49"/>
<path d="M446.413 398.523L370.702 354.712C365.953 351.988 362.1 344.588 362.1 338.241V218.948C362.1 212.592 365.953 209.677 370.702 212.428L446.413 256.221C451.163 258.945 455.015 266.336 455.015 272.683V392.004C455.015 398.35 451.163 401.274 446.413 398.523Z" fill="#2E245B"/>
<path d="M384.47 237.308L370.702 229.344V224.369L384.47 232.332V237.308Z" fill="#A298E2"/>
<path d="M445.552 272.638L387.053 238.797V233.83L445.552 267.662V272.638Z" fill="#C33AFC"/>
<path d="M384.47 253.234L370.702 245.271V240.295L384.47 248.258V253.234Z" fill="#A298E2"/>
<path d="M425.766 277.114L387.053 254.723V249.747L425.766 272.138V277.114Z" fill="#F4CE2C"/>
<path d="M384.47 261.188L370.702 253.234V248.258L384.47 256.212V261.188Z" fill="#A298E2"/>
<path d="M435.228 290.553L387.053 262.686V257.71L435.228 285.577V290.553Z" fill="#FF8657"/>
<path d="M384.47 269.151L370.702 261.188V256.212L384.47 264.175V269.151Z" fill="#A298E2"/>
<path d="M420.608 290.053L387.053 270.649V265.674L420.608 285.077V290.053Z" fill="#A298E2"/>
<path d="M384.47 245.271L370.702 237.308V232.332L384.47 240.295V245.271Z" fill="#A298E2"/>
<path d="M416.303 263.685L387.053 246.76V241.784L416.303 258.7V263.685Z" fill="#4D3BFF"/>
<path d="M384.47 277.114L370.702 269.151V264.175L384.47 272.138V277.114Z" fill="#A298E2"/>
<path d="M404.257 288.555L387.053 278.603V273.628L404.257 283.579V288.555Z" fill="#C33AFC"/>
<path d="M384.47 293.032L370.702 285.078V280.102L384.47 288.065V293.032Z" fill="#A298E2"/>
<path d="M441.256 325.874L387.053 294.53V289.554L441.256 320.898V325.874Z" fill="#F4CE2C"/>
<path d="M384.47 300.995L370.702 293.032V288.056L384.47 296.019V300.995Z" fill="#A298E2"/>
<path d="M403.396 311.945L387.053 302.493V297.517L403.396 306.969V311.945Z" fill="#FF8657"/>
<path d="M384.47 308.958L370.702 300.995V296.019L384.47 303.982V308.958Z" fill="#A298E2"/>
<path d="M435.228 338.314L387.053 310.447V305.48L435.228 333.338V338.314Z" fill="#A298E2"/>
<path d="M384.47 285.077L370.702 277.114V272.138L384.47 280.102V285.077Z" fill="#A298E2"/>
<path d="M432.645 312.944L387.053 286.567V281.591L432.645 307.968V312.944Z" fill="#4D3BFF"/>
<path d="M384.47 316.921L370.702 308.958V303.982L384.47 311.945V316.921Z" fill="#A298E2"/>
<path d="M393.072 321.897L387.053 318.41V313.434L393.072 316.921V321.897Z" fill="#C33AFC"/>
<path d="M384.47 332.838L370.702 324.884V319.908L384.47 327.872V332.838Z" fill="#A298E2"/>
<path d="M398.238 340.801L387.053 334.336V329.361L398.238 335.826V340.801Z" fill="#F4CE2C"/>
<path d="M384.47 340.801L370.702 332.838V327.862L384.47 335.826V340.801Z" fill="#A298E2"/>
<path d="M416.303 359.216L387.053 342.3V337.324L416.303 354.24V359.216Z" fill="#FF8657"/>
<path d="M384.47 348.765L370.702 340.801V335.826L384.47 343.789V348.765Z" fill="#A298E2"/>
<path d="M433.506 377.131L387.053 350.254V345.278L433.506 372.155V377.131Z" fill="#A298E2"/>
<path d="M384.47 324.884L370.702 316.921V311.945L384.47 319.908V324.884Z" fill="#A298E2"/>
<path d="M445.552 360.214L387.053 326.373V321.397L445.552 355.23V360.214Z" fill="#4D3BFF"/>
<path d="M64.739 307.442L56.4727 303.192L39.1515 313.18C35.2268 315.45 32.0363 313.616 32.0363 309.067V290.162C32.1702 287.689 32.8842 285.281 34.1204 283.136C35.3566 280.99 37.0802 279.167 39.1515 277.814L142.308 218.131C146.233 215.861 149.424 217.704 149.424 222.244V241.212C149.29 243.686 148.576 246.093 147.339 248.238C146.103 250.384 144.38 252.207 142.308 253.561L72.951 293.64" fill="#B1B4C4"/>
<path d="M146.84 217.395L150.738 218.975L147.439 222.371L145.1 218.621L146.84 217.395Z" fill="#B1B4C4"/>
<path d="M64.739 307.442L68.845 309.094L68.8541 305.553L65.2194 304.827L64.739 307.442Z" fill="#B1B4C4"/>
<path d="M38.8977 315.668C39.0518 315.995 34.4473 314.106 34.2841 313.852C34.121 313.598 39.8675 310.22 39.8675 310.22L38.8977 315.668Z" fill="#B1B4C4"/>
<path d="M77.0569 295.283L146.414 255.177C148.484 253.822 150.207 251.998 151.443 249.853C152.679 247.708 153.394 245.301 153.53 242.828V223.896C153.53 219.356 150.339 217.54 146.414 219.774L43.2212 279.457C41.151 280.812 39.4281 282.635 38.192 284.781C36.9559 286.926 36.2413 289.332 36.106 291.806V310.738C36.106 315.278 39.2965 317.094 43.2212 314.851L60.5424 304.863L68.845 309.121L77.0569 295.283Z" fill="#E9EAF2"/>
<path d="M144.275 236.245L45.3602 293.449V286.866L144.275 229.653V236.245Z" fill="#8C50FF"/>
<path d="M110.122 267.526L45.3602 304.981V298.389L110.122 260.934V267.526Z" fill="#8C50FF"/>
</g>
</g>
<defs>
<linearGradient id="paint0_linear_0_3" x1="263" y1="-1.17431e-06" x2="269.5" y2="600" gradientUnits="userSpaceOnUse">
<stop stop-color="#3202B4"/>
<stop offset="1" stop-color="#8139F7"/>
</linearGradient>
<linearGradient id="paint1_linear_0_3" x1="323.177" y1="377.895" x2="398.702" y2="246.713" gradientUnits="userSpaceOnUse">
<stop offset="0.21" stop-color="white" stop-opacity="0"/>
<stop offset="1" stop-color="white" stop-opacity="0.2"/>
</linearGradient>
<linearGradient id="paint2_linear_0_3" x1="342.688" y1="332.764" x2="322.28" y2="368.212" gradientUnits="userSpaceOnUse">
<stop stop-color="#E9EAF2" stop-opacity="0.8"/>
<stop offset="1" stop-color="#E9EAF2" stop-opacity="0"/>
</linearGradient>
<clipPath id="clip0_0_3">
<rect width="500" height="600" fill="white"/>
</clipPath>
<clipPath id="clip1_0_3">
<rect width="425" height="454" fill="white" transform="translate(32 115)"/>
</clipPath>
</defs>
</svg>
