<svg width="991" height="926" viewBox="0 0 991 926" fill="none" xmlns="http://www.w3.org/2000/svg">
<g clip-path="url(#clip0_7_510)">
<rect width="991" height="926" fill="#F7F7F7"/>
<path fill-rule="evenodd" clip-rule="evenodd" d="M-2.12608 255.088C-33.7392 242.386 -71.0111 238.215 -94.5165 214.07C-118.011 189.935 -119.864 154.385 -130.375 123.346C-140.487 93.4854 -149.685 64.2897 -155.632 33.5968C-162.745 -3.11449 -181.082 -41.4464 -169.02 -76.1082C-157.013 -110.614 -125.589 -138.1 -90.8137 -152.672C-56.7898 -166.93 -16.197 -151.454 21.1068 -155.782C54.7922 -159.69 85.0284 -182.981 118.859 -176.997C152.706 -171.009 182.732 -148.34 205.627 -123.142C227.09 -99.521 228.371 -65.8268 244.496 -38.7241C259.797 -13.0067 282.434 7.24615 298.321 32.6556C319.92 67.202 365.517 100.896 355.398 138.655C345.356 176.125 284.621 173.666 253.938 198.264C228.677 218.515 219.883 254.113 191.389 270.136C162.369 286.454 126.698 291.815 92.326 289.142C58.807 286.536 29.2759 267.705 -2.12608 255.088Z" fill="url(#paint0_radial_7_510)"/>
<path fill-rule="evenodd" clip-rule="evenodd" d="M13.7467 181.837C-19.0901 172.755 -56.5946 172.785 -82.6563 151.424C-108.706 130.072 -114.528 94.9534 -128.45 65.2868C-141.842 36.7466 -154.253 8.76477 -163.599 -21.069C-174.779 -56.7527 -197.294 -92.7898 -189.19 -128.584C-181.123 -164.218 -152.974 -195.05 -120.05 -213.426C-87.8372 -231.404 -45.7665 -220.572 -9.18219 -229.05C23.8537 -236.706 51.2911 -263.237 85.5788 -261.079C119.884 -258.92 152.26 -239.756 177.832 -217.281C201.806 -196.212 206.853 -162.874 225.912 -137.747C243.997 -113.906 268.759 -96.3153 287.392 -72.845C312.724 -40.9349 361.808 -12.5591 355.981 26.0949C350.199 64.4543 289.571 68.8128 261.836 96.692C239.002 119.645 234.25 156.004 207.73 175.117C180.72 194.583 145.873 203.905 111.419 205.099C77.8185 206.263 46.3642 190.858 13.7467 181.837Z" fill="url(#paint1_radial_7_510)"/>
<path fill-rule="evenodd" clip-rule="evenodd" d="M1013.81 708.252C1045.01 721.925 1082.48 726.508 1104.77 752.373C1127.05 778.226 1126.71 816.194 1135.42 849.375C1143.8 881.296 1151.29 912.504 1155.4 945.299C1160.32 984.526 1176.5 1025.52 1162.13 1062.49C1147.84 1099.3 1114.32 1128.54 1078.22 1143.98C1042.9 1159.09 1002.78 1142.42 964.758 1146.91C930.423 1150.97 898.374 1175.73 864.507 1169.23C830.622 1162.72 801.643 1138.41 780.037 1111.42C759.783 1086.12 760.581 1050.14 745.945 1021.14C732.058 993.625 710.407 971.92 695.907 944.732C676.195 907.767 632.141 871.63 644.729 831.345C657.221 791.368 718.537 794.204 751.119 768.044C777.944 746.506 789.058 708.524 818.891 691.514C849.276 674.188 885.712 668.588 920.333 671.561C954.095 674.46 982.812 694.67 1013.81 708.252Z" fill="url(#paint2_radial_7_510)"/>
<path fill-rule="evenodd" clip-rule="evenodd" d="M987.809 765.252C1019.01 778.925 1056.48 783.508 1078.77 809.373C1101.05 835.226 1100.71 873.194 1109.42 906.375C1117.8 938.296 1125.29 969.504 1129.4 1002.3C1134.32 1041.53 1150.5 1082.52 1136.13 1119.49C1121.84 1156.3 1088.32 1185.54 1052.22 1200.98C1016.9 1216.09 976.782 1199.42 938.758 1203.91C904.423 1207.97 872.374 1232.73 838.507 1226.23C804.622 1219.72 775.643 1195.41 754.037 1168.42C733.783 1143.12 734.581 1107.14 719.945 1078.14C706.058 1050.63 684.407 1028.92 669.907 1001.73C650.195 964.767 606.141 928.63 618.729 888.345C631.221 848.368 692.537 851.204 725.119 825.044C751.944 803.506 763.058 765.524 792.891 748.514C823.276 731.188 859.712 725.588 894.333 728.561C928.095 731.46 956.812 751.67 987.809 765.252Z" fill="url(#paint3_radial_7_510)"/>
<path fill-rule="evenodd" clip-rule="evenodd" d="M1166.81 574.252C1198.01 587.925 1235.48 592.508 1257.77 618.373C1280.05 644.226 1279.71 682.194 1288.42 715.375C1296.8 747.296 1304.29 778.504 1308.4 811.299C1313.32 850.526 1329.5 891.521 1315.13 928.492C1300.84 965.297 1267.32 994.539 1231.22 1009.98C1195.9 1025.09 1155.78 1008.42 1117.76 1012.91C1083.42 1016.97 1051.37 1041.73 1017.51 1035.23C983.622 1028.72 954.643 1004.41 933.037 977.419C912.783 952.121 913.581 916.137 898.945 887.14C885.058 859.625 863.407 837.92 848.907 810.732C829.195 773.767 785.141 737.63 797.729 697.345C810.221 657.368 871.537 660.204 904.119 634.044C930.944 612.506 942.058 574.524 971.891 557.514C1002.28 540.188 1038.71 534.588 1073.33 537.561C1107.09 540.46 1135.81 560.67 1166.81 574.252Z" fill="url(#paint4_radial_7_510)"/>
<g clip-path="url(#clip1_7_510)">
<path d="M712 597.63L461.93 453.23C458.42 451.23 455.58 445.77 455.58 441.1V247.63C455.58 242.95 458.42 240.8 461.93 242.83L712 387.23C715.51 389.23 718.35 394.69 718.35 399.36V592.83C718.39 597.51 715.55 599.66 712 597.63Z" fill="#B1B4C4"/>
<path d="M713.33 599.63L716.1 598.03L714.9 589.82L713.33 599.63Z" fill="#B1B4C4"/>
<path d="M455.13 244L457.86 242.42L461.78 244.66C461.78 244.66 457.6 245.29 457.5 245.27C457.4 245.25 455.13 244 455.13 244Z" fill="#B1B4C4"/>
<path d="M709.75 599L459.64 454.56C456.13 452.56 453.28 447.1 453.28 442.42V249C453.28 244.32 456.13 242.17 459.64 244.2L709.75 388.6C713.26 390.6 716.1 396.06 716.1 400.74V594.16C716.1 598.83 713.26 601 709.75 599Z" fill="#E4E7F2"/>
<path d="M709.31 599.21L459.2 454.81C455.69 452.81 452.84 447.35 452.84 442.67V249.2C452.84 244.53 455.69 242.38 459.2 244.4L709.31 388.8C712.81 390.8 715.66 396.26 715.66 400.94V594.41C715.66 599.09 712.81 601.24 709.31 599.21Z" fill="#D6D8E5"/>
<path d="M712.22 587.44L456 439.53L456.15 250C456.15 248.06 457.51 247.27 459.15 248.24L709.26 392.64C710.138 393.222 710.867 394.002 711.388 394.917C711.909 395.833 712.208 396.858 712.26 397.91L712.22 587.44Z" fill="white"/>
<path opacity="0.5" d="M712.14 587.45L456 439.54L456.08 250C456.08 248.06 457.44 247.27 459.08 248.24L709.19 392.64C710.068 393.222 710.796 394.003 711.317 394.918C711.838 395.833 712.137 396.858 712.19 397.91L712.14 587.45Z" fill="url(#paint5_linear_7_510)"/>
<path opacity="0.4" d="M520.67 711.63L270.56 567.23C267.05 565.23 267.49 561.67 271.56 559.33L439.11 462.59C443.11 460.26 449.29 460 452.79 462.03L702.91 606.43C706.41 608.43 705.97 611.99 701.91 614.33L534.35 711.07C530.3 713.4 524.17 713.66 520.67 711.63Z" fill="#D6D8E5"/>
<path d="M526.13 708.35L276 564C272.49 562 272.93 558.44 277 556.1L444.55 459.37C448.55 457.03 454.73 456.77 458.24 458.8L708.35 603.2C711.86 605.2 711.42 608.76 707.35 611.1L539.82 707.79C535.77 710.12 529.64 710.38 526.13 708.35Z" fill="#B1B4C4"/>
<path d="M273.65 560.69V555.97L278.95 558.19L273.65 560.69Z" fill="#B1B4C4"/>
<path d="M710.72 606.68V602.07L706.8 603.42L709.4 607.24L710.72 606.68Z" fill="#B1B4C4"/>
<path d="M526.13 704.38L276 560C272.49 558 272.93 554.44 277 552.1L444.55 455.36C448.55 453.02 454.73 452.77 458.24 454.8L708.35 599.2C711.86 601.2 711.42 604.76 707.35 607.1L539.82 703.81C535.77 706.15 529.64 706.41 526.13 704.38Z" fill="#E4E7F2"/>
<path d="M526.13 703.77L276 559.37C272.49 557.37 272.93 553.8 277 551.47L444.55 454.73C448.55 452.39 454.73 452.14 458.24 454.16L708.35 598.57C711.86 600.57 711.42 604.13 707.35 606.47L539.82 703.2C535.77 705.54 529.64 705.79 526.13 703.77Z" fill="#D6D8E5"/>
<path d="M439.91 487.36L428.27 480.64C427.27 480.09 427.44 479.13 428.53 478.5L439.65 472.08C440.212 471.767 440.84 471.591 441.482 471.565C442.125 471.539 442.765 471.664 443.35 471.93L455 478.65C455.95 479.2 455.83 480.16 454.73 480.79L443.62 487.21C443.056 487.523 442.427 487.699 441.783 487.725C441.139 487.751 440.497 487.626 439.91 487.36V487.36Z" fill="#2B303F"/>
<path d="M456.4 496.88L444.75 490.15C443.8 489.61 443.92 488.65 445.02 488.01L456.13 481.6C456.694 481.287 457.323 481.111 457.967 481.085C458.611 481.059 459.253 481.184 459.84 481.45L471.48 488.17C472.48 488.72 472.31 489.68 471.22 490.31L460.1 496.72C459.54 497.037 458.912 497.216 458.269 497.244C457.626 497.272 456.986 497.147 456.4 496.88Z" fill="#2B303F"/>
<path d="M473.07 506.51L461.43 499.78C460.43 499.23 460.6 498.27 461.69 497.64L472.81 491.23C473.37 490.913 473.998 490.734 474.641 490.706C475.284 490.678 475.924 490.803 476.51 491.07L488.16 497.8C489.16 498.34 488.99 499.3 487.89 499.94L476.78 506.35C476.216 506.661 475.588 506.838 474.944 506.866C474.3 506.894 473.659 506.772 473.07 506.51V506.51Z" fill="#2B303F"/>
<path d="M489.37 515.91L477.72 509.19C476.77 508.64 476.89 507.68 477.99 507.05L489.1 500.63C489.664 500.317 490.293 500.141 490.937 500.115C491.581 500.089 492.223 500.214 492.81 500.48L504.46 507.2C505.41 507.75 505.29 508.71 504.19 509.34L493.08 515.76C492.516 516.073 491.887 516.249 491.243 516.275C490.599 516.301 489.957 516.176 489.37 515.91V515.91Z" fill="#2B303F"/>
<path d="M505.86 525.43L494.21 518.71C493.21 518.16 493.38 517.2 494.48 516.57L505.59 510.15C506.154 509.837 506.783 509.661 507.427 509.635C508.071 509.609 508.713 509.734 509.3 510L520.94 516.72C521.89 517.27 521.77 518.23 520.67 518.86L509.56 525.28C508.998 525.593 508.37 525.769 507.728 525.795C507.085 525.821 506.445 525.696 505.86 525.43V525.43Z" fill="#2B303F"/>
<path d="M522.34 535L510.7 528.28C509.75 527.73 509.86 526.77 510.96 526.14L522.07 519.72C522.634 519.407 523.263 519.231 523.907 519.205C524.551 519.179 525.193 519.304 525.78 519.57L537.43 526.29C538.38 526.84 538.26 527.8 537.16 528.43L526.05 534.85C525.486 535.163 524.857 535.339 524.213 535.365C523.569 535.392 522.927 535.266 522.34 535V535Z" fill="#2B303F"/>
<path d="M538.83 544.47L527.18 537.75C526.23 537.2 526.35 536.24 527.45 535.61L538.56 529.19C539.124 528.877 539.753 528.701 540.397 528.675C541.041 528.649 541.683 528.774 542.27 529.04L553.91 535.76C554.86 536.31 554.74 537.27 553.65 537.9L542.53 544.31C541.97 544.627 541.342 544.806 540.699 544.834C540.056 544.862 539.416 544.737 538.83 544.47Z" fill="#2B303F"/>
<path d="M555.31 554L543.67 547.27C542.72 546.72 542.84 545.77 543.93 545.13L555.05 538.72C555.61 538.403 556.238 538.224 556.881 538.196C557.524 538.168 558.164 538.293 558.75 538.56L570.4 545.29C571.4 545.84 571.23 546.79 570.13 547.43L559 553.83C558.441 554.145 557.816 554.325 557.175 554.354C556.534 554.384 555.895 554.262 555.31 554V554Z" fill="#2B303F"/>
<path d="M571.8 563.5L560.15 556.78C559.2 556.23 559.32 555.27 560.42 554.64L571.53 548.23C572.092 547.913 572.721 547.734 573.366 547.706C574.01 547.678 574.653 547.803 575.24 548.07L586.88 554.8C587.83 555.34 587.71 556.3 586.62 556.94L575.51 563.35C574.946 563.663 574.317 563.839 573.673 563.865C573.029 563.891 572.387 563.766 571.8 563.5V563.5Z" fill="#2B303F"/>
<path d="M588.28 573L576.64 566.28C575.69 565.73 575.81 564.77 576.9 564.14L588 557.74C588.562 557.427 589.19 557.251 589.832 557.225C590.475 557.199 591.115 557.324 591.7 557.59L603.35 564.31C604.3 564.86 604.18 565.82 603.08 566.45L592 572.87C591.433 573.181 590.802 573.355 590.156 573.378C589.509 573.4 588.867 573.271 588.28 573V573Z" fill="#2B303F"/>
<path d="M604.77 582.54L593.12 575.82C592.17 575.27 592.29 574.31 593.39 573.68L604.5 567.26C605.064 566.947 605.693 566.771 606.337 566.745C606.981 566.719 607.623 566.844 608.21 567.11L619.86 573.83C620.81 574.38 620.69 575.34 619.59 575.97L608.48 582.39C607.916 582.703 607.287 582.879 606.643 582.905C605.999 582.931 605.357 582.806 604.77 582.54Z" fill="#2B303F"/>
<path d="M621.26 592.06L609.61 585.34C608.66 584.79 608.78 583.83 609.88 583.2L621 576.78C621.564 576.467 622.193 576.291 622.837 576.265C623.481 576.239 624.123 576.364 624.71 576.63L636.35 583.35C637.35 583.9 637.18 584.86 636.08 585.49L625 591.91C624.433 592.229 623.798 592.409 623.148 592.435C622.498 592.462 621.851 592.333 621.26 592.06V592.06Z" fill="#2B303F"/>
<path d="M637.74 601.58L626.1 594.85C625.1 594.3 625.26 593.35 626.36 592.71L637.47 586.3C638.033 585.986 638.662 585.807 639.306 585.78C639.95 585.752 640.592 585.875 641.18 586.14L652.83 592.87C653.78 593.42 653.66 594.37 652.56 595.01L641.45 601.42C640.888 601.737 640.259 601.916 639.614 601.944C638.97 601.972 638.327 601.847 637.74 601.58V601.58Z" fill="#2B303F"/>
<path d="M662.17 615.68L642.58 604.37C641.63 603.82 641.75 602.86 642.85 602.23L654 595.82C654.562 595.503 655.191 595.324 655.836 595.296C656.481 595.268 657.123 595.393 657.71 595.66L677.25 607C678.2 607.55 678.08 608.51 676.99 609.14L665.87 615.56C665.306 615.868 664.677 616.039 664.034 616.06C663.392 616.081 662.753 615.951 662.17 615.68V615.68Z" fill="#2B303F"/>
<path d="M448.39 510.7L436.74 504C435.74 503.45 435.91 502.49 437.01 501.86L448.12 495.44C448.684 495.127 449.313 494.951 449.957 494.925C450.601 494.899 451.243 495.024 451.83 495.29L463.47 502C464.42 502.55 464.3 503.51 463.21 504.14L452.09 510.56C451.527 510.871 450.899 511.046 450.257 511.07C449.614 511.095 448.975 510.968 448.39 510.7V510.7Z" fill="#2B303F"/>
<path d="M464.9 520.24L453.26 513.52C452.31 512.97 452.43 512.01 453.52 511.38L464.64 505C465.202 504.687 465.83 504.511 466.472 504.485C467.115 504.459 467.755 504.584 468.34 504.85L480 511.53C480.95 512.08 480.83 513.04 479.73 513.67L468.62 520.09C468.055 520.404 467.424 520.582 466.778 520.608C466.132 520.634 465.489 520.508 464.9 520.24V520.24Z" fill="#2B303F"/>
<path d="M481.42 529.77L469.77 523.05C468.77 522.5 468.94 521.54 470.04 520.91L481.15 514.49C481.714 514.177 482.343 514.001 482.987 513.975C483.631 513.949 484.273 514.074 484.86 514.34L496.5 521.06C497.45 521.61 497.33 522.57 496.24 523.2L485.12 529.62C484.558 529.933 483.93 530.109 483.288 530.135C482.645 530.161 482.005 530.036 481.42 529.77V529.77Z" fill="#2B303F"/>
<path d="M497.93 539.31L486.28 532.58C485.33 532.04 485.45 531.08 486.55 530.44L497.66 524C498.223 523.686 498.852 523.507 499.496 523.48C500.14 523.452 500.782 523.575 501.37 523.84L513 530.6C513.95 531.15 513.83 532.1 512.73 532.74L501.62 539.15C501.06 539.463 500.435 539.641 499.794 539.669C499.153 539.697 498.515 539.574 497.93 539.31V539.31Z" fill="#2B303F"/>
<path d="M514.31 548.77L502.67 542C501.72 541.45 501.84 540.5 502.93 539.86L514.05 533.45C514.61 533.133 515.238 532.954 515.881 532.926C516.524 532.898 517.164 533.023 517.75 533.29L529.4 540.02C530.4 540.56 530.23 541.52 529.13 542.16L518 548.61C517.44 548.921 516.814 549.098 516.174 549.125C515.533 549.153 514.895 549.032 514.31 548.77Z" fill="#2B303F"/>
<path d="M530.83 558.3L519.18 551.58C518.23 551.03 518.35 550.07 519.45 549.44L530.56 543C531.124 542.687 531.753 542.511 532.397 542.485C533.041 542.459 533.683 542.584 534.27 542.85L545.91 549.57C546.86 550.12 546.74 551.08 545.65 551.71L534.53 558.13C533.97 558.446 533.343 558.626 532.7 558.655C532.058 558.685 531.417 558.563 530.83 558.3Z" fill="#2B303F"/>
<path d="M547.34 567.83L535.69 561.11C534.74 560.56 534.86 559.6 535.96 558.97L547.07 552.56C547.632 552.243 548.261 552.064 548.906 552.036C549.551 552.008 550.193 552.133 550.78 552.4L562.43 559.13C563.38 559.67 563.26 560.63 562.16 561.27L551.05 567.68C550.486 567.993 549.857 568.169 549.213 568.195C548.569 568.221 547.927 568.096 547.34 567.83Z" fill="#2B303F"/>
<path d="M563.85 577.37L552.21 570.65C551.26 570.1 551.38 569.14 552.48 568.51L563.59 562.09C564.152 561.777 564.78 561.601 565.422 561.575C566.065 561.549 566.705 561.674 567.29 561.94L578.94 568.66C579.89 569.21 579.77 570.17 578.67 570.8L567.56 577.22C566.996 577.533 566.367 577.709 565.723 577.735C565.079 577.761 564.437 577.636 563.85 577.37Z" fill="#2B303F"/>
<path d="M580.37 586.9L568.72 580.18C567.72 579.63 567.89 578.67 568.99 578.04L580.1 571.62C580.664 571.307 581.293 571.131 581.937 571.105C582.581 571.079 583.223 571.204 583.81 571.47L595.45 578.19C596.4 578.74 596.29 579.7 595.19 580.33L584.08 586.75C583.516 587.063 582.887 587.239 582.243 587.265C581.599 587.292 580.957 587.166 580.37 586.9V586.9Z" fill="#2B303F"/>
<path d="M596.88 596.44L585.24 589.71C584.29 589.17 584.41 588.21 585.5 587.57L596.62 581.16C597.182 580.848 597.809 580.671 598.451 580.643C599.093 580.615 599.733 580.738 600.32 581L612 587.73C612.95 588.28 612.83 589.24 611.73 589.87L600.62 596.28C600.054 596.602 599.42 596.784 598.769 596.812C598.119 596.84 597.471 596.712 596.88 596.44Z" fill="#2B303F"/>
<path d="M613.4 606L601.75 599.28C600.8 598.73 600.92 597.77 602.02 597.14L613.13 590.72C613.694 590.407 614.323 590.231 614.967 590.205C615.611 590.179 616.253 590.304 616.84 590.57L628.48 597.29C629.43 597.84 629.31 598.8 628.22 599.43L617.1 605.85C616.538 606.163 615.91 606.339 615.268 606.365C614.625 606.391 613.985 606.266 613.4 606Z" fill="#2B303F"/>
<path d="M629.91 615.51L618.27 608.78C617.32 608.23 617.43 607.28 618.53 606.64L629.64 600.23C630.203 599.916 630.832 599.737 631.476 599.709C632.12 599.682 632.762 599.805 633.35 600.07L645 606.8C645.95 607.35 645.83 608.3 644.73 608.94L633.62 615.35C633.058 615.667 632.429 615.846 631.784 615.874C631.139 615.902 630.497 615.777 629.91 615.51Z" fill="#2B303F"/>
<path d="M431.87 501.17L412.29 489.86C411.34 489.31 411.46 488.36 412.55 487.72L423.67 481.31C424.23 480.993 424.858 480.814 425.501 480.786C426.144 480.758 426.784 480.883 427.37 481.15L447 492.46C447.95 493.01 447.83 493.97 446.73 494.6L435.58 501C435.018 501.316 434.389 501.496 433.745 501.526C433.101 501.555 432.459 501.433 431.87 501.17V501.17Z" fill="#2B303F"/>
<path d="M661.37 616.29L649.73 609.57C649.194 609.296 648.602 609.153 648 609.153C647.398 609.153 646.806 609.296 646.27 609.57L634.53 616.35C633.53 616.9 633.53 617.79 634.53 618.35L635.46 618.89C636.34 619.39 636.33 620.22 635.46 620.73L623 627.89C622 628.45 622 629.34 623 629.89L630.41 634.17C630.945 634.441 631.536 634.583 632.135 634.583C632.734 634.583 633.325 634.441 633.86 634.17L645.48 627.47L647.88 626.08L649.61 625.08L651.35 624.08L661.35 618.31C662.32 617.73 662.32 616.84 661.37 616.29Z" fill="#2B303F"/>
<path d="M376.06 524.3L364.42 517.58C363.42 517.03 363.59 516.07 364.68 515.44L375.8 509C376.362 508.687 376.99 508.511 377.632 508.485C378.275 508.459 378.915 508.584 379.5 508.85L391.15 515.57C392.1 516.12 391.98 517.08 390.88 517.71L379.77 524.13C379.208 524.446 378.579 524.626 377.935 524.656C377.291 524.685 376.649 524.563 376.06 524.3V524.3Z" fill="#2B303F"/>
<path d="M392.5 533.79L380.86 527.07C379.86 526.52 380.03 525.56 381.12 524.93L392.24 518.51C392.802 518.197 393.43 518.021 394.072 517.995C394.715 517.969 395.355 518.094 395.94 518.36L407.59 525.08C408.54 525.63 408.42 526.59 407.32 527.22L396.21 533.64C395.646 533.953 395.017 534.129 394.373 534.155C393.729 534.181 393.087 534.056 392.5 533.79V533.79Z" fill="#2B303F"/>
<path d="M408.94 543.28L397.3 536.56C396.3 536.01 396.46 535.05 397.56 534.42L408.67 528C409.234 527.687 409.863 527.511 410.507 527.485C411.151 527.459 411.793 527.584 412.38 527.85L424 534.57C424.95 535.12 424.83 536.08 423.73 536.71L412.62 543.13C412.06 543.438 411.436 543.612 410.798 543.638C410.159 543.664 409.523 543.541 408.94 543.28V543.28Z" fill="#2B303F"/>
<path d="M548.94 624.11L537.29 617.38C536.29 616.84 536.46 615.88 537.56 615.24L548.67 608.83C549.233 608.516 549.862 608.337 550.506 608.309C551.15 608.282 551.792 608.405 552.38 608.67L564 615.4C565 615.95 564.83 616.9 563.73 617.54L552.64 624C552.076 624.309 551.446 624.48 550.803 624.499C550.16 624.518 549.522 624.385 548.94 624.11V624.11Z" fill="#2B303F"/>
<path d="M565.37 633.6L553.73 626.88C552.73 626.33 552.9 625.37 553.99 624.74L565.11 618.32C565.672 618.007 566.3 617.831 566.942 617.805C567.585 617.779 568.225 617.904 568.81 618.17L580.46 624.89C581.46 625.44 581.29 626.4 580.19 627.03L569.08 633.45C568.516 633.763 567.887 633.939 567.243 633.965C566.599 633.991 565.957 633.866 565.37 633.6Z" fill="#2B303F"/>
<path d="M581.81 643.09L570.17 636.37C569.22 635.82 569.34 634.86 570.43 634.23L581.55 627.81C582.112 627.497 582.74 627.321 583.382 627.295C584.025 627.269 584.665 627.394 585.25 627.66L596.9 634.38C597.9 634.93 597.73 635.89 596.63 636.52L585.52 642.94C584.956 643.253 584.327 643.429 583.683 643.455C583.039 643.481 582.397 643.356 581.81 643.09Z" fill="#2B303F"/>
<path d="M598.25 652.58L586.61 645.86C585.66 645.31 585.78 644.35 586.87 643.72L598 637.3C598.562 636.987 599.19 636.811 599.832 636.785C600.475 636.759 601.115 636.884 601.7 637.15L613.35 643.87C614.35 644.42 614.18 645.38 613.08 646.01L602 652.43C601.431 652.749 600.795 652.929 600.143 652.956C599.491 652.982 598.843 652.853 598.25 652.58V652.58Z" fill="#2B303F"/>
<path d="M429.61 555.22L413.73 546.05C412.78 545.5 412.9 544.54 414 543.91L425.11 537.49C425.674 537.177 426.303 537.001 426.947 536.975C427.591 536.949 428.233 537.074 428.82 537.34L444.7 546.51C445.7 547.06 445.53 548.01 444.43 548.65L433.32 555.06C432.758 555.377 432.129 555.556 431.484 555.584C430.839 555.612 430.197 555.487 429.61 555.22Z" fill="#2B303F"/>
<path d="M532.5 614.62L516.62 605.45C515.62 604.9 515.79 603.94 516.88 603.31L528 596.89C528.562 596.577 529.19 596.401 529.832 596.375C530.475 596.349 531.115 596.474 531.7 596.74L547.58 605.91C548.53 606.46 548.41 607.41 547.32 608.05L536.2 614.46C535.64 614.777 535.012 614.956 534.369 614.984C533.726 615.012 533.086 614.887 532.5 614.62Z" fill="#2B303F"/>
<path d="M511.82 602.68L434.41 558C433.46 557.45 433.58 556.49 434.67 555.86L445.79 549.44C446.352 549.127 446.98 548.951 447.622 548.925C448.265 548.899 448.905 549.024 449.49 549.29L526.91 594C527.86 594.55 527.74 595.51 526.64 596.14L515.53 602.56C514.964 602.868 514.333 603.039 513.689 603.06C513.045 603.081 512.405 602.951 511.82 602.68V602.68Z" fill="#2B303F"/>
<path d="M436.89 522.52L425.25 515.8C424.3 515.25 424.42 514.29 425.52 513.66L436.63 507.24C437.192 506.927 437.82 506.751 438.462 506.725C439.105 506.699 439.745 506.824 440.33 507.09L452 513.81C453 514.36 452.83 515.32 451.73 515.95L440.62 522.37C440.054 522.686 439.421 522.864 438.773 522.89C438.125 522.917 437.48 522.79 436.89 522.52Z" fill="#2B303F"/>
<path d="M453.36 532L441.72 525.27C440.77 524.72 440.89 523.77 441.98 523.13L453.1 516.72C453.661 516.406 454.288 516.227 454.931 516.2C455.574 516.172 456.214 516.295 456.8 516.56L468.45 523.29C469.45 523.84 469.28 524.79 468.18 525.43L457.07 531.84C456.508 532.157 455.879 532.336 455.234 532.364C454.589 532.392 453.947 532.267 453.36 532V532Z" fill="#2B303F"/>
<path d="M469.83 541.53L458.18 534.81C457.18 534.26 457.35 533.3 458.45 532.67L469.56 526.25C470.124 525.937 470.753 525.761 471.397 525.735C472.041 525.709 472.683 525.834 473.27 526.1L484.91 532.82C485.91 533.37 485.75 534.33 484.65 534.96L473.54 541.38C472.976 541.693 472.347 541.869 471.703 541.895C471.059 541.922 470.417 541.796 469.83 541.53Z" fill="#2B303F"/>
<path d="M486.3 551L474.65 544.28C473.65 543.73 473.82 542.77 474.92 542.14L486 535.76C486.564 535.447 487.193 535.271 487.837 535.245C488.481 535.219 489.123 535.344 489.71 535.61L501.35 542.33C502.35 542.88 502.18 543.84 501.09 544.47L490 550.89C489.435 551.196 488.806 551.366 488.163 551.385C487.52 551.404 486.882 551.272 486.3 551V551Z" fill="#2B303F"/>
<path d="M502.76 560.55L491.12 553.83C490.12 553.28 490.29 552.32 491.38 551.69L502.5 545.27C503.062 544.957 503.69 544.781 504.332 544.755C504.975 544.729 505.615 544.854 506.2 545.12L517.85 551.84C518.85 552.39 518.68 553.35 517.58 553.98L506.47 560.4C505.906 560.713 505.277 560.889 504.633 560.915C503.989 560.941 503.347 560.816 502.76 560.55V560.55Z" fill="#2B303F"/>
<path d="M519.23 570.06L507.59 563.33C506.59 562.78 506.75 561.83 507.85 561.19L519 554.78C519.562 554.463 520.191 554.284 520.836 554.256C521.481 554.228 522.123 554.353 522.71 554.62L534.36 561.35C535.31 561.9 535.19 562.85 534.09 563.49L522.98 569.9C522.413 570.223 521.777 570.406 521.124 570.434C520.472 570.462 519.823 570.334 519.23 570.06V570.06Z" fill="#2B303F"/>
<path d="M535.7 579.56L524.05 572.84C523.1 572.29 523.22 571.33 524.32 570.7L535.43 564.28C535.994 563.967 536.623 563.791 537.267 563.765C537.911 563.739 538.553 563.864 539.14 564.13L550.78 570.85C551.78 571.4 551.61 572.36 550.52 572.99L539.4 579.41C538.838 579.723 538.21 579.899 537.568 579.925C536.925 579.951 536.285 579.826 535.7 579.56Z" fill="#2B303F"/>
<path d="M552.17 589.07L540.52 582.35C539.57 581.8 539.69 580.84 540.79 580.21L551.9 573.79C552.464 573.477 553.093 573.301 553.737 573.275C554.381 573.249 555.023 573.374 555.61 573.64L567.25 580.36C568.2 580.91 568.08 581.87 566.98 582.5L555.87 588.92C555.308 589.233 554.68 589.409 554.038 589.435C553.395 589.461 552.755 589.336 552.17 589.07V589.07Z" fill="#2B303F"/>
<path d="M568.63 598.58L557 591.86C556.05 591.31 556.17 590.35 557.26 589.72L568.38 583.3C568.942 582.987 569.57 582.811 570.212 582.785C570.855 582.759 571.495 582.884 572.08 583.15L583.73 589.87C584.68 590.42 584.56 591.38 583.46 592.01L572.35 598.43C571.785 598.744 571.154 598.922 570.508 598.948C569.862 598.974 569.219 598.848 568.63 598.58V598.58Z" fill="#2B303F"/>
<path d="M585.1 608.09L573.45 601.36C572.5 600.81 572.62 599.86 573.72 599.22L584.83 592.81C585.392 592.493 586.021 592.314 586.666 592.286C587.311 592.258 587.953 592.383 588.54 592.65L600.19 599.38C601.14 599.92 601.02 600.88 599.92 601.52L588.81 607.93C588.247 608.244 587.618 608.423 586.974 608.45C586.33 608.478 585.688 608.355 585.1 608.09Z" fill="#2B303F"/>
<path d="M601.57 617.59L589.92 610.87C588.97 610.32 589.09 609.36 590.19 608.73L601.3 602.31C601.864 601.997 602.493 601.821 603.137 601.795C603.781 601.769 604.423 601.894 605.01 602.16L616.65 608.88C617.65 609.43 617.48 610.39 616.39 611.02L605.27 617.44C604.708 617.753 604.08 617.929 603.438 617.955C602.795 617.981 602.155 617.856 601.57 617.59V617.59Z" fill="#2B303F"/>
<path d="M618 627.1L606.36 620.38C605.41 619.83 605.53 618.87 606.63 618.24L617.74 611.82C618.302 611.507 618.93 611.331 619.572 611.305C620.215 611.279 620.855 611.404 621.44 611.67L633.09 618.39C634.04 618.94 633.92 619.9 632.82 620.53L621.74 627C621.168 627.31 620.532 627.48 619.882 627.498C619.232 627.515 618.587 627.379 618 627.1V627.1Z" fill="#2B303F"/>
<path d="M420.43 513L396.34 499.1C395.34 498.55 395.51 497.59 396.61 496.96L407.72 490.54C408.284 490.227 408.913 490.051 409.557 490.025C410.201 489.999 410.843 490.124 411.43 490.39L435.51 504.29C436.51 504.84 436.34 505.8 435.25 506.43L424.13 512.85C423.568 513.163 422.94 513.339 422.298 513.365C421.655 513.391 421.015 513.266 420.43 513V513Z" fill="#2B303F"/>
<path d="M412.74 527L401.1 520.3C400.15 519.75 400.26 518.8 401.36 518.16L412.47 511.75C413.032 511.433 413.661 511.254 414.306 511.226C414.951 511.198 415.593 511.323 416.18 511.59L427.83 518.32C428.78 518.86 428.66 519.82 427.56 520.46L416.45 526.87C415.885 527.18 415.255 527.353 414.61 527.375C413.966 527.398 413.326 527.269 412.74 527V527Z" fill="#2B303F"/>
<path d="M429.21 536.53L417.56 529.81C416.61 529.26 416.73 528.3 417.83 527.67L428.94 521.25C429.504 520.937 430.133 520.761 430.777 520.735C431.421 520.709 432.063 520.834 432.65 521.1L444.29 527.82C445.29 528.37 445.12 529.33 444.03 529.96L432.91 536.38C432.348 536.693 431.72 536.869 431.078 536.895C430.435 536.921 429.795 536.796 429.21 536.53V536.53Z" fill="#2B303F"/>
<path d="M445.67 546L434 539.31C433 538.76 433.17 537.81 434.27 537.17L445.38 530.76C445.943 530.446 446.572 530.267 447.216 530.239C447.86 530.212 448.502 530.335 449.09 530.6L460.74 537.33C461.74 537.88 461.57 538.83 460.47 539.47L449.36 545.88C448.797 546.187 448.17 546.358 447.529 546.379C446.888 546.4 446.252 546.27 445.67 546Z" fill="#2B303F"/>
<path d="M462.13 555.54L450.49 548.82C449.49 548.27 449.66 547.31 450.76 546.68L461.87 540.26C462.432 539.947 463.059 539.771 463.702 539.745C464.345 539.719 464.985 539.844 465.57 540.11L477.22 546.83C478.17 547.38 478.05 548.34 476.95 548.97L465.84 555.39C465.276 555.703 464.647 555.879 464.003 555.905C463.359 555.931 462.717 555.806 462.13 555.54V555.54Z" fill="#2B303F"/>
<path d="M478.6 565.05L467 558.33C466.05 557.78 466.17 556.82 467.27 556.19L478.38 549.77C478.944 549.457 479.573 549.281 480.217 549.255C480.861 549.229 481.503 549.354 482.09 549.62L493.73 556.34C494.68 556.89 494.57 557.85 493.47 558.48L482.36 564.89C481.792 565.215 481.154 565.399 480.499 565.427C479.845 565.455 479.194 565.325 478.6 565.05Z" fill="#2B303F"/>
<path d="M495.06 574.55L483.42 567.83C482.47 567.28 482.59 566.32 483.68 565.69L494.8 559.27C495.362 558.957 495.99 558.781 496.632 558.755C497.275 558.729 497.915 558.854 498.5 559.12L510.15 565.84C511.1 566.39 510.98 567.35 509.88 567.98L498.77 574.4C498.206 574.713 497.577 574.889 496.933 574.915C496.289 574.941 495.647 574.816 495.06 574.55V574.55Z" fill="#2B303F"/>
<path d="M511.53 584.06L499.88 577.34C498.93 576.79 499.05 575.83 500.15 575.2L511.26 568.78C511.824 568.467 512.453 568.291 513.097 568.265C513.741 568.239 514.383 568.364 514.97 568.63L526.61 575.35C527.56 575.9 527.44 576.86 526.35 577.49L515.24 583.91C514.676 584.223 514.047 584.399 513.403 584.425C512.759 584.452 512.117 584.326 511.53 584.06V584.06Z" fill="#2B303F"/>
<path d="M528 593.57L516.36 586.84C515.41 586.29 515.53 585.34 516.62 584.7L527.74 578.29C528.3 577.973 528.928 577.794 529.571 577.766C530.214 577.738 530.854 577.863 531.44 578.13L543.09 584.86C544.04 585.4 543.92 586.36 542.82 587L531.71 593.41C531.147 593.724 530.518 593.903 529.874 593.93C529.23 593.958 528.588 593.835 528 593.57Z" fill="#2B303F"/>
<path d="M544.46 603.07L532.81 596.35C531.86 595.8 531.98 594.84 533.08 594.21L544.19 587.79C544.754 587.477 545.383 587.301 546.027 587.275C546.671 587.249 547.313 587.374 547.9 587.64L559.54 594.36C560.49 594.91 560.37 595.87 559.28 596.5L548.16 602.92C547.598 603.233 546.97 603.409 546.328 603.435C545.685 603.461 545.045 603.336 544.46 603.07V603.07Z" fill="#2B303F"/>
<path d="M560.92 612.58L549.28 605.85C548.33 605.31 548.45 604.35 549.54 603.71L560.66 597.3C561.221 596.986 561.848 596.807 562.491 596.78C563.134 596.752 563.774 596.875 564.36 597.14L576 603.87C576.95 604.42 576.83 605.37 575.73 606.01L564.62 612.42C564.059 612.735 563.432 612.914 562.789 612.942C562.146 612.969 561.506 612.845 560.92 612.58Z" fill="#2B303F"/>
<path d="M577.39 622.08L565.74 615.36C564.79 614.81 564.91 613.85 566.01 613.22L577.12 606.8C577.684 606.487 578.313 606.311 578.957 606.285C579.601 606.259 580.243 606.384 580.83 606.65L592.47 613.37C593.42 613.92 593.3 614.88 592.21 615.51L581.09 621.93C580.528 622.243 579.9 622.419 579.258 622.445C578.615 622.471 577.975 622.346 577.39 622.08V622.08Z" fill="#2B303F"/>
<path d="M614.23 643.36L582.23 624.87C581.28 624.32 581.39 623.36 582.49 622.73L593.6 616.31C594.164 615.997 594.793 615.821 595.437 615.795C596.081 615.769 596.723 615.894 597.31 616.16L629.31 634.65C630.26 635.19 630.14 636.15 629.04 636.79L617.93 643.2C617.368 643.513 616.741 643.69 616.099 643.718C615.457 643.746 614.817 643.623 614.23 643.36V643.36Z" fill="#2B303F"/>
<path d="M396.28 517.52L380.4 508.35C379.4 507.8 379.57 506.84 380.66 506.21L391.78 499.8C392.34 499.483 392.968 499.304 393.611 499.276C394.254 499.248 394.894 499.373 395.48 499.64L411.36 508.81C412.31 509.36 412.19 510.32 411.1 510.95L400 517.37C399.435 517.686 398.804 517.864 398.158 517.89C397.512 517.916 396.868 517.79 396.28 517.52Z" fill="#2B303F"/>
<path d="M678.71 606.13L444.87 471.13C443.87 470.59 444.04 469.63 445.14 468.99L450.7 465.79C451.261 465.476 451.888 465.297 452.531 465.27C453.174 465.242 453.814 465.365 454.4 465.63L688.24 600.63C689.19 601.18 689.07 602.13 687.97 602.77L682.42 606C681.855 606.31 681.225 606.483 680.58 606.505C679.936 606.528 679.296 606.399 678.71 606.13V606.13Z" fill="#2B303F"/>
<path d="M533.85 621.48C533.516 622.207 532.945 622.8 532.23 623.16L467.89 660.31C466.807 660.912 465.598 661.252 464.359 661.302C463.121 661.353 461.888 661.112 460.76 660.6L350.76 597.11C350.29 596.866 349.911 596.477 349.68 596C349.28 595 349.84 593.89 351.3 593.05L415.65 555.89C416.733 555.288 417.942 554.948 419.181 554.898C420.419 554.847 421.652 555.088 422.78 555.6L532.78 619.09C533.225 619.283 533.581 619.635 533.779 620.077C533.977 620.52 534.002 621.02 533.85 621.48V621.48Z" fill="#B1B4C4"/>
<path d="M533.85 621.48C533.516 622.207 532.945 622.8 532.23 623.16L467.89 660.31C466.807 660.912 465.598 661.252 464.359 661.302C463.121 661.353 461.888 661.112 460.76 660.6L350.76 597.11C350.29 596.866 349.911 596.477 349.68 596C350.021 595.28 350.59 594.693 351.3 594.33L415.65 557.18C416.733 556.577 417.941 556.236 419.179 556.184C420.417 556.132 421.651 556.37 422.78 556.88L532.78 620.38C533.247 620.62 533.623 621.007 533.85 621.48V621.48Z" fill="#C3C6D1"/>
<path d="M696.51 595.89L462.67 460.89C462.155 460.509 461.736 460.013 461.446 459.442C461.156 458.871 461.003 458.24 461 457.6V454.85C461 453.58 461.77 453 462.72 453.55L696.56 588.55C697.084 588.923 697.513 589.415 697.811 589.985C698.11 590.555 698.271 591.187 698.28 591.83V594.58C698.23 595.86 697.46 596.44 696.51 595.89Z" fill="#2B303F"/>
<path d="M498 447.56L474.9 434.25C472.01 432.58 469.66 428.09 469.66 424.25V399.48C469.66 395.62 472.01 393.85 474.9 395.48L498 408.83C500.9 410.5 503.24 414.99 503.24 418.83V443.6C503.2 447.46 500.86 449.23 498 447.56Z" fill="#E9EAF2"/>
<path d="M497.91 390.83L474.85 377.52C471.96 375.85 469.61 369.02 469.61 365.68V336.76C469.61 332.9 471.96 331.13 474.85 332.76L497.91 346.07C500.81 347.74 503.15 352.23 503.15 356.07V384.99C503.15 388.39 500.81 392.5 497.91 390.83Z" fill="#E9EAF2"/>
<path d="M486.51 371.51C481.82 368.8 478 362.18 478 356.76C478 351.34 481.82 349.13 486.51 351.84C491.2 354.55 495.03 361.17 495.03 366.59C495.03 372.01 491.21 374.22 486.51 371.51ZM486.51 354.36C483.02 352.36 480.18 353.99 480.18 358.02C480.294 360.223 480.927 362.367 482.027 364.278C483.127 366.19 484.663 367.815 486.51 369.02C490.01 371.02 492.85 369.4 492.85 365.37C492.736 363.165 492.103 361.018 491.001 359.104C489.899 357.191 488.36 355.565 486.51 354.36V354.36Z" fill="#8C50FF"/>
<path d="M488.85 367.5L484.99 361.36V356.25L487.17 357.51V361.48L490.29 366.43L488.85 367.5Z" fill="#8C50FF"/>
<path d="M497.88 329.66L474.82 316.35C471.93 314.67 469.58 307.15 469.58 303.8V277.18C469.58 273.84 471.93 272.48 474.82 274.18L497.88 287.5C499.406 288.493 500.676 289.831 501.586 291.407C502.497 292.984 503.022 294.752 503.12 296.57V323.2C503.12 326.51 500.78 331.33 497.88 329.66Z" fill="#E9EAF2"/>
<path d="M486.35 297.75C484.96 296.95 483.84 297.6 483.84 299.21C483.886 300.082 484.138 300.93 484.574 301.686C485.01 302.442 485.619 303.084 486.35 303.56C487.74 304.36 488.87 303.71 488.87 302.11C488.82 301.237 488.566 300.387 488.129 299.63C487.691 298.873 487.082 298.229 486.35 297.75V297.75ZM493.06 298.75L491.06 297.59C490.736 297.369 490.502 297.039 490.4 296.66L489.88 294.55C489.771 294.172 489.534 293.843 489.21 293.62L483.51 290.33C483.23 290.17 482.94 290.24 482.85 290.5L482.33 292C482.304 292.061 482.265 292.114 482.215 292.157C482.165 292.2 482.106 292.231 482.042 292.247C481.978 292.264 481.911 292.265 481.847 292.252C481.782 292.239 481.722 292.211 481.67 292.17L479.67 291.01C478.75 290.47 478 290.91 478 292.01V300.73C478.032 301.31 478.199 301.875 478.489 302.379C478.78 302.883 479.184 303.311 479.67 303.63L493.09 311.38C494.01 311.91 494.77 311.48 494.77 310.38V301.63C494.734 301.045 494.56 300.476 494.263 299.971C493.966 299.465 493.554 299.036 493.06 298.72V298.75ZM486.35 305.53C485.132 304.733 484.117 303.661 483.39 302.399C482.662 301.138 482.241 299.724 482.16 298.27C482.16 295.59 484.04 294.51 486.35 295.85C487.571 296.644 488.587 297.716 489.316 298.978C490.044 300.239 490.463 301.655 490.54 303.11C490.54 305.75 488.67 306.84 486.35 305.5V305.53ZM492.47 301.7C492.302 301.59 492.161 301.443 492.061 301.269C491.96 301.095 491.901 300.9 491.89 300.7C491.89 300.32 492.15 300.17 492.47 300.36C492.64 300.468 492.782 300.615 492.885 300.789C492.987 300.963 493.047 301.159 493.06 301.36C493.06 301.71 492.8 301.86 492.47 301.67V301.7Z" fill="#8C50FF"/>
<path d="M493.63 423.35C493.63 427.86 486.56 433.72 486.56 433.72C486.56 433.72 479.48 419.72 479.48 415.18C479.48 410.64 482.65 408.84 486.56 411.09C488.619 412.434 490.332 414.245 491.56 416.375C492.788 418.505 493.497 420.895 493.63 423.35Z" fill="#8C50FF"/>
<path d="M489.83 424.622C491.638 423.578 491.639 420.196 489.833 417.068C488.027 413.94 485.098 412.25 483.29 413.294C481.482 414.338 481.48 417.72 483.286 420.848C485.092 423.976 488.022 425.666 489.83 424.622Z" fill="#E9EAF2"/>
<path d="M661.13 484L521.52 403.39C519.16 402.04 517.26 398.39 517.26 395.26V301.43C517.26 298.3 519.16 296.86 521.52 298.22L661.13 378.82C663.48 380.18 665.38 383.82 665.38 386.96V480.78C665.38 483.92 663.48 485.36 661.13 484Z" fill="#E9EAF2"/>
<path d="M645 415.79L536.79 353.32C534.17 351.8 532.04 347.74 532.04 344.25V337.18C532.04 333.68 534.17 332.08 536.79 333.59L645 396.06C647.62 397.57 649.74 401.63 649.74 405.13V412.2C649.74 415.7 647.62 417.3 645 415.79Z" fill="white"/>
<path d="M586.15 413.6L536.79 385.1C534.17 383.59 532.04 379.53 532.04 376.03V369C532.04 365.5 534.17 363.9 536.79 365.41L586.15 393.91C588.77 395.42 590.89 399.48 590.89 402.98V410C590.89 413.5 588.77 415.11 586.15 413.6Z" fill="#8C50FF"/>
<path d="M689.86 504.64C689.86 504.64 637.23 516.24 594.68 468.98C552.13 421.72 517.42 427.78 517.42 427.78V457.28L689.86 556.83V504.64Z" fill="url(#paint6_linear_7_510)"/>
<path d="M689.86 504.64C689.86 504.64 637.23 516.24 594.68 468.98C552.13 421.72 517.42 427.78 517.42 427.78" stroke="#CCCEDD" stroke-width="1.06" stroke-miterlimit="10"/>
<path d="M517.19 257.4C515.651 260.152 513.78 262.704 511.62 265C511.02 265.7 506.39 263.93 507.36 263.43C508.33 262.93 511.36 258.71 512.88 255.89C514.152 252.523 515.233 249.088 516.12 245.6C517.07 242.15 517.89 237.09 518.59 234.71C518.769 233.831 519.198 233.022 519.826 232.382C520.455 231.741 521.255 231.296 522.13 231.1C523.8 230.71 524.88 231.17 524.57 233.19C524 236.71 521.27 250.45 517.19 257.4Z" fill="#FFCEA9"/>
<path d="M519.84 311.25C518.41 312.42 516.29 311.35 516.18 311.46C514.495 313.021 512.729 314.493 510.89 315.87C509.99 316.57 508.6 317.51 508.89 318.87C509.34 321.28 513.21 320.54 514.67 319.8C516.13 319.06 517.33 317.8 518.67 316.98C519.67 316.36 520.67 316.05 520.78 314.8C520.87 314.05 520.1 311.22 519.84 311.25Z" fill="#38226D"/>
<path d="M520.76 314.3C520.57 315.49 519.61 315.82 518.63 316.43C517.23 317.3 515.99 318.56 514.53 319.3C513.07 320.04 509.82 320.66 508.87 318.93C509.38 321.26 513.19 320.53 514.63 319.8C516.07 319.07 517.29 317.8 518.63 316.98C519.63 316.36 520.63 316.05 520.74 314.8C520.76 314.634 520.767 314.467 520.76 314.3V314.3Z" fill="#9C73FF"/>
<path d="M505.28 302.86C503.85 304.03 501.34 302.76 501.23 302.86C499.74 304.377 498.161 305.803 496.5 307.13C495.6 307.84 494.21 308.78 494.5 310.13C494.95 312.55 498.82 311.81 500.29 311.07C501.76 310.33 502.94 309.07 504.29 308.24C505.29 307.63 506.29 307.31 506.4 306.07C506.48 305.32 505.54 302.83 505.28 302.86Z" fill="#38226D"/>
<path d="M506.35 305.74C506.16 306.93 505.2 307.26 504.22 307.87C502.82 308.74 501.58 310 500.12 310.74C498.66 311.48 495.4 312.1 494.46 310.37C494.97 312.7 498.77 311.97 500.22 311.24C501.67 310.51 502.87 309.24 504.22 308.41C505.22 307.8 506.22 307.49 506.33 306.24C506.35 306.074 506.357 305.907 506.35 305.74V305.74Z" fill="#9C73FF"/>
<path d="M539 265.24C540.59 275.18 536.18 278.89 530.44 281C526.32 282.52 520.44 284.86 520.44 284.86C520.44 284.86 520.52 287.04 520.56 291.93C520.56 296.24 520.04 311.93 520.04 311.93C519.359 312.28 518.605 312.463 517.84 312.463C517.075 312.463 516.32 312.28 515.64 311.93C515.64 311.93 513.33 299.88 512.84 294.44C512.17 287.07 511.04 282.24 511.42 280.65C511.75 279.25 519.81 275.29 522.37 273.17L505.48 278.83C505.816 280.661 505.98 282.519 505.97 284.38C505.82 290.23 505.49 302.9 505.49 302.9C505.49 302.9 503.18 304.57 501.2 302.9C501.2 302.9 496.95 277.83 497.47 274.51C497.96 271.36 512.84 264.92 515.47 262.7C515.927 262.329 516.457 262.057 517.025 261.904C517.594 261.751 518.188 261.719 518.77 261.81L539 265.24Z" fill="#8C50FF"/>
<path d="M498.54 269.38L509.89 262.83C509.988 262.771 510.1 262.74 510.215 262.74C510.329 262.74 510.442 262.771 510.54 262.83L530.44 274.32L518.77 281.06L498.54 269.38Z" fill="#F4F4F4"/>
<path d="M519.3 278.65L520.17 279.15C520.24 279.15 520.23 279.26 520.17 279.31L519.34 279.79C519.298 279.81 519.252 279.82 519.205 279.82C519.158 279.82 519.112 279.81 519.07 279.79L518.2 279.29C518.13 279.29 518.14 279.18 518.2 279.13L519.03 278.65C519.072 278.63 519.118 278.62 519.165 278.62C519.212 278.62 519.258 278.63 519.3 278.65V278.65Z" fill="#3A2C6D"/>
<path d="M518.08 278L518.94 278.49C519.01 278.49 519 278.61 518.94 278.65L518.12 279.13C518.077 279.152 518.029 279.163 517.98 279.163C517.931 279.163 517.883 279.152 517.84 279.13L516.98 278.63C516.91 278.63 516.92 278.52 516.98 278.47L517.8 278C517.842 277.975 517.891 277.962 517.94 277.962C517.989 277.962 518.037 277.975 518.08 278V278Z" fill="#3A2C6D"/>
<path d="M516.84 277.23L517.7 277.73C517.77 277.73 517.77 277.84 517.7 277.89L516.88 278.36C516.837 278.382 516.789 278.393 516.74 278.393C516.691 278.393 516.643 278.382 516.6 278.36L515.74 277.86C515.67 277.86 515.68 277.75 515.74 277.7L516.56 277.22C516.604 277.2 516.652 277.19 516.701 277.192C516.75 277.193 516.797 277.206 516.84 277.23V277.23Z" fill="#3A2C6D"/>
<path d="M515.63 276.53L516.49 277.03C516.56 277.03 516.56 277.14 516.49 277.19L515.67 277.67C515.626 277.69 515.578 277.7 515.53 277.7C515.482 277.7 515.434 277.69 515.39 277.67L514.53 277.17C514.46 277.17 514.47 277.06 514.53 277.01L515.35 276.53C515.394 276.51 515.442 276.5 515.49 276.5C515.538 276.5 515.586 276.51 515.63 276.53V276.53Z" fill="#3A2C6D"/>
<path d="M514.4 275.82L515.27 276.32C515.34 276.32 515.33 276.44 515.27 276.48L514.44 276.96C514.398 276.982 514.352 276.993 514.305 276.993C514.258 276.993 514.212 276.982 514.17 276.96L513.3 276.46C513.23 276.46 513.24 276.35 513.3 276.3L514.13 275.83C514.171 275.807 514.217 275.793 514.264 275.792C514.311 275.79 514.357 275.8 514.4 275.82Z" fill="#3A2C6D"/>
<path d="M513.18 275.12L514.05 275.62C514.12 275.62 514.11 275.73 514.05 275.78L513.22 276.25C513.178 276.272 513.132 276.283 513.085 276.283C513.038 276.283 512.992 276.272 512.95 276.25L512.08 275.75C512.01 275.75 512.02 275.64 512.08 275.6L512.91 275.12C512.952 275.098 512.998 275.087 513.045 275.087C513.092 275.087 513.138 275.098 513.18 275.12V275.12Z" fill="#3A2C6D"/>
<path d="M512 274.41L512.86 274.91C512.93 274.91 512.92 275.02 512.86 275.07L512.04 275.55C511.996 275.57 511.948 275.58 511.9 275.58C511.852 275.58 511.804 275.57 511.76 275.55L510.9 275.05C510.83 275.05 510.83 274.94 510.9 274.89L511.72 274.41C511.764 274.39 511.812 274.38 511.86 274.38C511.908 274.38 511.956 274.39 512 274.41V274.41Z" fill="#3A2C6D"/>
<path d="M510.73 273.7L511.6 274.2C511.67 274.2 511.66 274.32 511.6 274.36L510.77 274.84C510.728 274.862 510.682 274.873 510.635 274.873C510.588 274.873 510.542 274.862 510.5 274.84L509.63 274.34C509.56 274.34 509.57 274.23 509.63 274.18L510.46 273.71C510.501 273.687 510.547 273.673 510.594 273.672C510.641 273.67 510.687 273.68 510.73 273.7V273.7Z" fill="#3A2C6D"/>
<path d="M509.51 273L510.37 273.5C510.44 273.5 510.43 273.61 510.37 273.66L509.55 274.13C509.507 274.152 509.459 274.163 509.41 274.163C509.361 274.163 509.313 274.152 509.27 274.13L508.41 273.63C508.34 273.63 508.35 273.52 508.41 273.48L509.23 273C509.273 272.978 509.321 272.967 509.37 272.967C509.419 272.967 509.466 272.978 509.51 273V273Z" fill="#3A2C6D"/>
<path d="M508.28 272.29L509.15 272.79C509.22 272.79 509.21 272.9 509.15 272.95L508.32 273.43C508.278 273.45 508.232 273.46 508.185 273.46C508.138 273.46 508.092 273.45 508.05 273.43L507.18 272.93C507.11 272.93 507.12 272.82 507.18 272.77L508.01 272.29C508.052 272.268 508.098 272.257 508.145 272.257C508.192 272.257 508.238 272.268 508.28 272.29V272.29Z" fill="#3A2C6D"/>
<path d="M507.06 271.58L507.92 272.08C507.99 272.08 507.99 272.19 507.92 272.24L507.1 272.72C507.057 272.742 507.009 272.753 506.96 272.753C506.911 272.753 506.863 272.742 506.82 272.72L505.96 272.22C505.89 272.22 505.9 272.11 505.96 272.06L506.78 271.59C506.823 271.566 506.87 271.553 506.919 271.552C506.967 271.55 507.016 271.56 507.06 271.58V271.58Z" fill="#3A2C6D"/>
<path d="M505.84 270.88L506.7 271.38C506.77 271.38 506.76 271.49 506.7 271.54L505.87 272.01C505.828 272.032 505.782 272.043 505.735 272.043C505.688 272.043 505.642 272.032 505.6 272.01L504.73 271.51C504.66 271.51 504.67 271.4 504.73 271.35L505.56 270.88C505.603 270.858 505.651 270.847 505.7 270.847C505.749 270.847 505.797 270.858 505.84 270.88V270.88Z" fill="#3A2C6D"/>
<path d="M504.61 270.17L505.48 270.67C505.55 270.67 505.54 270.78 505.48 270.83L504.65 271.3C504.608 271.322 504.562 271.333 504.515 271.333C504.468 271.333 504.422 271.322 504.38 271.3L503.51 270.8C503.44 270.8 503.45 270.68 503.51 270.64L504.34 270.16C504.382 270.14 504.429 270.13 504.476 270.132C504.523 270.133 504.569 270.147 504.61 270.17V270.17Z" fill="#3A2C6D"/>
<path d="M502.8 269.12L504.25 269.96C504.32 269.96 504.31 270.07 504.25 270.12L503.43 270.6C503.386 270.62 503.338 270.63 503.29 270.63C503.242 270.63 503.194 270.62 503.15 270.6L501.7 269.76C501.63 269.76 501.63 269.65 501.7 269.6L502.52 269.12C502.564 269.1 502.612 269.09 502.66 269.09C502.708 269.09 502.756 269.1 502.8 269.12V269.12Z" fill="#3A2C6D"/>
<path d="M518.67 276.92L519.54 277.42C519.61 277.42 519.6 277.53 519.54 277.58L518.71 278.05C518.669 278.075 518.623 278.088 518.575 278.088C518.527 278.088 518.481 278.075 518.44 278.05L517.57 277.56C517.5 277.56 517.51 277.44 517.57 277.4L518.4 276.92C518.442 276.898 518.488 276.887 518.535 276.887C518.582 276.887 518.628 276.898 518.67 276.92V276.92Z" fill="#3A2C6D"/>
<path d="M517.45 276.21L518.31 276.71C518.38 276.71 518.37 276.82 518.31 276.87L517.49 277.35C517.446 277.37 517.398 277.38 517.35 277.38C517.302 277.38 517.254 277.37 517.21 277.35L516.35 276.85C516.28 276.85 516.28 276.74 516.35 276.69L517.17 276.21C517.213 276.188 517.261 276.177 517.31 276.177C517.359 276.177 517.407 276.188 517.45 276.21V276.21Z" fill="#3A2C6D"/>
<path d="M516.22 275.5L517.08 276C517.16 276 517.15 276.11 517.08 276.16L516.26 276.64C516.216 276.66 516.168 276.67 516.12 276.67C516.072 276.67 516.024 276.66 515.98 276.64L515.12 276.14C515.05 276.14 515.06 276.03 515.12 275.98L515.94 275.5C515.984 275.48 516.032 275.47 516.08 275.47C516.128 275.47 516.176 275.48 516.22 275.5V275.5Z" fill="#3A2C6D"/>
<path d="M515 274.79L515.87 275.29C515.94 275.29 515.93 275.41 515.87 275.45L515.04 275.93C514.998 275.952 514.952 275.963 514.905 275.963C514.858 275.963 514.812 275.952 514.77 275.93L513.9 275.43C513.83 275.43 513.84 275.32 513.9 275.27L514.73 274.8C514.771 274.777 514.817 274.763 514.864 274.762C514.911 274.76 514.957 274.77 515 274.79Z" fill="#3A2C6D"/>
<path d="M513.78 274.09L514.64 274.59C514.71 274.59 514.7 274.7 514.64 274.75L513.82 275.23C513.776 275.25 513.728 275.26 513.68 275.26C513.632 275.26 513.584 275.25 513.54 275.23L512.68 274.73C512.61 274.73 512.61 274.62 512.68 274.57L513.5 274.09C513.544 274.07 513.592 274.06 513.64 274.06C513.688 274.06 513.736 274.07 513.78 274.09Z" fill="#3A2C6D"/>
<path d="M512.55 273.38L513.42 273.88C513.49 273.88 513.48 274 513.42 274.04L512.59 274.52C512.548 274.542 512.502 274.553 512.455 274.553C512.408 274.553 512.362 274.542 512.32 274.52L511.45 274.02C511.38 274.02 511.39 273.91 511.45 273.86L512.28 273.39C512.321 273.367 512.367 273.353 512.414 273.352C512.461 273.35 512.508 273.36 512.55 273.38V273.38Z" fill="#3A2C6D"/>
<path d="M511.32 272.68L512.19 273.18C512.26 273.18 512.25 273.29 512.19 273.33L511.36 273.81C511.318 273.832 511.272 273.843 511.225 273.843C511.178 273.843 511.132 273.832 511.09 273.81L510.22 273.31C510.15 273.31 510.16 273.2 510.22 273.15L511.05 272.68C511.092 272.658 511.138 272.647 511.185 272.647C511.232 272.647 511.278 272.658 511.32 272.68V272.68Z" fill="#3A2C6D"/>
<path d="M510.1 272L510.96 272.5C511.03 272.5 511.02 272.61 510.96 272.66L510.14 273.13C510.097 273.152 510.049 273.163 510 273.163C509.951 273.163 509.903 273.152 509.86 273.13L509 272.63C508.93 272.63 508.94 272.52 509 272.48L509.82 272C509.863 271.978 509.911 271.967 509.96 271.967C510.009 271.967 510.057 271.978 510.1 272V272Z" fill="#3A2C6D"/>
<path d="M508.87 271.26L509.74 271.76C509.81 271.76 509.8 271.87 509.74 271.92L508.91 272.39C508.868 272.412 508.822 272.423 508.775 272.423C508.728 272.423 508.682 272.412 508.64 272.39L507.77 271.89C507.7 271.89 507.71 271.77 507.77 271.73L508.6 271.25C508.642 271.23 508.689 271.22 508.736 271.222C508.783 271.223 508.829 271.237 508.87 271.26Z" fill="#3A2C6D"/>
<path d="M507.65 270.55L508.51 271.05C508.58 271.05 508.57 271.16 508.51 271.21L507.68 271.69C507.638 271.71 507.592 271.72 507.545 271.72C507.498 271.72 507.452 271.71 507.41 271.69L506.54 271.19C506.47 271.19 506.48 271.08 506.54 271.03L507.37 270.55C507.414 270.53 507.462 270.52 507.51 270.52C507.558 270.52 507.606 270.53 507.65 270.55V270.55Z" fill="#3A2C6D"/>
<path d="M506.42 269.84L507.28 270.34C507.35 270.34 507.35 270.45 507.28 270.5L506.46 270.98C506.417 271.002 506.369 271.013 506.32 271.013C506.271 271.013 506.223 271.002 506.18 270.98L505.32 270.48C505.25 270.48 505.26 270.37 505.32 270.32L506.14 269.84C506.184 269.82 506.232 269.81 506.28 269.81C506.328 269.81 506.376 269.82 506.42 269.84V269.84Z" fill="#3A2C6D"/>
<path d="M505.19 269.14L506.06 269.63C506.13 269.63 506.12 269.75 506.06 269.79L505.23 270.27C505.188 270.292 505.142 270.303 505.095 270.303C505.048 270.303 505.002 270.292 504.96 270.27L504.09 269.77C504.02 269.77 504.03 269.66 504.09 269.61L504.92 269.14C504.961 269.115 505.007 269.102 505.055 269.102C505.103 269.102 505.149 269.115 505.19 269.14V269.14Z" fill="#3A2C6D"/>
<path d="M519.9 277.63L521.35 278.47C521.42 278.47 521.42 278.58 521.35 278.63L520.53 279.1C520.487 279.122 520.439 279.133 520.39 279.133C520.341 279.133 520.293 279.122 520.25 279.1L518.8 278.26C518.73 278.26 518.74 278.15 518.8 278.1L519.62 277.63C519.663 277.608 519.711 277.597 519.76 277.597C519.809 277.597 519.857 277.608 519.9 277.63Z" fill="#3A2C6D"/>
<path d="M502.86 269.08L503.72 269.58C503.76 269.6 503.805 269.61 503.85 269.61C503.895 269.61 503.939 269.6 503.98 269.58L504.85 269.07C504.865 269.064 504.878 269.054 504.888 269.041C504.897 269.027 504.902 269.011 504.902 268.995C504.902 268.979 504.897 268.963 504.888 268.949C504.878 268.936 504.865 268.926 504.85 268.92H504.78C504.72 268.92 504.72 268.83 504.78 268.79L505.7 268.26C505.78 268.26 505.78 268.15 505.7 268.11L505.15 267.79C505.109 267.77 505.065 267.76 505.02 267.76C504.975 267.76 504.93 267.77 504.89 267.79L504.03 268.29L503.85 268.39L503.72 268.47L503.59 268.54L502.85 268.97C502.837 268.986 502.831 269.007 502.833 269.027C502.835 269.047 502.844 269.066 502.86 269.08Z" fill="#3A2C6D"/>
<path d="M524 275.91L524.87 276.41C524.94 276.41 524.93 276.52 524.87 276.57L524.04 277.04C523.999 277.065 523.953 277.078 523.905 277.078C523.857 277.078 523.811 277.065 523.77 277.04L522.9 276.55C522.83 276.5 522.84 276.43 522.9 276.39L523.73 275.91C523.772 275.888 523.818 275.877 523.865 275.877C523.912 275.877 523.958 275.888 524 275.91V275.91Z" fill="#3A2C6D"/>
<path d="M522.82 275.2L523.69 275.7C523.76 275.7 523.75 275.82 523.69 275.86L522.86 276.34C522.818 276.362 522.772 276.373 522.725 276.373C522.678 276.373 522.632 276.362 522.59 276.34L521.72 275.84C521.65 275.84 521.66 275.73 521.72 275.68L522.55 275.21C522.591 275.187 522.637 275.173 522.684 275.172C522.731 275.17 522.777 275.18 522.82 275.2V275.2Z" fill="#3A2C6D"/>
<path d="M521.6 274.5L522.47 275C522.54 275 522.53 275.11 522.47 275.16L521.64 275.63C521.598 275.652 521.552 275.663 521.505 275.663C521.458 275.663 521.412 275.652 521.37 275.63L520.5 275.13C520.43 275.13 520.44 275.01 520.5 274.97L521.33 274.49C521.372 274.47 521.419 274.46 521.466 274.462C521.513 274.463 521.559 274.477 521.6 274.5Z" fill="#3A2C6D"/>
<path d="M511.21 268.5L512.07 269C512.14 269 512.13 269.11 512.07 269.16L511.25 269.63C511.207 269.652 511.159 269.663 511.11 269.663C511.061 269.663 511.013 269.652 510.97 269.63L510.11 269.13C510.03 269.13 510.04 269.02 510.11 268.97L510.93 268.5C510.973 268.478 511.021 268.467 511.07 268.467C511.119 268.467 511.167 268.478 511.21 268.5V268.5Z" fill="#3A2C6D"/>
<path d="M510 267.79L510.87 268.29C510.94 268.29 510.93 268.4 510.87 268.45L510.04 268.93C509.998 268.95 509.952 268.96 509.905 268.96C509.858 268.96 509.812 268.95 509.77 268.93L508.9 268.43C508.83 268.43 508.84 268.32 508.9 268.27L509.73 267.79C509.772 267.77 509.818 267.76 509.865 267.76C509.912 267.76 509.958 267.77 510 267.79V267.79Z" fill="#3A2C6D"/>
<path d="M508.76 267.09L509.63 267.59C509.7 267.59 509.69 267.7 509.63 267.75L508.8 268.22C508.758 268.242 508.712 268.253 508.665 268.253C508.618 268.253 508.572 268.242 508.53 268.22L507.66 267.72C507.59 267.72 507.6 267.61 507.66 267.57L508.49 267.09C508.532 267.068 508.578 267.057 508.625 267.057C508.672 267.057 508.718 267.068 508.76 267.09V267.09Z" fill="#3A2C6D"/>
<path d="M507.54 266.38L508.41 266.88C508.48 266.88 508.47 266.99 508.41 267.04L507.58 267.52C507.538 267.54 507.492 267.55 507.445 267.55C507.398 267.55 507.352 267.54 507.31 267.52L506.44 267.02C506.37 267.02 506.38 266.91 506.44 266.86L507.27 266.38C507.312 266.36 507.358 266.35 507.405 266.35C507.452 266.35 507.498 266.36 507.54 266.38V266.38Z" fill="#3A2C6D"/>
<path d="M520.07 273.61L521.25 274.29C521.32 274.29 521.31 274.41 521.25 274.45L520.42 274.93C520.378 274.952 520.332 274.963 520.285 274.963C520.238 274.963 520.192 274.952 520.15 274.93L519 274.26C518.93 274.26 518.93 274.15 519 274.1L519.82 273.62C519.899 273.585 519.988 273.581 520.07 273.61V273.61Z" fill="#3A2C6D"/>
<path d="M512.43 269.2L513.61 269.88C513.68 269.88 513.67 269.99 513.61 270.04L512.78 270.52C512.738 270.54 512.692 270.55 512.645 270.55C512.598 270.55 512.552 270.54 512.51 270.52L511.33 269.84C511.26 269.84 511.26 269.73 511.33 269.68L512.15 269.2C512.194 269.18 512.242 269.17 512.29 269.17C512.338 269.17 512.386 269.18 512.43 269.2V269.2Z" fill="#3A2C6D"/>
<path d="M514 270.09L519.75 273.41C519.82 273.41 519.81 273.52 519.75 273.57L518.93 274.04C518.886 274.062 518.839 274.073 518.79 274.073C518.741 274.073 518.693 274.062 518.65 274.04L512.9 270.72C512.83 270.72 512.84 270.61 512.9 270.57L513.73 270.09C513.772 270.068 513.818 270.057 513.865 270.057C513.912 270.057 513.958 270.068 514 270.09Z" fill="#3A2C6D"/>
<path d="M519.53 276L520.39 276.5C520.46 276.5 520.45 276.61 520.39 276.66L519.57 277.14C519.526 277.16 519.478 277.17 519.43 277.17C519.382 277.17 519.334 277.16 519.29 277.14L518.43 276.64C518.36 276.64 518.36 276.53 518.43 276.48L519.25 276C519.294 275.98 519.342 275.97 519.39 275.97C519.438 275.97 519.486 275.98 519.53 276V276Z" fill="#3A2C6D"/>
<path d="M518.3 275.33L519.17 275.83C519.24 275.83 519.23 275.95 519.17 275.99L518.34 276.47C518.298 276.492 518.252 276.503 518.205 276.503C518.158 276.503 518.112 276.492 518.07 276.47L517.2 275.97C517.13 275.97 517.14 275.86 517.2 275.81L518.03 275.34C518.071 275.317 518.117 275.303 518.164 275.302C518.211 275.3 518.257 275.31 518.3 275.33V275.33Z" fill="#3A2C6D"/>
<path d="M517.08 274.63L517.95 275.13C518.02 275.13 518.01 275.24 517.95 275.29L517.12 275.76C517.077 275.782 517.029 275.793 516.98 275.793C516.931 275.793 516.883 275.782 516.84 275.76L515.98 275.26C515.91 275.21 515.92 275.14 515.98 275.1L516.81 274.62C516.852 274.6 516.899 274.59 516.946 274.592C516.993 274.593 517.039 274.607 517.08 274.63V274.63Z" fill="#3A2C6D"/>
<path d="M515.86 273.92L516.72 274.42C516.79 274.42 516.78 274.53 516.72 274.58L515.9 275.06C515.856 275.08 515.808 275.09 515.76 275.09C515.712 275.09 515.664 275.08 515.62 275.06L514.76 274.56C514.69 274.56 514.7 274.45 514.76 274.4L515.58 273.92C515.624 273.9 515.672 273.89 515.72 273.89C515.768 273.89 515.816 273.9 515.86 273.92V273.92Z" fill="#3A2C6D"/>
<path d="M514.63 273.22L515.5 273.72C515.57 273.72 515.56 273.83 515.5 273.88L514.67 274.35C514.628 274.372 514.582 274.383 514.535 274.383C514.488 274.383 514.442 274.372 514.4 274.35L513.53 273.85C513.46 273.85 513.47 273.74 513.53 273.69L514.36 273.22C514.402 273.198 514.448 273.187 514.495 273.187C514.542 273.187 514.588 273.198 514.63 273.22V273.22Z" fill="#3A2C6D"/>
<path d="M513.41 272.51L514.28 273.01C514.35 273.01 514.34 273.12 514.28 273.17L513.45 273.65C513.408 273.67 513.362 273.68 513.315 273.68C513.268 273.68 513.222 273.67 513.18 273.65L512.31 273.15C512.24 273.15 512.25 273.04 512.31 272.99L513.14 272.51C513.182 272.49 513.228 272.48 513.275 272.48C513.322 272.48 513.368 272.49 513.41 272.51V272.51Z" fill="#3A2C6D"/>
<path d="M512.19 271.8L513.05 272.3C513.12 272.3 513.12 272.42 513.05 272.46L512.23 272.94C512.186 272.962 512.139 272.973 512.09 272.973C512.041 272.973 511.993 272.962 511.95 272.94L511.09 272.44C511.02 272.44 511.03 272.33 511.09 272.28L511.91 271.81C511.953 271.786 512 271.773 512.049 271.772C512.097 271.77 512.146 271.78 512.19 271.8V271.8Z" fill="#3A2C6D"/>
<path d="M511 271.1L511.86 271.6C511.93 271.6 511.92 271.71 511.86 271.76L511.04 272.23C510.997 272.255 510.949 272.268 510.9 272.268C510.851 272.268 510.802 272.255 510.76 272.23L509.9 271.74C509.83 271.74 509.83 271.62 509.9 271.58L510.72 271.1C510.763 271.078 510.811 271.067 510.86 271.067C510.909 271.067 510.957 271.078 511 271.1V271.1Z" fill="#3A2C6D"/>
<path d="M509.74 270.39L510.61 270.89C510.68 270.89 510.67 271 510.61 271.05L509.78 271.53C509.738 271.55 509.692 271.56 509.645 271.56C509.598 271.56 509.552 271.55 509.51 271.53L508.64 271.03C508.57 271.03 508.58 270.92 508.64 270.87L509.47 270.39C509.512 270.37 509.558 270.36 509.605 270.36C509.652 270.36 509.698 270.37 509.74 270.39V270.39Z" fill="#3A2C6D"/>
<path d="M508.52 269.69L509.38 270.19C509.46 270.19 509.45 270.3 509.38 270.34L508.55 270.82C508.507 270.842 508.459 270.853 508.41 270.853C508.361 270.853 508.313 270.842 508.27 270.82L507.41 270.32C507.34 270.32 507.35 270.21 507.41 270.16L508.23 269.69C508.275 269.666 508.324 269.654 508.375 269.654C508.425 269.654 508.475 269.666 508.52 269.69Z" fill="#3A2C6D"/>
<path d="M507.3 269L508.16 269.5C508.23 269.5 508.22 269.61 508.16 269.66L507.34 270.14C507.296 270.16 507.248 270.17 507.2 270.17C507.152 270.17 507.104 270.16 507.06 270.14L506.2 269.64C506.13 269.64 506.14 269.53 506.2 269.48L507 269C507.046 268.975 507.097 268.961 507.15 268.961C507.202 268.961 507.254 268.975 507.3 269V269Z" fill="#3A2C6D"/>
<path d="M506.07 268.27L506.94 268.77C507.01 268.77 507 268.89 506.94 268.93L506.11 269.41C506.068 269.432 506.022 269.443 505.975 269.443C505.928 269.443 505.882 269.432 505.84 269.41L504.97 268.91C504.9 268.91 504.91 268.8 504.97 268.75L505.8 268.28C505.841 268.257 505.887 268.243 505.934 268.242C505.981 268.24 506.027 268.25 506.07 268.27V268.27Z" fill="#3A2C6D"/>
<path d="M520.75 276.75L522.54 277.75C522.61 277.75 522.6 277.86 522.54 277.91L521.71 278.39C521.668 278.41 521.622 278.42 521.575 278.42C521.528 278.42 521.482 278.41 521.44 278.39L519.65 277.39C519.58 277.39 519.59 277.28 519.65 277.23L520.47 276.76C520.513 276.736 520.56 276.723 520.609 276.722C520.657 276.72 520.706 276.73 520.75 276.75V276.75Z" fill="#3A2C6D"/>
<path d="M521.32 275.71L522.18 276.21C522.26 276.21 522.25 276.32 522.18 276.36L521.36 276.84C521.316 276.862 521.269 276.873 521.22 276.873C521.171 276.873 521.123 276.862 521.08 276.84L520.22 276.34C520.15 276.34 520.16 276.23 520.22 276.18L521.04 275.71C521.083 275.688 521.131 275.677 521.18 275.677C521.229 275.677 521.277 275.688 521.32 275.71Z" fill="#3A2C6D"/>
<path d="M520.1 275L520.96 275.5C521.03 275.5 521.02 275.61 520.96 275.66L520.14 276.14C520.096 276.16 520.048 276.17 520 276.17C519.952 276.17 519.904 276.16 519.86 276.14L519 275.64C518.93 275.64 518.94 275.53 519 275.48L519.82 275C519.863 274.978 519.911 274.967 519.96 274.967C520.009 274.967 520.057 274.978 520.1 275V275Z" fill="#3A2C6D"/>
<path d="M518.87 274.29L519.74 274.79C519.81 274.79 519.8 274.91 519.74 274.95L518.91 275.43C518.868 275.452 518.822 275.463 518.775 275.463C518.728 275.463 518.682 275.452 518.64 275.43L517.77 274.93C517.7 274.93 517.71 274.82 517.77 274.77L518.6 274.3C518.641 274.277 518.687 274.263 518.734 274.262C518.781 274.26 518.827 274.27 518.87 274.29V274.29Z" fill="#3A2C6D"/>
<path d="M517.65 273.59L518.52 274.09C518.59 274.09 518.58 274.2 518.52 274.25L517.69 274.72C517.649 274.745 517.603 274.758 517.555 274.758C517.507 274.758 517.461 274.745 517.42 274.72L516.55 274.23C516.48 274.18 516.49 274.11 516.55 274.07L517.38 273.59C517.422 273.568 517.468 273.557 517.515 273.557C517.562 273.557 517.608 273.568 517.65 273.59V273.59Z" fill="#3A2C6D"/>
<path d="M516.43 272.88L517.29 273.38C517.36 273.38 517.36 273.49 517.29 273.54L516.47 274.02C516.426 274.04 516.378 274.05 516.33 274.05C516.282 274.05 516.234 274.04 516.19 274.02L515.33 273.52C515.26 273.52 515.27 273.41 515.33 273.36L516.15 272.88C516.194 272.86 516.242 272.85 516.29 272.85C516.338 272.85 516.386 272.86 516.43 272.88V272.88Z" fill="#3A2C6D"/>
<path d="M515.21 272.18L516.07 272.68C516.14 272.68 516.13 272.79 516.07 272.83L515.25 273.31C515.207 273.332 515.159 273.343 515.11 273.343C515.061 273.343 515.013 273.332 514.97 273.31L514.11 272.81C514.04 272.81 514.04 272.7 514.11 272.65L514.93 272.18C514.973 272.158 515.021 272.147 515.07 272.147C515.119 272.147 515.167 272.158 515.21 272.18V272.18Z" fill="#3A2C6D"/>
<path d="M514 271.47L514.87 271.97C514.94 271.97 514.93 272.08 514.87 272.13L514.04 272.61C513.998 272.63 513.952 272.64 513.905 272.64C513.858 272.64 513.812 272.63 513.77 272.61L512.9 272.11C512.83 272.11 512.84 272 512.9 271.95L513.73 271.47C513.772 271.45 513.818 271.44 513.865 271.44C513.912 271.44 513.958 271.45 514 271.47V271.47Z" fill="#3A2C6D"/>
<path d="M512.76 270.76L513.63 271.26C513.7 271.26 513.69 271.38 513.63 271.42L512.8 271.9C512.758 271.922 512.712 271.933 512.665 271.933C512.618 271.933 512.572 271.922 512.53 271.9L511.66 271.4C511.59 271.4 511.6 271.29 511.66 271.24L512.49 270.77C512.531 270.747 512.577 270.733 512.624 270.732C512.671 270.73 512.717 270.74 512.76 270.76Z" fill="#3A2C6D"/>
<path d="M511.54 270.06L512.4 270.56C512.47 270.56 512.46 270.67 512.4 270.72L511.58 271.19C511.537 271.212 511.489 271.223 511.44 271.223C511.391 271.223 511.343 271.212 511.3 271.19L510.44 270.69C510.37 270.69 510.38 270.57 510.44 270.53L511.26 270.05C511.304 270.03 511.352 270.02 511.401 270.022C511.45 270.023 511.497 270.036 511.54 270.06V270.06Z" fill="#3A2C6D"/>
<path d="M510.32 269.35L511.18 269.85C511.25 269.85 511.24 269.96 511.18 270.01L510.36 270.49C510.316 270.51 510.268 270.52 510.22 270.52C510.172 270.52 510.124 270.51 510.08 270.49L509.22 269.99C509.14 269.99 509.15 269.88 509.22 269.83L510.04 269.35C510.084 269.33 510.132 269.32 510.18 269.32C510.228 269.32 510.276 269.33 510.32 269.35Z" fill="#3A2C6D"/>
<path d="M509.09 268.65L509.96 269.15C510.03 269.15 510.02 269.26 509.96 269.31L509.13 269.78C509.088 269.802 509.042 269.813 508.995 269.813C508.948 269.813 508.902 269.802 508.86 269.78L507.99 269.28C507.92 269.28 507.93 269.17 507.99 269.13L508.82 268.65C508.862 268.628 508.908 268.617 508.955 268.617C509.002 268.617 509.048 268.628 509.09 268.65V268.65Z" fill="#3A2C6D"/>
<path d="M506.36 267.07L508.74 268.44C508.81 268.44 508.8 268.55 508.74 268.6L507.91 269.08C507.866 269.1 507.818 269.11 507.77 269.11C507.722 269.11 507.674 269.1 507.63 269.08L505.26 267.7C505.19 267.7 505.19 267.59 505.26 267.55L506.08 267.07C506.123 267.048 506.171 267.037 506.22 267.037C506.269 267.037 506.317 267.048 506.36 267.07V267.07Z" fill="#3A2C6D"/>
<path d="M522.54 276.41L523.72 277.09C523.79 277.09 523.78 277.21 523.72 277.25L522.9 277.73C522.857 277.752 522.809 277.763 522.76 277.763C522.711 277.763 522.663 277.752 522.62 277.73L521.44 277.05C521.37 277.05 521.38 276.94 521.44 276.89L522.27 276.41C522.312 276.39 522.358 276.38 522.405 276.38C522.452 276.38 522.498 276.39 522.54 276.41V276.41Z" fill="#3A2C6D"/>
<path d="M501.57 269.83L518.93 279.83C519 279.83 519 279.94 518.93 279.99L518.52 280.22C518.478 280.242 518.432 280.253 518.385 280.253C518.338 280.253 518.292 280.242 518.25 280.22L500.88 270.22C500.81 270.22 500.82 270.11 500.88 270.06L501.29 269.82C501.335 269.802 501.383 269.793 501.431 269.795C501.479 269.797 501.527 269.809 501.57 269.83V269.83Z" fill="#3A2C6D"/>
<path d="M521.89 270.28L521.77 270.34L518.77 272.08L513.44 269L513.33 268.93L516.44 267.14L521.89 270.28Z" fill="#BFBFBF"/>
<path d="M521.77 270.34L518.77 272.08L513.44 269L516.44 267.27L521.77 270.34Z" fill="#E5E5E5"/>
<path d="M530.44 274.32V274.59C530.442 274.782 530.392 274.971 530.298 275.138C530.203 275.304 530.066 275.443 529.9 275.54L519.32 281.64C519.155 281.738 518.967 281.789 518.775 281.789C518.583 281.789 518.395 281.738 518.23 281.64L499.09 270.64C498.916 270.54 498.772 270.393 498.675 270.217C498.578 270.041 498.531 269.841 498.54 269.64V269.37L518.77 281.05L530.44 274.32Z" fill="#E5E5E5"/>
<path d="M518.47 281.22C518.289 281.291 518.095 281.321 517.901 281.307C517.707 281.293 517.519 281.236 517.35 281.14L498.35 270.14C498.184 270.045 498.041 269.913 497.932 269.756C497.823 269.599 497.751 269.419 497.72 269.23L495.63 256.79C495.625 256.72 495.625 256.65 495.63 256.58C495.629 256.408 495.664 256.238 495.731 256.08C495.798 255.922 495.896 255.779 496.02 255.66L515.82 267.09C515.939 267.163 516.042 267.261 516.121 267.376C516.2 267.492 516.254 267.622 516.28 267.76L518.47 281.22Z" fill="#F4F4F4"/>
<path d="M518.77 281.06L518.64 281.14L518.47 281.22L516.21 267.76C516.184 267.622 516.13 267.492 516.051 267.376C515.972 267.261 515.869 267.163 515.75 267.09L496 255.66C496.073 255.577 496.161 255.509 496.26 255.46L516.1 266.91C516.221 266.982 516.326 267.079 516.407 267.195C516.488 267.31 516.543 267.441 516.57 267.58L518.77 281.06Z" fill="#E5E5E5"/>
<path d="M533.16 227.83C533.16 227.83 532.91 232.56 533.02 232.98C533.13 233.4 535.19 234.79 535.79 235.29C536.39 235.79 532.52 239.61 530.64 240.47C528.76 241.33 522.78 239.06 522.64 236.12C522.5 233.18 523.64 230.73 524.58 230.6C525.52 230.47 533.16 227.83 533.16 227.83Z" fill="#FFCEA9"/>
<path d="M533.68 233.8C533.68 233.8 530.25 238.92 525.46 239.4C523.95 237.91 523.81 232.61 525.9 230.92C525.9 230.92 523.98 229.36 522.66 229.67C521.23 230.515 520.162 231.857 519.66 233.44C518.433 236.974 517.861 240.701 517.97 244.44C518.05 249.44 517.97 262.15 517.97 262.15C518.251 263.65 518.846 265.073 519.717 266.326C520.587 267.579 521.713 268.633 523.02 269.42C526.482 271.384 530.564 271.949 534.43 271C536.86 270.43 537.76 269.08 538.6 267.31C538.38 263.8 536.99 256.55 537.6 252.12C538.21 247.69 539.12 244.39 539.36 240.82C539.6 237.25 538.89 237.31 537.09 236.03C536.009 235.205 534.869 234.46 533.68 233.8V233.8Z" fill="#F4F4F4"/>
<path d="M528.18 274.59C529.041 274.017 529.94 273.502 530.87 273.05C531.737 272.773 532.526 272.293 533.17 271.65C534.01 270.83 535.39 267.71 536.38 264.65C537.365 261.218 537.754 257.643 537.53 254.08C537.12 249.81 535.58 243.84 535.19 241.39C534.8 238.94 535.59 237.95 536.74 237.05C538.08 235.99 539.93 236.46 540.92 239.9C542.195 244.659 542.933 249.546 543.12 254.47C543.161 258.128 542.596 261.767 541.45 265.24C540.431 268.215 539.054 271.056 537.35 273.7C536.88 274.49 536.72 275.2 536 276.82C535.309 278.448 534.231 279.883 532.86 281C531.66 281.86 531.09 282 530.8 281.82C530.51 281.64 530.52 281.23 531.03 280.82C531.881 280.151 532.606 279.335 533.17 278.41C533.17 278.41 532.12 279.47 531.43 280.05C530.823 280.563 530.15 280.994 529.43 281.33C528.73 281.64 527.75 281.04 528.25 280.57C528.75 280.1 529.25 279.86 530.25 278.99C530.788 278.534 531.268 278.013 531.68 277.44C530.976 277.982 530.231 278.467 529.45 278.89C528.847 279.255 528.155 279.445 527.45 279.44C527.08 279.44 526.63 278.9 527.33 278.44C528.292 277.919 529.189 277.284 530 276.55C530.77 275.79 531.2 275.14 531 275.13C530.8 275.12 530.36 275.59 529.46 275.88C528.56 276.17 527.59 275.88 527.46 275.41C527.33 274.94 527.34 275 528.18 274.59Z" fill="#FFCEA9"/>
<path d="M522.44 220.77C523.01 217.1 525.66 214.32 529.44 214.53C530.965 214.608 532.426 215.162 533.618 216.116C534.81 217.07 535.672 218.374 536.082 219.845C536.493 221.315 536.43 222.877 535.904 224.31C535.378 225.743 534.414 226.974 533.15 227.83C533.016 228.388 532.818 228.928 532.56 229.44C531.23 231 527.18 232 526 231.8C525.31 231.737 524.654 231.468 524.119 231.028C523.584 230.587 523.194 229.995 523 229.33C521.74 226.45 522.13 222.59 522.44 220.77Z" fill="#FFCEA9"/>
<path d="M533.16 227.83L532.81 224.62C532.81 224.62 535.43 217.84 529.24 219.14C525.16 220 524.13 220.38 522.89 217.64C521.65 214.9 526 212.43 531.23 213.12C533.022 213.305 534.68 214.158 535.873 215.508C537.066 216.859 537.707 218.608 537.67 220.41C537.54 222.43 537 226.51 533.16 227.83Z" fill="#3A2C6D"/>
<path d="M543.75 246.23C543.75 246.23 540.37 249.59 536.38 248.62C535.81 248.23 534.43 240.38 534.43 240.38C534.43 240.38 534.43 236.03 537.77 236.14C541.11 236.25 543.75 246.23 543.75 246.23Z" fill="#EDEDED"/>
<path d="M518.25 239.71C517.305 239.676 516.409 239.278 515.75 238.6C515.89 236.84 518.14 230.16 522.66 229.67C521.43 230.532 520.456 231.71 519.84 233.08C519.137 235.245 518.605 237.462 518.25 239.71V239.71Z" fill="#EDEDED"/>
<path d="M721.4 524.15L637.88 475.93C632.63 472.93 628.38 464.78 628.38 457.79V326.38C628.38 319.38 632.63 316.18 637.88 319.2L721.4 367.43C726.64 370.43 730.89 378.58 730.89 385.57V517C730.89 524 726.64 527.18 721.4 524.15Z" fill="#211B49"/>
<path d="M724.74 526.07L727.6 524.66L725.67 520.87L724.74 526.07Z" fill="#211B49"/>
<path d="M629.94 319.57C630.781 319.07 631.664 318.645 632.58 318.3L634.7 322.49L629.94 319.57Z" fill="#211B49"/>
<path d="M719.21 525.25L635.68 477C630.44 474 626.19 465.85 626.19 458.86V327.48C626.19 320.48 630.44 317.27 635.68 320.3L719.21 368.53C724.45 371.53 728.7 379.67 728.7 386.66V518.07C728.7 525.06 724.45 528.28 719.21 525.25Z" fill="#2E245B"/>
<path d="M650.87 347.7L635.68 338.93V333.45L650.87 342.22V347.7Z" fill="#A298E2"/>
<path d="M718.26 386.61L653.72 349.34V343.87L718.26 381.13V386.61Z" fill="#C33AFC"/>
<path d="M650.87 365.24L635.68 356.47V350.99L650.87 359.76V365.24Z" fill="#A298E2"/>
<path d="M696.43 391.54L653.72 366.88V361.4L696.43 386.06V391.54Z" fill="#F4CE2C"/>
<path d="M650.87 374L635.68 365.24V359.76L650.87 368.52V374Z" fill="#A298E2"/>
<path d="M706.87 406.34L653.72 375.65V370.17L706.87 400.86V406.34Z" fill="#FF8657"/>
<path d="M650.87 382.77L635.68 374V368.52L650.87 377.29V382.77Z" fill="#A298E2"/>
<path d="M690.74 405.79L653.72 384.42V378.94L690.74 400.31V405.79Z" fill="#A298E2"/>
<path d="M650.87 356.47L635.68 347.7V342.22L650.87 350.99V356.47Z" fill="#A298E2"/>
<path d="M685.99 376.75L653.72 358.11V352.63L685.99 371.26V376.75Z" fill="#4D3BFF"/>
<path d="M650.87 391.54L635.68 382.77V377.29L650.87 386.06V391.54Z" fill="#A298E2"/>
<path d="M672.7 404.14L653.72 393.18V387.7L672.7 398.66V404.14Z" fill="#C33AFC"/>
<path d="M650.87 409.07L635.68 400.31V394.83L650.87 403.6V409.07Z" fill="#A298E2"/>
<path d="M713.52 445.24L653.72 410.72V405.24L713.52 439.76V445.24Z" fill="#F4CE2C"/>
<path d="M650.87 417.84L635.68 409.07V403.59L650.87 412.36V417.84Z" fill="#A298E2"/>
<path d="M671.75 429.9L653.72 419.49V414.01L671.75 424.42V429.9Z" fill="#FF8657"/>
<path d="M650.87 426.61L635.68 417.84V412.36L650.87 421.13V426.61Z" fill="#A298E2"/>
<path d="M706.87 458.94L653.72 428.25V422.78L706.87 453.46V458.94Z" fill="#A298E2"/>
<path d="M650.87 400.31L635.68 391.54V386.06L650.87 394.83V400.31Z" fill="#A298E2"/>
<path d="M704.02 431L653.72 401.95V396.47L704.02 425.52V431Z" fill="#4D3BFF"/>
<path d="M650.87 435.38L635.68 426.61V421.13L650.87 429.9V435.38Z" fill="#A298E2"/>
<path d="M660.36 440.86L653.72 437.02V431.54L660.36 435.38V440.86Z" fill="#C33AFC"/>
<path d="M650.87 452.91L635.68 444.15V438.67L650.87 447.44V452.91Z" fill="#A298E2"/>
<path d="M666.06 461.68L653.72 454.56V449.08L666.06 456.2V461.68Z" fill="#F4CE2C"/>
<path d="M650.87 461.68L635.68 452.91V447.43L650.87 456.2V461.68Z" fill="#A298E2"/>
<path d="M685.99 481.96L653.72 463.33V457.85L685.99 476.48V481.96Z" fill="#FF8657"/>
<path d="M650.87 470.45L635.68 461.68V456.2L650.87 464.97V470.45Z" fill="#A298E2"/>
<path d="M704.97 501.69L653.72 472.09V466.61L704.97 496.21V501.69Z" fill="#A298E2"/>
<path d="M650.87 444.15L635.68 435.38V429.9L650.87 438.67V444.15Z" fill="#A298E2"/>
<path d="M718.26 483.06L653.72 445.79V440.31L718.26 477.57V483.06Z" fill="#4D3BFF"/>
<path d="M298.12 424.94L289 420.26L269.89 431.26C265.56 433.76 262.04 431.74 262.04 426.73V405.91C262.188 403.186 262.975 400.535 264.339 398.172C265.703 395.809 267.605 393.801 269.89 392.31L383.7 326.58C388.03 324.08 391.55 326.11 391.55 331.11V352C391.402 354.724 390.614 357.375 389.251 359.738C387.887 362.101 385.985 364.109 383.7 365.6L307.18 409.74" fill="#B1B4C4"/>
<path d="M388.7 325.77L393 327.51L389.36 331.25L386.78 327.12L388.7 325.77Z" fill="#B1B4C4"/>
<path d="M298.12 424.94L302.65 426.76L302.66 422.86L298.65 422.06L298.12 424.94Z" fill="#B1B4C4"/>
<path d="M269.61 434C269.78 434.36 264.7 432.28 264.52 432C264.34 431.72 270.68 428 270.68 428L269.61 434Z" fill="#B1B4C4"/>
<path d="M311.71 411.55L388.23 367.38C390.513 365.888 392.414 363.879 393.777 361.516C395.141 359.154 395.93 356.504 396.08 353.78V332.93C396.08 327.93 392.56 325.93 388.23 328.39L274.38 394.12C272.096 395.612 270.195 397.62 268.831 399.983C267.468 402.346 266.679 404.996 266.53 407.72V428.57C266.53 433.57 270.05 435.57 274.38 433.1L293.49 422.1L302.65 426.79L311.71 411.55Z" fill="#E9EAF2"/>
<path d="M385.87 346.53L276.74 409.53V402.28L385.87 339.27V346.53Z" fill="#8C50FF"/>
<path d="M348.19 380.98L276.74 422.23V414.97L348.19 373.72V380.98Z" fill="#8C50FF"/>
<ellipse cx="331" cy="238.191" rx="17.7078" ry="17.9875" transform="rotate(-16.0932 331 238.191)" fill="url(#paint7_linear_7_510)"/>
</g>
<ellipse cx="847.826" cy="517.593" rx="24.0072" ry="24.3864" transform="rotate(-16.0932 847.826 517.593)" fill="url(#paint8_linear_7_510)"/>
<circle cx="101.69" cy="461.69" r="40.1369" transform="rotate(-16.0932 101.69 461.69)" fill="url(#paint9_linear_7_510)"/>
<ellipse cx="173" cy="617.626" rx="17.7078" ry="17.9875" transform="rotate(-16.0932 173 617.626)" fill="url(#paint10_linear_7_510)"/>
<circle cx="581.446" cy="108.565" r="35.3912" transform="rotate(-16.0932 581.446 108.565)" fill="url(#paint11_linear_7_510)"/>
<circle cx="894.14" cy="365.253" r="43.7207" transform="rotate(-16.0932 894.14 365.253)" fill="url(#paint12_linear_7_510)"/>
<circle cx="402.365" cy="771.365" r="24.7635" transform="rotate(-27.3103 402.365 771.365)" fill="url(#paint13_linear_7_510)"/>
<path fill-rule="evenodd" clip-rule="evenodd" d="M288.807 894.78C305.1 923.118 331.602 947.896 333.797 980.711C335.99 1013.51 313.456 1042.98 300.778 1073.82C288.581 1103.5 276.113 1132.11 260.079 1160.06C240.899 1193.48 229.455 1234.65 196.577 1255.4C163.847 1276.06 120.581 1279.94 83.3948 1271.57C47.0114 1263.38 25.5267 1227.66 -6.73522 1209.66C-35.8679 1193.4 -75.368 1194.61 -97.9392 1170.36C-120.522 1146.1 -128.841 1110.71 -129.845 1077.41C-130.786 1046.19 -109.056 1018.53 -103.45 987.601C-98.1298 958.251 -102.268 929.046 -97.6162 899.605C-91.2921 859.578 -104.419 806.423 -70.9789 782.08C-37.7941 757.923 8.31758 794.834 49.0506 792.838C82.5865 791.194 113.526 767.815 146.75 771.41C180.589 775.071 212.264 791.314 237.496 813.226C262.101 834.595 272.622 866.631 288.807 894.78Z" fill="url(#paint14_radial_7_510)"/>
<path fill-rule="evenodd" clip-rule="evenodd" d="M736.892 -126.997C744.551 -158.775 742.352 -194.989 763.326 -220.321C784.291 -245.642 820.914 -251.538 851.332 -265.211C880.594 -278.366 909.325 -290.568 940.183 -299.826C977.091 -310.899 1013.72 -332.921 1051.86 -325.375C1089.82 -317.863 1123.9 -290.923 1145.14 -259.275C1165.93 -228.31 1156.96 -187.602 1167.99 -152.342C1177.96 -120.502 1207.47 -94.2157 1207.18 -61.0906C1206.89 -27.9484 1188.6 3.46309 1166.42 28.3316C1145.63 51.6448 1110.84 56.7783 1085.5 75.3778C1061.45 93.0265 1044.37 117.075 1020.75 135.249C988.627 159.959 961.601 207.576 920.584 202.251C879.879 196.967 871.787 138.459 840.843 111.895C815.366 90.0252 776.826 85.7202 755.178 60.2617C733.13 34.3326 721.305 0.757018 718.057 -32.5032C714.889 -64.9385 729.283 -95.4309 736.892 -126.997Z" fill="url(#paint15_radial_7_510)"/>
<path fill-rule="evenodd" clip-rule="evenodd" d="M-222.705 48.4597C-246.271 23.8551 -278.509 4.69037 -289.97 -26.9979C-301.427 -58.672 -288.459 -91.8242 -285.24 -124.436C-282.144 -155.81 -278.488 -186.201 -271.254 -216.617C-262.601 -252.996 -263.505 -295.478 -238.227 -322.085C-213.063 -348.573 -173.102 -360.66 -135.412 -359.601C-98.5362 -358.566 -67.9329 -327.732 -32.1624 -316.297C0.138625 -305.97 37.2876 -314.726 65.6426 -295.328C94.0123 -275.92 112.023 -242.888 122.494 -210.494C132.311 -180.125 119.589 -148.899 123.107 -117.559C126.446 -87.8206 138.721 -60.0369 142.72 -30.338C148.157 10.0405 175.809 59.5353 151.025 89.7646C126.429 119.763 72.1089 92.4862 34.0145 102.248C2.65096 110.285 -20.036 139.092 -52.6008 141.944C-85.7676 144.848 -120.477 135.027 -150.69 118.422C-180.154 102.23 -199.297 72.9001 -222.705 48.4597Z" fill="url(#paint16_radial_7_510)"/>
</g>
<defs>
<radialGradient id="paint0_radial_7_510" cx="0" cy="0" r="1" gradientUnits="userSpaceOnUse" gradientTransform="translate(95.4897 -121.068) rotate(58.4159) scale(423.351 494.529)">
<stop stop-color="#4BACFF"/>
<stop offset="0.540703" stop-color="#8570B5"/>
<stop offset="0.931984" stop-color="#DB5F8A"/>
</radialGradient>
<radialGradient id="paint1_radial_7_510" cx="0" cy="0" r="1" gradientUnits="userSpaceOnUse" gradientTransform="translate(68.6205 -202.885) rotate(51.9855) scale(423.351 494.529)">
<stop stop-color="#4BACFF"/>
<stop offset="0.540703" stop-color="#8570B5"/>
<stop offset="0.931984" stop-color="#DB5F8A"/>
</radialGradient>
<radialGradient id="paint2_radial_7_510" cx="0" cy="0" r="1" gradientUnits="userSpaceOnUse" gradientTransform="translate(891.634 1109.59) rotate(-117.631) scale(435.544 519.596)">
<stop stop-color="#4BACFF"/>
<stop offset="0.540703" stop-color="#8570B5"/>
<stop offset="0.931984" stop-color="#DB5F8A"/>
</radialGradient>
<radialGradient id="paint3_radial_7_510" cx="0" cy="0" r="1" gradientUnits="userSpaceOnUse" gradientTransform="translate(865.634 1166.59) rotate(-117.631) scale(435.544 519.596)">
<stop stop-color="#4BACFF"/>
<stop offset="0.540703" stop-color="#8570B5"/>
<stop offset="0.931984" stop-color="#DB5F8A"/>
</radialGradient>
<radialGradient id="paint4_radial_7_510" cx="0" cy="0" r="1" gradientUnits="userSpaceOnUse" gradientTransform="translate(1044.63 975.586) rotate(-117.631) scale(435.544 519.596)">
<stop stop-color="#4BACFF"/>
<stop offset="0.540703" stop-color="#8570B5"/>
<stop offset="0.931984" stop-color="#DB5F8A"/>
</radialGradient>
<linearGradient id="paint5_linear_7_510" x1="583.247" y1="502.532" x2="666.35" y2="357.932" gradientUnits="userSpaceOnUse">
<stop offset="0.21" stop-color="white" stop-opacity="0"/>
<stop offset="1" stop-color="white" stop-opacity="0.2"/>
</linearGradient>
<linearGradient id="paint6_linear_7_510" x1="604.773" y1="452.828" x2="582.317" y2="491.902" gradientUnits="userSpaceOnUse">
<stop stop-color="#E9EAF2" stop-opacity="0.8"/>
<stop offset="1" stop-color="#E9EAF2" stop-opacity="0"/>
</linearGradient>
<linearGradient id="paint7_linear_7_510" x1="331" y1="220.204" x2="330.883" y2="251.417" gradientUnits="userSpaceOnUse">
<stop stop-color="#6A8BD6"/>
<stop offset="1" stop-color="#BB659A"/>
</linearGradient>
<linearGradient id="paint8_linear_7_510" x1="847.826" y1="493.207" x2="847.668" y2="535.524" gradientUnits="userSpaceOnUse">
<stop stop-color="#6A8BD6"/>
<stop offset="1" stop-color="#BB659A"/>
</linearGradient>
<linearGradient id="paint9_linear_7_510" x1="101.69" y1="421.553" x2="101.433" y2="491.202" gradientUnits="userSpaceOnUse">
<stop stop-color="#6A8BD6"/>
<stop offset="1" stop-color="#BB659A"/>
</linearGradient>
<linearGradient id="paint10_linear_7_510" x1="173" y1="599.638" x2="172.883" y2="630.852" gradientUnits="userSpaceOnUse">
<stop stop-color="#6A8BD6"/>
<stop offset="1" stop-color="#BB659A"/>
</linearGradient>
<linearGradient id="paint11_linear_7_510" x1="581.446" y1="73.1742" x2="581.219" y2="134.588" gradientUnits="userSpaceOnUse">
<stop stop-color="#6A8BD6"/>
<stop offset="1" stop-color="#BB659A"/>
</linearGradient>
<linearGradient id="paint12_linear_7_510" x1="894.14" y1="321.532" x2="893.86" y2="397.401" gradientUnits="userSpaceOnUse">
<stop stop-color="#6A8BD6"/>
<stop offset="1" stop-color="#BB659A"/>
</linearGradient>
<linearGradient id="paint13_linear_7_510" x1="402.365" y1="746.601" x2="402.206" y2="789.573" gradientUnits="userSpaceOnUse">
<stop stop-color="#6A8BD6"/>
<stop offset="1" stop-color="#BB659A"/>
</linearGradient>
<radialGradient id="paint14_radial_7_510" cx="0" cy="0" r="1" gradientUnits="userSpaceOnUse" gradientTransform="translate(-41.8159 1139.12) rotate(-80.5798) scale(421.382 505.127)">
<stop stop-color="#4BACFF"/>
<stop offset="0.540703" stop-color="#8570B5"/>
<stop offset="0.931984" stop-color="#DB5F8A"/>
</radialGradient>
<radialGradient id="paint15_radial_7_510" cx="0" cy="0" r="1" gradientUnits="userSpaceOnUse" gradientTransform="translate(1144.96 -77.0116) rotate(142.87) scale(421.382 505.127)">
<stop stop-color="#4BACFF"/>
<stop offset="0.540703" stop-color="#8570B5"/>
<stop offset="0.931984" stop-color="#DB5F8A"/>
</radialGradient>
<radialGradient id="paint16_radial_7_510" cx="0" cy="0" r="1" gradientUnits="userSpaceOnUse" gradientTransform="translate(21.296 -254.007) rotate(82.7613) scale(423.351 494.529)">
<stop stop-color="#4BACFF"/>
<stop offset="0.540703" stop-color="#8570B5"/>
<stop offset="0.931984" stop-color="#DB5F8A"/>
</radialGradient>
<clipPath id="clip0_7_510">
<rect width="991" height="926" fill="white"/>
</clipPath>
<clipPath id="clip1_7_510">
<rect width="468.89" height="500" fill="white" transform="translate(262 213)"/>
</clipPath>
</defs>
</svg>
