<svg width="1500" height="1688" viewBox="0 0 1500 1688" fill="none" xmlns="http://www.w3.org/2000/svg">
<rect width="1500" height="1688" fill="#F5F5F5"/>
<ellipse cx="750" cy="936" rx="750" ry="752" fill="url(#paint0_linear_0_3)"/>
<g clip-path="url(#clip0_0_3)">
<path d="M1352.52 218.868H304.203C265.747 218.868 234.476 250.112 234.476 288.535V1006.3C234.476 1044.72 265.747 1075.97 304.203 1075.97H1352.52C1390.98 1075.97 1422.25 1044.72 1422.25 1006.3V288.535C1422.25 250.112 1390.98 218.868 1352.52 218.868V218.868Z" fill="#EEEEEE"/>
<path d="M1238.79 274.155H190.469C152.013 274.155 120.742 305.398 120.742 343.821V1061.59C120.742 1100.01 152.013 1131.25 190.469 1131.25H1238.79C1277.24 1131.25 1308.52 1100.01 1308.52 1061.59V343.821C1308.52 305.398 1277.24 274.155 1238.79 274.155ZM1301.18 850.329C1301.18 1001.43 1178.58 1123.93 1027.35 1123.93H190.469C156.01 1123.93 128.074 1096.02 128.074 1061.59V343.821C128.074 309.391 156.009 281.48 190.469 281.48H1238.79C1273.25 281.48 1301.18 309.391 1301.18 343.822V850.329Z" fill="#3F3D56"/>
<path d="M270.483 975.703L264.279 971.801C268.312 965.396 272.474 959.188 276.645 953.349L282.612 957.605C278.522 963.328 274.443 969.416 270.483 975.703H270.483Z" fill="#CCCCCC"/>
<path d="M310.911 923.497L305.663 918.382C316.85 906.927 328.625 897.092 340.658 889.153L344.699 895.266C333.102 902.917 321.733 912.416 310.911 923.497V923.497ZM493.826 877.258C485.071 877.258 477.095 876.138 471.123 875.162L472.308 867.933C478.359 868.922 485.646 869.932 493.826 869.932C501.051 869.932 508.152 869.14 515.534 867.507L517.116 874.661C509.208 876.408 501.59 877.258 493.826 877.258V877.258ZM384.118 876.288L381.912 869.303C389.788 866.82 397.947 864.96 406.162 863.771C413.216 862.751 419.961 862.256 426.779 862.256H427.23V869.582H426.779C420.315 869.582 413.916 870.052 407.212 871.021C399.388 872.154 391.616 873.926 384.118 876.288H384.118ZM558.879 855.118L554.193 849.484C564.31 841.088 571.562 830.934 579.241 820.184L582.303 815.907L588.254 820.189L585.209 824.439C577.247 835.586 569.725 846.117 558.879 855.118V855.118ZM617.678 787.95L613.167 782.173C623.05 774.468 634.216 768.225 647.301 763.086C649.53 762.21 651.66 761.429 653.704 760.733L656.07 767.665C654.126 768.328 652.104 769.071 649.984 769.904C637.563 774.781 626.997 780.683 617.678 787.95V787.95ZM706.193 762.505C703.726 762.505 701.386 762.482 699.138 762.457L699.224 755.131C701.523 755.158 703.921 755.163 706.459 755.18C715.087 755.18 727.104 754.935 743.586 753.028L744.431 760.304C727.404 762.274 715.198 762.48 706.193 762.505V762.505ZM789.031 752.912L787.578 745.733C800.747 743.072 816.068 739.904 831.233 735.995L833.066 743.088C817.727 747.042 802.294 750.233 789.031 752.912ZM876.256 729.2L873.513 722.406C888.215 716.484 900.979 709.806 912.539 701.987L916.649 708.053C904.656 716.166 891.442 723.083 876.256 729.2V729.2ZM950.336 676.855L944.386 672.573C946.432 669.737 948.2 666.97 949.91 664.294C954.958 656.396 960.179 648.228 972.611 638.202L973.481 637.506L978.024 643.255L977.216 643.9C965.714 653.179 961.04 660.494 956.089 668.238C954.326 670.998 952.5 673.852 950.336 676.855V676.855ZM1016.11 621.913L1013.44 615.091C1026.5 609.973 1041.26 605.854 1057.3 602.847L1058.66 610.048C1043.07 612.97 1028.75 616.962 1016.11 621.913V621.913Z" fill="#CCCCCC"/>
<path d="M1103.47 604.668L1103.01 597.357C1110.14 596.911 1117.58 596.618 1125.15 596.482L1125.28 603.808C1117.82 603.94 1110.49 604.23 1103.47 604.668V604.668Z" fill="#CCCCCC"/>
<path d="M352.241 353.532H249.374C244.205 353.532 239.989 357.745 239.989 362.909C239.989 368.11 244.205 372.323 249.374 372.323H352.241C357.41 372.323 361.626 368.11 361.626 362.909C361.626 357.745 357.41 353.532 352.241 353.532V353.532Z" fill="#E6E6E6"/>
<path d="M524.542 353.532H421.675C416.506 353.532 412.29 357.745 412.29 362.909C412.29 368.11 416.506 372.323 421.675 372.323H524.542C529.711 372.323 533.927 368.11 533.927 362.909C533.927 357.745 529.711 353.532 524.542 353.532Z" fill="#E6E6E6"/>
<path d="M696.842 353.532H593.975C588.806 353.532 584.59 357.745 584.59 362.909C584.59 368.11 588.806 372.323 593.975 372.323H696.842C702.011 372.323 706.227 368.11 706.227 362.909C706.227 357.745 702.011 353.532 696.842 353.532Z" fill="#E6E6E6"/>
<path d="M1174.71 970.089H239.886V977.415H1174.71V970.089Z" fill="#E6E6E6"/>
<path d="M1125.33 435.318C1058.79 437.04 1009.15 456.599 977.699 493.374C966.078 507 961.349 517.732 956.363 529.086C951.414 540.295 946.355 551.833 934.587 566.887V554.433C941.882 543.738 945.805 534.8 949.654 526.12C954.86 514.252 959.809 503.044 972.127 488.649C1004.97 450.19 1056.44 429.788 1125.11 427.993L1125.33 435.319V435.318Z" fill="#CCCCCC"/>
<path d="M956.363 529.086C951.414 540.295 946.355 551.833 934.587 566.887C933.194 568.681 931.691 570.549 930.078 572.491C887.626 622.928 830.913 639.484 785.309 652.816C782.45 653.659 779.663 654.428 776.951 655.16C736.405 666.149 714.189 665.746 697.656 665.489C681.049 665.197 670.088 665.013 650.475 676.221C614.512 696.697 599.774 726.658 585.514 755.631C570.813 785.446 556.956 813.613 521.616 826.836C497.091 835.993 479.861 831.451 461.641 826.69C445.987 822.551 417.775 720.673 392.794 705.817C341.214 716.622 309.87 885.038 270.754 975.217L264.009 972.286C304.151 879.837 337.218 709.993 391.254 698.638C415.34 693.583 447.05 815.262 463.51 819.584C480.594 824.089 496.687 828.301 519.05 819.95C551.677 807.79 564.288 782.113 578.915 752.408C592.992 723.838 608.939 691.459 646.809 669.848C668.181 657.651 680.609 657.871 697.766 658.164C714.116 658.457 736.185 658.823 776.951 647.578C779.003 646.992 781.093 646.406 783.256 645.784C827.908 632.744 883.447 616.518 924.432 567.802C928.465 563.004 931.801 558.572 934.587 554.433C941.882 543.738 945.805 534.8 949.654 526.12C954.86 514.252 961.349 517.732 956.363 529.086V529.086Z" fill="#6C63FF"/>
<path d="M565.426 1367.07C562.524 1356.97 557.555 1348.36 551.638 1342.21L530.142 1244.31L483.287 1255.78L510.137 1353.86C508.372 1362.16 508.725 1372.06 511.627 1382.16C518.256 1405.22 535.674 1420.54 550.53 1416.38C565.387 1412.21 572.056 1390.13 565.426 1367.07L565.426 1367.07Z" fill="#FFB6B6"/>
<path d="M558.944 724.824C558.944 724.824 484.949 723.31 466.134 777.149C449.008 826.153 428.707 960.786 439.682 968.565L486.396 1300L553.009 1290.85L535.913 893.183L558.944 724.824V724.824Z" fill="#6C63FF"/>
<path d="M902.742 1340.03L888.149 1675.5L857.649 1680.5L833.649 1683.5L818.149 1685L797.149 1686.5L777.649 1687.5L755.5 1688L715.484 1688L708.446 1532.07L678.149 1684.5L660.149 1682.5L645.149 1680.5L631.649 1678.5L623.149 1677L614.649 1675.5L604.149 1673.5L592.149 1671L576.649 1667.5L562.649 1664L553.149 1661.5L541.149 1658L534.149 1656L521.149 1652L512.149 1649L496.149 1643.5L514.15 1419.96L538.198 1363.58L554.475 1325.38L902.742 1340.03Z" fill="#2F2E41"/>
<path d="M762.287 658.75L641.31 651.424L600.984 702.704L513.001 735.669L553.327 1127.59L534.997 1362.01C534.997 1362.01 791.614 1567.13 901.593 1340.03L872.266 1065.32L879.598 746.657L795.28 710.029L762.287 658.75Z" fill="#6C63FF"/>
<path d="M995.187 569.601C996.499 582.3 994.832 594.242 990.994 603.817L1011.15 724.001L953.628 731.909L939.379 609.143C933.663 600.554 929.588 589.204 928.276 576.506C925.277 547.495 937.825 522.432 956.302 520.526C974.779 518.619 992.188 540.591 995.187 569.601V569.601H995.187Z" fill="#FFB6B6"/>
<path d="M895.002 760.418C875.173 726.556 825.988 723.364 803.959 755.839C797.936 764.717 799.614 774.696 798.176 786.686C792.072 837.586 889.695 987.994 957.244 1005.31C966.108 1007.58 971.157 1017.14 980.104 1019.06H980.104C1006.61 1024.75 1031.28 1003.73 1029.85 976.685L1011.5 629.787L934.419 656.057L939.353 836.159L895.002 760.418L895.002 760.418Z" fill="#6C63FF"/>
<path d="M714.353 641.946C773.205 641.946 820.914 594.278 820.914 535.476C820.914 476.674 773.205 429.006 714.353 429.006C655.5 429.006 607.791 476.674 607.791 535.476C607.791 594.278 655.5 641.946 714.353 641.946Z" fill="#FFB6B6"/>
<path d="M813.61 457.295C812.694 457.515 827.637 442.962 828.274 442.644C842.938 435.319 827.871 506.926 817.276 504.912C791.211 499.967 779.957 490.151 769.839 514.655C767.016 521.468 765.256 529.16 759.757 534.031C752.205 540.661 739.668 540.111 733.509 548.023C728.56 554.397 729.989 563.773 733.655 570.952C737.321 578.168 742.894 584.285 746.23 591.647C749.969 599.925 734.022 626.261 727.937 641.059V641.095L727.9 641.182C726.283 645.063 722.441 633.882 718.384 632.766C713.529 631.43 706.378 642.883 698.646 640.802C698.609 640.802 698.572 640.765 698.535 640.765C691.167 638.714 682.955 636.517 674.817 634.319H674.78C651.868 628.092 646.075 637.03 644.976 636.773L630.752 621.902C625.87 618.351 626.422 606.887 622.98 603.808C620.165 601.29 613.147 607.108 611.079 604.688C600.937 592.82 598.604 580.949 592.626 557.51C587.163 536.082 575.836 471.947 599.114 469.053C621.074 466.306 605.017 435.758 627.123 436.893C625.803 431.326 628.259 425.356 632.255 421.253C636.214 417.114 641.493 414.55 646.809 412.353C673.02 401.657 668.658 392.464 696.299 398.69C699.049 394.844 738.971 397.408 743.957 398.69C744.323 398.764 731.603 401.804 751.289 398.69C750.556 403.196 763.02 405.174 762.287 409.679C765.036 405.979 794.584 427.224 795.28 431.656C796.197 437.187 787.838 434.366 793.411 435.209C796.71 435.721 802.356 442.424 801.806 445.757C804.189 442.534 806.572 439.347 808.991 436.124C809.431 436.161 809.834 436.234 810.274 436.307C821.419 438.432 808.642 474.833 809.101 463.486C809.944 442.644 824.718 454.841 813.61 457.295V457.295Z" fill="#2F2E41"/>
<path d="M1221.85 1023.97C1222.67 1026 1225.51 1025.99 1226.33 1023.97C1232.05 1009.87 1240.2 994.084 1249.07 982.017C1250.48 980.085 1248.53 977.504 1246.27 978.319L1227.27 985.188V867.661H1220.91V985.188L1201.9 978.318C1199.65 977.503 1197.69 980.085 1199.11 982.017C1207.97 994.084 1216.12 1009.87 1221.85 1023.97V1023.97Z" fill="#3F3D56"/>
<path d="M1346.46 1144.98C1345.85 1147.08 1348.06 1148.84 1349.97 1147.76C1363.22 1140.28 1379.43 1132.98 1393.89 1129.04C1396.2 1128.41 1396.28 1125.17 1394 1124.41L1374.85 1117.98L1448 1025.94L1443.02 1021.99L1369.87 1114.03L1359.26 1096.83C1358 1094.79 1354.86 1095.6 1354.77 1098C1354.2 1112.95 1350.75 1130.38 1346.46 1144.98V1144.98Z" fill="#3F3D56"/>
<path d="M1286.95 1223.41H1163.33C1155.65 1223.41 1149.41 1217.17 1149.41 1209.51C1133.06 1161.77 1133.39 1115 1149.41 1069.14C1149.41 1061.47 1155.65 1055.23 1163.33 1055.23H1286.95C1294.63 1055.23 1300.87 1061.47 1300.87 1069.14V1209.51C1300.87 1217.17 1294.63 1223.41 1286.95 1223.41Z" fill="#E6E6E6"/>
<path d="M1189.82 1059.37C1169.79 1059.37 1153.56 1075.59 1153.56 1095.6V1206.53C1153.56 1213.56 1159.27 1219.27 1166.31 1219.27H1234.67C1268.94 1219.27 1296.72 1191.51 1296.72 1157.27V1072.11C1296.72 1065.08 1291.01 1059.37 1283.97 1059.37H1189.82V1059.37Z" fill="white"/>
<path d="M1253.93 1100.16H1196.05C1194.59 1100.16 1193.41 1098.98 1193.41 1097.52C1193.41 1096.06 1194.59 1094.88 1196.05 1094.88H1253.93C1255.39 1094.88 1256.58 1096.06 1256.58 1097.52C1256.58 1098.98 1255.39 1100.16 1253.93 1100.16Z" fill="#E6E6E6"/>
<path d="M1253.93 1156.54H1196.05C1194.59 1156.54 1193.41 1155.36 1193.41 1153.9C1193.41 1152.44 1194.59 1151.26 1196.05 1151.26H1253.93C1255.39 1151.26 1256.58 1152.44 1256.58 1153.9C1256.58 1155.36 1255.39 1156.54 1253.93 1156.54Z" fill="#E6E6E6"/>
<path d="M1284.99 1128.37H1164.99C1163.53 1128.37 1162.35 1127.19 1162.35 1125.73C1162.35 1124.27 1163.53 1123.08 1164.99 1123.08H1284.99C1286.45 1123.08 1287.63 1124.27 1287.63 1125.73C1287.63 1127.19 1286.45 1128.37 1284.99 1128.37Z" fill="#E6E6E6"/>
<path d="M1286.4 1179.47H1236.33C1234.87 1179.47 1233.69 1178.28 1233.69 1176.82C1233.69 1175.37 1234.87 1174.18 1236.33 1174.18H1286.4C1287.86 1174.18 1289.05 1175.37 1289.05 1176.82C1289.05 1178.28 1287.86 1179.47 1286.4 1179.47Z" fill="#E6E6E6"/>
<path d="M164.69 173.554C189.924 173.554 210.38 153.546 210.38 128.865C210.38 104.184 189.924 84.176 164.69 84.176C139.456 84.176 119 104.184 119 128.865C119 153.546 139.456 173.554 164.69 173.554Z" fill="#6C63FF"/>
<path d="M530.967 113.577H285.036C276.599 113.577 269.735 106.718 269.735 98.2883C269.735 89.8586 276.599 83 285.036 83H530.967C539.404 83 546.269 89.8586 546.269 98.2883C546.269 106.718 539.404 113.577 530.967 113.577Z" fill="#F2F2F2"/>
<path d="M722.893 165.322H285.036C276.599 165.322 269.735 158.463 269.735 150.033C269.735 141.604 276.599 134.745 285.036 134.745H722.893C731.33 134.745 738.194 141.604 738.194 150.033C738.194 158.463 731.33 165.322 722.893 165.322V165.322Z" fill="#F2F2F2"/>
</g>
<defs>
<linearGradient id="paint0_linear_0_3" x1="750" y1="184" x2="750" y2="1688" gradientUnits="userSpaceOnUse">
<stop stop-color="#2F00B1"/>
<stop offset="1" stop-color="#823AF9"/>
</linearGradient>
<clipPath id="clip0_0_3">
<rect width="1329" height="1605" fill="white" transform="translate(119 83)"/>
</clipPath>
</defs>
</svg>
