<svg width="991" height="926" viewBox="0 0 991 926" fill="none" xmlns="http://www.w3.org/2000/svg">
<rect width="991" height="926" fill="#E5E5E5"/>
<g clip-path="url(#clip0_0_1)">
<rect width="991" height="926" fill="#F7F7F7"/>
<path fill-rule="evenodd" clip-rule="evenodd" d="M571.68 22.8414C539.842 30.5009 508.539 48.9587 476.384 41.8271C444.244 34.6986 422.298 4.7799 396.24 -16.0699C371.173 -36.1281 347.197 -56.1479 324.878 -79.4016C298.183 -107.215 261.851 -129.788 251.204 -167.181C240.605 -204.406 249.11 -247.017 267.663 -280.348C285.816 -312.959 326.216 -323.522 352.641 -349.413C376.502 -372.794 386.507 -411.041 416.188 -425.876C445.884 -440.719 482.242 -438.741 514.53 -430.329C544.798 -422.444 565.232 -393.806 593.37 -379.719C620.07 -366.352 649.306 -362.102 676.282 -349.351C712.96 -332.014 767.75 -329.648 781.69 -290.705C795.523 -252.059 747.017 -218.198 737.421 -178.546C729.52 -145.901 743.24 -109.628 730.393 -78.7561C717.309 -47.3134 692.746 -21.4882 664.555 -3.44278C637.065 14.155 603.305 15.233 571.68 22.8414Z" fill="url(#paint0_radial_0_1)"/>
<path fill-rule="evenodd" clip-rule="evenodd" d="M427.034 1200.37C415.124 1230.88 412.381 1267.11 388.152 1289.42C363.935 1311.72 326.841 1312.63 294.84 1322.1C264.054 1331.21 233.923 1339.44 202.086 1344.47C164.006 1350.48 124.718 1367.39 87.949 1354.76C51.3451 1342.18 21.239 1310.85 4.49075 1276.57C-11.8958 1243.04 2.52521 1203.85 -3.61972 1167.37C-9.16864 1134.43 -34.8369 1104.36 -30.048 1071.53C-25.2567 1038.67 -2.85479 1009.97 22.5 988.282C46.2689 967.95 81.4473 967.549 109.088 952.509C135.317 938.238 155.512 916.677 181.393 901.827C216.58 881.637 249.835 838.027 289.758 848.845C329.377 859.579 329.442 918.735 356.496 949.271C378.769 974.412 416.376 983.883 434.368 1012.07C452.692 1040.77 459.846 1075.69 458.544 1109.14C457.273 1141.75 438.864 1170.07 427.034 1200.37Z" fill="url(#paint1_radial_0_1)"/>
<path fill-rule="evenodd" clip-rule="evenodd" d="M994.473 969.856C1015 995.369 1045.06 1015.78 1052.35 1047.9C1059.64 1080.01 1041.97 1112.63 1034.25 1145.1C1026.83 1176.34 1018.97 1206.57 1007.48 1236.68C993.741 1272.7 988.856 1315.19 959.597 1340.8C930.469 1366.28 888.31 1376.8 850.247 1374.27C813.007 1371.79 786.195 1339.77 751.495 1326.95C720.161 1315.36 681.307 1322.66 655.212 1302.16C629.104 1281.65 615.358 1247.94 609.167 1215.15C603.364 1184.42 620.526 1153.7 621.24 1122.25C621.917 1092.39 613.269 1064.15 613.271 1034.31C613.275 993.739 592.003 943.19 621.257 913.948C650.287 884.929 701.627 914.316 741.577 906.051C774.469 899.246 801.402 871.344 834.803 869.768C868.822 868.163 902.666 879.337 931.026 897.115C958.682 914.451 974.081 944.513 994.473 969.856Z" fill="url(#paint2_radial_0_1)"/>
<path fill-rule="evenodd" clip-rule="evenodd" d="M248.863 1187.65C230.122 1214.44 218.938 1248.95 190.158 1264.87C161.391 1280.78 125.145 1272.88 91.8353 1274.5C59.7899 1276.05 28.5867 1276.91 -3.52 1274.26C-41.9224 1271.08 -84.061 1278.2 -116.807 1257.24C-149.405 1236.37 -171.282 1198.84 -179.492 1161.62C-187.525 1125.2 -164.303 1090.59 -161.695 1053.73C-159.339 1020.45 -177.203 985.202 -164.831 954.473C-152.453 923.728 -123.944 901.173 -94.2163 886.126C-66.3478 872.02 -32.083 879.954 -1.69765 871.9C27.1346 864.257 51.821 848.113 80.4519 839.826C119.378 828.56 161.933 794.11 198.169 814.053C234.129 833.845 220.284 891.264 239.383 927.297C255.108 956.964 289.41 975.052 300.26 1006.66C311.31 1038.85 310.05 1074.43 300.921 1106.57C292.018 1137.92 267.478 1161.05 248.863 1187.65Z" fill="url(#paint3_radial_0_1)"/>
<path fill-rule="evenodd" clip-rule="evenodd" d="M-127.482 38.7702C-153.155 18.5363 -186.977 5.40696 -201.231 -24.2317C-215.479 -53.8572 -205.537 -89.5948 -205.254 -122.943C-204.983 -155.025 -204.067 -186.226 -199.588 -218.13C-194.232 -256.29 -198.94 -298.765 -176.152 -330.265C-153.467 -361.624 -114.756 -381.331 -77.1273 -387.411C-40.3117 -393.359 -7.07178 -368.206 29.5751 -363.505C62.6675 -359.26 98.8773 -375.09 128.853 -360.99C158.845 -346.883 179.741 -317.137 193.073 -286.602C205.571 -257.976 195.7 -224.218 202.013 -193.424C208.003 -164.204 222.717 -138.639 229.362 -109.583C238.396 -70.0789 270.369 -25.6331 248.397 9.40991C226.593 44.1858 170.053 27.0972 132.992 44.1158C102.479 58.1274 82.4688 91.3451 50.2948 100.379C17.5262 109.58 -17.9193 106.299 -49.4954 95.3559C-80.2883 84.6846 -101.98 58.8689 -127.482 38.7702Z" fill="url(#paint4_radial_0_1)"/>
<circle cx="34.4306" cy="817.431" r="24" transform="rotate(112.825 34.4306 817.431)" fill="url(#paint5_linear_0_1)"/>
<circle cx="700.431" cy="31.4306" r="24" transform="rotate(112.825 700.431 31.4306)" fill="url(#paint6_linear_0_1)"/>
<circle cx="951.655" cy="764.655" r="24" transform="rotate(-16.0932 951.655 764.655)" fill="url(#paint7_linear_0_1)"/>
<ellipse cx="779.5" cy="45" rx="17.5" ry="18" fill="url(#paint8_linear_0_1)"/>
<path fill-rule="evenodd" clip-rule="evenodd" d="M1214.81 916.78C1231.1 945.118 1257.6 969.896 1259.8 1002.71C1261.99 1035.51 1239.46 1064.98 1226.78 1095.82C1214.58 1125.5 1202.11 1154.11 1186.08 1182.06C1166.9 1215.48 1155.45 1256.65 1122.58 1277.4C1089.85 1298.06 1046.58 1301.94 1009.39 1293.57C973.011 1285.38 951.527 1249.66 919.265 1231.66C890.132 1215.4 850.632 1216.61 828.061 1192.36C805.478 1168.1 797.159 1132.71 796.155 1099.41C795.214 1068.19 816.944 1040.53 822.55 1009.6C827.87 980.251 823.732 951.046 828.384 921.605C834.708 881.578 821.581 828.423 855.021 804.08C888.206 779.923 934.318 816.834 975.051 814.838C1008.59 813.194 1039.53 789.815 1072.75 793.41C1106.59 797.071 1138.26 813.314 1163.5 835.226C1188.1 856.595 1198.62 888.631 1214.81 916.78Z" fill="url(#paint9_radial_0_1)"/>
<path fill-rule="evenodd" clip-rule="evenodd" d="M894.856 -266.049C919.636 -287.367 939.006 -318.045 970.827 -326.353C1002.63 -334.657 1035.8 -318.049 1068.48 -311.379C1099.91 -304.962 1130.36 -298.082 1160.81 -287.57C1197.24 -274.998 1239.83 -271.477 1266.38 -243.073C1292.81 -214.796 1304.73 -173.025 1303.48 -134.93C1302.26 -97.6565 1271.2 -69.855 1259.56 -34.7889C1249.05 -3.12396 1257.65 35.4488 1238.06 62.1659C1218.47 88.8968 1185.27 103.703 1152.74 110.934C1122.25 117.713 1091.01 101.554 1059.58 101.846C1029.75 102.124 1001.84 111.665 972.051 112.616C931.548 113.909 881.797 136.77 851.616 108.487C821.665 80.4206 849.275 28.2058 839.677 -11.4304C831.775 -44.0633 803.009 -70.0706 800.31 -103.38C797.562 -137.304 807.577 -171.464 824.37 -200.356C840.746 -228.532 870.242 -244.873 894.856 -266.049Z" fill="url(#paint10_radial_0_1)"/>
</g>
<defs>
<radialGradient id="paint0_radial_0_1" cx="0" cy="0" r="1" gradientUnits="userSpaceOnUse" gradientTransform="translate(430.338 -363.224) rotate(25.7407) scale(421.837 505.479)">
<stop stop-color="#4BACFF"/>
<stop offset="0.540703" stop-color="#8570B5"/>
<stop offset="0.931984" stop-color="#DB5F8A"/>
</radialGradient>
<radialGradient id="paint1_radial_0_1" cx="0" cy="0" r="1" gradientUnits="userSpaceOnUse" gradientTransform="translate(29.4506 1095.72) rotate(-29.4044) scale(421.837 505.479)">
<stop stop-color="#4BACFF"/>
<stop offset="0.540703" stop-color="#8570B5"/>
<stop offset="0.931984" stop-color="#DB5F8A"/>
</radialGradient>
<radialGradient id="paint2_radial_0_1" cx="0" cy="0" r="1" gradientUnits="userSpaceOnUse" gradientTransform="translate(705.811 1262.6) rotate(-89.5535) scale(421.837 505.479)">
<stop stop-color="#4BACFF"/>
<stop offset="0.540703" stop-color="#8570B5"/>
<stop offset="0.931984" stop-color="#DB5F8A"/>
</radialGradient>
<radialGradient id="paint3_radial_0_1" cx="0" cy="0" r="1" gradientUnits="userSpaceOnUse" gradientTransform="translate(-112.725 992.028) rotate(-15.6998) scale(421.382 505.127)">
<stop stop-color="#4BACFF"/>
<stop offset="0.540703" stop-color="#8570B5"/>
<stop offset="0.931984" stop-color="#DB5F8A"/>
</radialGradient>
<radialGradient id="paint4_radial_0_1" cx="0" cy="0" r="1" gradientUnits="userSpaceOnUse" gradientTransform="translate(88.3946 -311.105) rotate(77.5611) scale(421.382 505.127)">
<stop stop-color="#4BACFF"/>
<stop offset="0.540703" stop-color="#8570B5"/>
<stop offset="0.931984" stop-color="#DB5F8A"/>
</radialGradient>
<linearGradient id="paint5_linear_0_1" x1="34.4306" y1="793.431" x2="34.2769" y2="835.078" gradientUnits="userSpaceOnUse">
<stop stop-color="#6A8BD6"/>
<stop offset="1" stop-color="#BB659A"/>
</linearGradient>
<linearGradient id="paint6_linear_0_1" x1="700.431" y1="7.43058" x2="700.277" y2="49.0776" gradientUnits="userSpaceOnUse">
<stop stop-color="#6A8BD6"/>
<stop offset="1" stop-color="#BB659A"/>
</linearGradient>
<linearGradient id="paint7_linear_0_1" x1="951.655" y1="740.655" x2="951.502" y2="782.302" gradientUnits="userSpaceOnUse">
<stop stop-color="#6A8BD6"/>
<stop offset="1" stop-color="#BB659A"/>
</linearGradient>
<linearGradient id="paint8_linear_0_1" x1="779.5" y1="27" x2="779.381" y2="58.2352" gradientUnits="userSpaceOnUse">
<stop stop-color="#BB659A"/>
<stop offset="1" stop-color="#7088D1"/>
</linearGradient>
<radialGradient id="paint9_radial_0_1" cx="0" cy="0" r="1" gradientUnits="userSpaceOnUse" gradientTransform="translate(884.184 1161.12) rotate(-80.5798) scale(421.382 505.127)">
<stop stop-color="#4BACFF"/>
<stop offset="0.540703" stop-color="#8570B5"/>
<stop offset="0.931984" stop-color="#DB5F8A"/>
</radialGradient>
<radialGradient id="paint10_radial_0_1" cx="0" cy="0" r="1" gradientUnits="userSpaceOnUse" gradientTransform="translate(1196.86 12.8947) rotate(178.613) scale(421.382 505.127)">
<stop stop-color="#4BACFF"/>
<stop offset="0.540703" stop-color="#8570B5"/>
<stop offset="0.931984" stop-color="#DB5F8A"/>
</radialGradient>
<clipPath id="clip0_0_1">
<rect width="991" height="926" fill="white"/>
</clipPath>
</defs>
</svg>
