<svg width="991" height="926" viewBox="0 0 991 926" fill="none" xmlns="http://www.w3.org/2000/svg">
<rect width="991" height="926" fill="#E5E5E5"/>
<g clip-path="url(#clip0_0_1)">
<rect width="991" height="926" fill="#F7F7F7"/>
<path fill-rule="evenodd" clip-rule="evenodd" d="M571.68 22.8414C539.842 30.5009 508.539 48.9587 476.384 41.8271C444.244 34.6986 422.298 4.7799 396.24 -16.0699C371.173 -36.1281 347.197 -56.1479 324.878 -79.4016C298.183 -107.215 261.851 -129.788 251.204 -167.181C240.605 -204.406 249.11 -247.017 267.663 -280.348C285.816 -312.959 326.216 -323.522 352.641 -349.413C376.502 -372.794 386.507 -411.041 416.188 -425.876C445.884 -440.719 482.242 -438.741 514.53 -430.329C544.798 -422.444 565.232 -393.806 593.37 -379.719C620.07 -366.352 649.306 -362.102 676.282 -349.351C712.96 -332.014 767.75 -329.648 781.69 -290.705C795.523 -252.059 747.017 -218.198 737.421 -178.546C729.52 -145.901 743.24 -109.628 730.393 -78.7561C717.309 -47.3134 692.746 -21.4882 664.555 -3.44278C637.065 14.155 603.305 15.233 571.68 22.8414Z" fill="url(#paint0_radial_0_1)"/>
<path fill-rule="evenodd" clip-rule="evenodd" d="M437.034 1196.37C425.124 1226.88 422.381 1263.11 398.152 1285.42C373.935 1307.72 336.841 1308.63 304.84 1318.1C274.054 1327.21 243.923 1335.44 212.086 1340.47C174.006 1346.48 134.718 1363.39 97.949 1350.76C61.3451 1338.18 31.239 1306.85 14.4907 1272.57C-1.89582 1239.04 12.5252 1199.85 6.38027 1163.37C0.831351 1130.43 -24.8369 1100.36 -20.048 1067.53C-15.2567 1034.67 7.14523 1005.97 32.5 984.282C56.2689 963.95 91.4473 963.549 119.088 948.509C145.317 934.238 165.512 912.677 191.393 897.827C226.58 877.637 259.835 834.027 299.758 844.845C339.377 855.579 339.442 914.735 366.496 945.271C388.769 970.412 426.376 979.883 444.368 1008.07C462.692 1036.77 469.846 1071.69 468.544 1105.14C467.273 1137.75 448.864 1166.07 437.034 1196.37Z" fill="url(#paint1_radial_0_1)"/>
<path fill-rule="evenodd" clip-rule="evenodd" d="M994.473 969.856C1015 995.369 1045.06 1015.78 1052.35 1047.9C1059.64 1080.01 1041.97 1112.63 1034.25 1145.1C1026.83 1176.34 1018.97 1206.57 1007.48 1236.68C993.741 1272.7 988.856 1315.19 959.597 1340.8C930.469 1366.28 888.31 1376.8 850.247 1374.27C813.007 1371.79 786.195 1339.77 751.495 1326.95C720.161 1315.36 681.307 1322.66 655.212 1302.16C629.104 1281.65 615.358 1247.94 609.167 1215.15C603.364 1184.42 620.526 1153.7 621.24 1122.25C621.917 1092.39 613.269 1064.15 613.271 1034.31C613.275 993.739 592.003 943.19 621.257 913.948C650.287 884.929 701.627 914.316 741.577 906.051C774.469 899.246 801.402 871.344 834.803 869.768C868.822 868.163 902.666 879.337 931.026 897.115C958.682 914.451 974.081 944.513 994.473 969.856Z" fill="url(#paint2_radial_0_1)"/>
<path fill-rule="evenodd" clip-rule="evenodd" d="M265.863 1169.44C247.122 1196.22 235.938 1230.74 207.158 1246.66C178.391 1262.57 142.145 1254.67 108.835 1256.29C76.7899 1257.84 45.5867 1258.7 13.48 1256.04C-24.9224 1252.87 -67.061 1259.98 -99.8067 1239.02C-132.405 1218.16 -154.282 1180.63 -162.492 1143.41C-170.525 1106.99 -147.303 1072.38 -144.695 1035.52C-142.339 1002.24 -160.203 966.99 -147.831 936.261C-135.453 905.516 -106.944 882.961 -77.2163 867.914C-49.3478 853.808 -15.083 861.742 15.3024 853.688C44.1346 846.046 68.821 829.901 97.4519 821.615C136.378 810.348 178.933 775.898 215.169 795.841C251.129 815.633 237.284 873.052 256.383 909.085C272.108 938.752 306.41 956.841 317.26 988.449C328.31 1020.64 327.05 1056.22 317.921 1088.36C309.018 1119.71 284.478 1142.84 265.863 1169.44Z" fill="url(#paint3_radial_0_1)"/>
<path fill-rule="evenodd" clip-rule="evenodd" d="M-127.482 43.7702C-153.155 23.5363 -186.977 10.407 -201.231 -19.2318C-215.479 -48.8572 -205.537 -84.5948 -205.254 -117.943C-204.983 -150.025 -204.067 -181.226 -199.588 -213.13C-194.232 -251.29 -198.94 -293.765 -176.152 -325.265C-153.467 -356.624 -114.756 -376.331 -77.1273 -382.411C-40.3116 -388.359 -7.07178 -363.206 29.5751 -358.505C62.6674 -354.26 98.8773 -370.09 128.853 -355.99C158.845 -341.883 179.741 -312.137 193.073 -281.602C205.571 -252.976 195.7 -219.218 202.013 -188.424C208.003 -159.204 222.717 -133.639 229.362 -104.583C238.396 -65.0789 270.369 -20.6331 248.397 14.4099C226.593 49.1858 170.053 32.0972 132.992 49.1158C102.479 63.1274 82.4688 96.3451 50.2948 105.379C17.5262 114.58 -17.9193 111.299 -49.4954 100.356C-80.2883 89.6846 -101.98 63.8689 -127.482 43.7702Z" fill="url(#paint4_radial_0_1)"/>
<circle cx="44.4306" cy="795.431" r="24" transform="rotate(112.825 44.4306 795.431)" fill="url(#paint5_linear_0_1)"/>
<circle cx="700.431" cy="31.4306" r="24" transform="rotate(112.825 700.431 31.4306)" fill="url(#paint6_linear_0_1)"/>
<circle cx="951.655" cy="764.655" r="24" transform="rotate(-16.0932 951.655 764.655)" fill="url(#paint7_linear_0_1)"/>
<ellipse cx="116.5" cy="768" rx="17.5" ry="18" fill="url(#paint8_linear_0_1)"/>
<ellipse cx="779.5" cy="45" rx="17.5" ry="18" fill="url(#paint9_linear_0_1)"/>
<path fill-rule="evenodd" clip-rule="evenodd" d="M1214.81 916.78C1231.1 945.118 1257.6 969.896 1259.8 1002.71C1261.99 1035.51 1239.46 1064.98 1226.78 1095.82C1214.58 1125.5 1202.11 1154.11 1186.08 1182.06C1166.9 1215.48 1155.45 1256.65 1122.58 1277.4C1089.85 1298.06 1046.58 1301.94 1009.39 1293.57C973.011 1285.38 951.527 1249.66 919.265 1231.66C890.132 1215.4 850.632 1216.61 828.061 1192.36C805.478 1168.1 797.159 1132.71 796.155 1099.41C795.214 1068.19 816.944 1040.53 822.55 1009.6C827.87 980.251 823.732 951.046 828.384 921.605C834.708 881.578 821.581 828.423 855.021 804.08C888.206 779.923 934.318 816.834 975.051 814.838C1008.59 813.194 1039.53 789.815 1072.75 793.41C1106.59 797.071 1138.26 813.314 1163.5 835.226C1188.1 856.595 1198.62 888.631 1214.81 916.78Z" fill="url(#paint10_radial_0_1)"/>
<path fill-rule="evenodd" clip-rule="evenodd" d="M881.856 -238.049C906.636 -259.367 926.006 -290.045 957.827 -298.353C989.635 -306.657 1022.8 -290.049 1055.48 -283.379C1086.91 -276.962 1117.36 -270.082 1147.81 -259.57C1184.24 -246.998 1226.83 -243.477 1253.38 -215.073C1279.81 -186.796 1291.73 -145.025 1290.48 -106.93C1289.26 -69.6565 1258.2 -41.855 1246.56 -6.78888C1236.05 24.876 1244.65 63.4488 1225.06 90.1659C1205.47 116.897 1172.27 131.703 1139.74 138.934C1109.25 145.713 1078.01 129.554 1046.58 129.846C1016.75 130.124 988.842 139.665 959.051 140.616C918.548 141.909 868.797 164.77 838.616 136.487C808.665 108.421 836.275 56.2058 826.677 16.5696C818.775 -16.0633 790.009 -42.0706 787.31 -75.3797C784.562 -109.304 794.577 -143.464 811.37 -172.356C827.746 -200.532 857.242 -216.873 881.856 -238.049Z" fill="url(#paint11_radial_0_1)"/>
</g>
<defs>
<radialGradient id="paint0_radial_0_1" cx="0" cy="0" r="1" gradientUnits="userSpaceOnUse" gradientTransform="translate(430.338 -363.224) rotate(25.7407) scale(421.837 505.479)">
<stop stop-color="#4BACFF"/>
<stop offset="0.540703" stop-color="#8570B5"/>
<stop offset="0.931984" stop-color="#DB5F8A"/>
</radialGradient>
<radialGradient id="paint1_radial_0_1" cx="0" cy="0" r="1" gradientUnits="userSpaceOnUse" gradientTransform="translate(39.4506 1091.72) rotate(-29.4044) scale(421.837 505.479)">
<stop stop-color="#4BACFF"/>
<stop offset="0.540703" stop-color="#8570B5"/>
<stop offset="0.931984" stop-color="#DB5F8A"/>
</radialGradient>
<radialGradient id="paint2_radial_0_1" cx="0" cy="0" r="1" gradientUnits="userSpaceOnUse" gradientTransform="translate(705.811 1262.6) rotate(-89.5535) scale(421.837 505.479)">
<stop stop-color="#4BACFF"/>
<stop offset="0.540703" stop-color="#8570B5"/>
<stop offset="0.931984" stop-color="#DB5F8A"/>
</radialGradient>
<radialGradient id="paint3_radial_0_1" cx="0" cy="0" r="1" gradientUnits="userSpaceOnUse" gradientTransform="translate(-95.7255 973.816) rotate(-15.6998) scale(421.382 505.127)">
<stop stop-color="#4BACFF"/>
<stop offset="0.540703" stop-color="#8570B5"/>
<stop offset="0.931984" stop-color="#DB5F8A"/>
</radialGradient>
<radialGradient id="paint4_radial_0_1" cx="0" cy="0" r="1" gradientUnits="userSpaceOnUse" gradientTransform="translate(88.3946 -306.105) rotate(77.5611) scale(421.382 505.127)">
<stop stop-color="#4BACFF"/>
<stop offset="0.540703" stop-color="#8570B5"/>
<stop offset="0.931984" stop-color="#DB5F8A"/>
</radialGradient>
<linearGradient id="paint5_linear_0_1" x1="44.4306" y1="771.431" x2="44.2769" y2="813.078" gradientUnits="userSpaceOnUse">
<stop stop-color="#6A8BD6"/>
<stop offset="1" stop-color="#BB659A"/>
</linearGradient>
<linearGradient id="paint6_linear_0_1" x1="700.431" y1="7.43058" x2="700.277" y2="49.0776" gradientUnits="userSpaceOnUse">
<stop stop-color="#6A8BD6"/>
<stop offset="1" stop-color="#BB659A"/>
</linearGradient>
<linearGradient id="paint7_linear_0_1" x1="951.655" y1="740.655" x2="951.502" y2="782.302" gradientUnits="userSpaceOnUse">
<stop stop-color="#6A8BD6"/>
<stop offset="1" stop-color="#BB659A"/>
</linearGradient>
<linearGradient id="paint8_linear_0_1" x1="116.5" y1="750" x2="116.381" y2="781.235" gradientUnits="userSpaceOnUse">
<stop stop-color="#BB659A"/>
<stop offset="1" stop-color="#7088D1"/>
</linearGradient>
<linearGradient id="paint9_linear_0_1" x1="779.5" y1="27" x2="779.381" y2="58.2352" gradientUnits="userSpaceOnUse">
<stop stop-color="#BB659A"/>
<stop offset="1" stop-color="#7088D1"/>
</linearGradient>
<radialGradient id="paint10_radial_0_1" cx="0" cy="0" r="1" gradientUnits="userSpaceOnUse" gradientTransform="translate(884.184 1161.12) rotate(-80.5798) scale(421.382 505.127)">
<stop stop-color="#4BACFF"/>
<stop offset="0.540703" stop-color="#8570B5"/>
<stop offset="0.931984" stop-color="#DB5F8A"/>
</radialGradient>
<radialGradient id="paint11_radial_0_1" cx="0" cy="0" r="1" gradientUnits="userSpaceOnUse" gradientTransform="translate(1183.86 40.8947) rotate(178.613) scale(421.382 505.127)">
<stop stop-color="#4BACFF"/>
<stop offset="0.540703" stop-color="#8570B5"/>
<stop offset="0.931984" stop-color="#DB5F8A"/>
</radialGradient>
<clipPath id="clip0_0_1">
<rect width="991" height="926" fill="white"/>
</clipPath>
</defs>
</svg>
